<svg xmlns="http://www.w3.org/2000/svg" width="401.5" height="349" viewBox="0 0 401.5 349"><g transform="translate(-146.75 -71.8)"><path d="M640.88,374.979c26.78-1.442,49.941-15.574,59.522-37.267,8.154-18.494,9.886-50.339-9.779-61.708-18.412-10.641-42.537,4.189-43.648,4.892-.749.831-7.573,8.663-5.524,15.828a22.522,22.522,0,0,0,2.482,5.1,22.21,22.21,0,0,0,5.392,5.657c6.416-13.25,19.207-19.284,27.753-16.129,10.666,3.929,11.492,20.98,9.881,30.067-3.542,19.982-23.809,28.91-26.066,29.863L637.669,356.1c-4.816,1.57-7.705,6.074-7.089,10.325.678,4.663,5.254,6.824,5.606,6.971Z" transform="translate(-237.157 -98.604)" fill="#fff" stroke="#4f008c" stroke-miterlimit="10" stroke-width="2"/><path d="M404.842,376.069c-26.78-1.437-49.941-15.574-59.522-37.262-8.154-18.5-9.886-50.344,9.779-61.713,18.412-10.641,42.537,4.189,43.648,4.892.749.836,7.573,8.663,5.524,15.828a22.518,22.518,0,0,1-2.482,5.1,22.04,22.04,0,0,1-5.4,5.657c-6.411-13.25-19.2-19.283-27.748-16.129-10.666,3.934-11.492,20.98-9.881,30.067,3.542,19.977,23.809,28.9,26.066,29.858l23.238,4.851c4.816,1.57,7.705,6.074,7.089,10.325-.678,4.663-5.254,6.824-5.606,6.976Z" transform="translate(-94.226 -99.141)" fill="#fff" stroke="#4f008c" stroke-linecap="round" stroke-linejoin="round" stroke-width="2"/><path d="M561.134,604.359c-1.529-11.634-14.544-16.985-14.544-16.985L538.6,582.66l-7.955,4.79s-13.051,5.274-14.58,16.909c-.846,6.431,11.4,7.6,22.535,7.369C549.735,611.962,561.986,610.79,561.134,604.359Z" transform="translate(-180.895 -251.195)" fill="#fff" stroke="#4f008c" stroke-linecap="round" stroke-linejoin="round" stroke-width="2"/><path d="M536.921,620.85h-44.9l-25.2,25.378h95.3Z" transform="translate(-156.766 -270.076)" fill="#fff" stroke="#4f008c" stroke-linecap="round" stroke-linejoin="round" stroke-width="2"/><path d="M553.258,553.6H544.63v19.589h16V553.6Z" transform="translate(-194.92 -236.887)" fill="#fff" stroke="#4f008c" stroke-linecap="round" stroke-linejoin="round" stroke-width="2"/><path d="M526.679,532.463a18.738,18.738,0,0,0,8.775,3.3h11.013a9.274,9.274,0,0,0,2.283-.622,22.258,22.258,0,0,0,6.625-4.75c5.025-5.1,6.238-12.231,5.575-18.855a35.677,35.677,0,0,0-.652-4.107H523.606a14.729,14.729,0,0,1-4.143-.566c-.479,2.879-.943,7.675-.943,8.087C518.545,521.577,520.859,528.218,526.679,532.463Z" transform="translate(-182.117 -213.923)" fill="#fff" stroke="#4f008c" stroke-linecap="round" stroke-linejoin="round" stroke-width="2"/><path d="M500.693,258.446l-61.973-1.1,3.71,83.458s4.464,43.424,46.119,45.457h24.262c41.655-2.038,46.114-45.457,46.114-45.457l3.72-83.458Z" transform="translate(-142.988 -91.347)" fill="#fff" stroke="#4f008c" stroke-linecap="round" stroke-linejoin="round" stroke-width="2"/><path d="M498.781,256.02h-64.8v21.373H562.752V256.02Z" transform="translate(-140.663 -90.577)" fill="#fff" stroke="#4f008c" stroke-linecap="round" stroke-linejoin="round" stroke-width="2"/><path d="M456.578,298H442.09l1.993,62.743c.336,3.287,3,25.913,22.479,38.256a47.648,47.648,0,0,0,23.641,7.2c-14.682-8.561-22.326-18.244-26.617-25.715C457.225,369.386,454.091,362.516,456.578,298Z" transform="translate(-144.579 -111.322)" fill="#4f008c" stroke="#4f008c" stroke-linecap="round" stroke-linejoin="round" stroke-width="2"/><path d="M514.906,672.25H466.82v33.165h95.3V672.25Z" transform="translate(-156.766 -295.282)" fill="#fff" stroke="#4f008c" stroke-linecap="round" stroke-linejoin="round" stroke-width="2"/><path d="M535.826,688.4H509.52v6.054H561.3V688.4Z" transform="translate(-177.703 -303.202)" fill="#ff6a39" stroke="#4f008c" stroke-linecap="round" stroke-linejoin="round" stroke-width="2"/><path d="M535.826,711.2H509.52v6.059H561.3V711.2Z" transform="translate(-177.703 -314.383)" fill="#ff6a39" stroke="#4f008c" stroke-linecap="round" stroke-linejoin="round" stroke-width="2"/><path d="M511.669,734.33H460.26v11.2H562.252v-11.2Z" transform="translate(-153.549 -325.726)" fill="#fff" stroke="#4f008c" stroke-linecap="round" stroke-linejoin="round" stroke-width="2"/><text transform="translate(346.684 244.358)" fill="#ff6a39" stroke="#4f008c" stroke-linecap="round" stroke-linejoin="round" stroke-width="2" font-size="53" font-family="STCForward-Bold, STC Forward" font-weight="700"><tspan x="0" y="0">1</tspan></text><path d="M341.717,255.282a21.2,21.2,0,0,0-15.956,7.782l-2.171-1.931a24.572,24.572,0,0,1,17.53-10.753Z" transform="translate(-86.361 -87.798)" fill="#4f008c"/><path d="M316.721,363.79a13.642,13.642,0,0,0,10.814,3.567c.056.744.082,1.116.133,1.86A15.737,15.737,0,0,1,314.8,366.3Z" transform="translate(-82.042 -143.548)" fill="#4f008c"/><path d="M864.461,447.5a21.232,21.232,0,0,0,9.326,15.1l-1.707,2.354A24.544,24.544,0,0,1,859.64,448.58Z" transform="translate(-349.662 -184.718)" fill="#4f008c"/><path d="M629.691,242.27a21.308,21.308,0,0,0,13.352,11.721l-.943,2.747a24.548,24.548,0,0,1-16.7-12.011Z" transform="translate(-234.59 -83.812)" fill="#4f008c"/><path d="M808.966,275.5a21.192,21.192,0,0,0-14.947,9.586l-2.38-1.672a24.63,24.63,0,0,1,16.17-12.71C808.2,272.3,808.579,273.911,808.966,275.5Z" transform="translate(-316.315 -97.789)" fill="#4f008c"/><path d="M488.382,78.072a21.242,21.242,0,0,0-15.961,7.782l-2.171-1.937A24.586,24.586,0,0,1,487.785,73.17Z" transform="translate(-158.391 -0.672)" fill="#4f008c"/><path d="M332.182,181.552a21.223,21.223,0,0,0-15.956,7.782L314.05,187.4a24.586,24.586,0,0,1,17.536-10.748Z" transform="translate(-81.676 -51.418)" fill="#ff6a39" stroke="#4f008c" stroke-linecap="round" stroke-linejoin="round" stroke-width="1"/><path d="M478.68,213.54a21.272,21.272,0,0,0,7.889-15.91l2.9.209a24.538,24.538,0,0,1-7.323,19.217Z" transform="translate(-162.526 -61.867)" fill="#ff6a39" stroke="#4f008c" stroke-linecap="round" stroke-linejoin="round" stroke-width="1"/><path d="M311.578,394.921a21.512,21.512,0,0,1-12.042-13.041l-2.7.994a24.854,24.854,0,0,0,12.46,16.358Z" transform="translate(-73.222 -152.455)" fill="#4f008c"/><path d="M790.83,184.283a29.283,29.283,0,0,0,10.865-21.913l4,.28a33.9,33.9,0,0,1-10.09,26.5Z" transform="translate(-315.918 -44.415)" fill="#4f008c"/><path d="M499.5,172.55a13.647,13.647,0,0,0,11.211,2.237c.143.734.214,1.1.352,1.829a15.742,15.742,0,0,1-13.122-1.335Z" transform="translate(-171.987 -49.407)" fill="#ff6a39" stroke="#4f008c" stroke-linecap="round" stroke-linejoin="round" stroke-width="1"/><path d="M251.39,516.8a25.072,25.072,0,0,0-5.652,20.175l-3.409.4a28.957,28.957,0,0,1,4.276-23.9Z" transform="translate(-45.928 -217.169)" fill="#4f008c"/><path d="M366.687,557a25.1,25.1,0,0,0,16.577,12.822c-.367,1.32-.55,1.982-.912,3.307A28.984,28.984,0,0,1,361.81,560.2Z" transform="translate(-105.134 -238.552)" fill="#fff" stroke="#4f008c" stroke-linecap="round" stroke-linejoin="round" stroke-width="2"/><path d="M403.91,189.57a21.28,21.28,0,0,0,12.908-12.19l2.645,1.2a24.54,24.54,0,0,1-13.525,15.492Q404.924,191.817,403.91,189.57Z" transform="translate(-125.808 -51.909)" fill="#ff6a39" stroke="#4f008c" stroke-linecap="round" stroke-linejoin="round" stroke-width="1"/><path d="M795.33,489.413a22.4,22.4,0,0,0,13.627-12.873l2.8,1.269a26.028,26.028,0,0,1-14.269,16.358Z" transform="translate(-318.125 -198.996)" fill="#ff6a39" stroke="#4f008c" stroke-linecap="round" stroke-linejoin="round" stroke-width="1"/><path d="M704.8,186.6a21.242,21.242,0,0,0-17.556,2.645l-1.493-2.5a24.547,24.547,0,0,1,19.951-5Z" transform="translate(-264.232 -53.724)" fill="#4f008c"/><path d="M180.2,493.15a21.254,21.254,0,0,0,12.908-12.19l2.65,1.2a24.548,24.548,0,0,1-13.53,15.492Q181.219,495.4,180.2,493.15Z" transform="translate(-15.913 -201.168)" fill="#ff6a39" stroke="#4f008c" stroke-linecap="round" stroke-linejoin="round" stroke-width="1"/><path d="M577.427,182.39a21.238,21.238,0,0,0,13.092,12c-.4,1.091-.606,1.636-1.019,2.726a24.494,24.494,0,0,1-16.43-12.373Z" transform="translate(-208.889 -54.372)" fill="#fff" stroke="#4f008c" stroke-linecap="round" stroke-linejoin="round" stroke-width="2"/><path d="M241.5,115.512a21.228,21.228,0,0,0-17.1,4.775l-1.789-2.293a24.536,24.536,0,0,1,19.187-7.41Q241.664,113.046,241.5,115.512Z" transform="translate(-36.711 -19.007)" fill="#fff" stroke="#4f008c" stroke-linecap="round" stroke-linejoin="round" stroke-width="2"/><path d="M152.1,262.53a21.242,21.242,0,0,0,13.087,12l-1.019,2.726a24.527,24.527,0,0,1-16.414-12.373Q149.916,263.712,152.1,262.53Z" transform="translate(0 -93.773)" fill="#fff" stroke="#4f008c" stroke-linecap="round" stroke-linejoin="round" stroke-width="2"/><path d="M301.467,446.06a25.063,25.063,0,0,0,13.693,15.864l-1.554,3.058a29.031,29.031,0,0,1-17.556-16.771Z" transform="translate(-72.835 -184.012)" fill="#fff" stroke="#4f008c" stroke-linecap="round" stroke-linejoin="round" stroke-width="2"/><path d="M508.38,278.074a21.221,21.221,0,0,0,16.684-6.054l1.957,2.156a24.539,24.539,0,0,1-18.57,8.837Q508.416,280.546,508.38,278.074Z" transform="translate(-177.118 -98.436)" fill="#ff6a39" stroke="#4f008c" stroke-linecap="round" stroke-linejoin="round" stroke-width="1"/><path d="M898.238,438.533a24.531,24.531,0,0,1,16.45-7.884c0-1.07-.036-1.605-.056-2.67a28.35,28.35,0,0,0-19.763,7.486Z" transform="translate(-366.939 -175.11)" fill="#ff6a39" stroke="#4f008c" stroke-linecap="round" stroke-linejoin="round" stroke-width="1"/><path d="M603.4,84.158a21.256,21.256,0,0,0-15-9.494c.2-1.147.3-1.717.51-2.864a24.5,24.5,0,0,1,18.346,9.28Z" transform="translate(-216.419 0)" fill="#4f008c"/><path d="M891.363,176.733a21.2,21.2,0,0,0-15-9.489l.51-2.864a24.52,24.52,0,0,1,18.346,9.28Z" transform="translate(-357.861 -45.401)" fill="#4f008c"/><path d="M693.9,505.468a22.432,22.432,0,0,0,18.672-1.728L714,506.461a25.953,25.953,0,0,1-21.337,4.077Q693.287,508,693.9,505.468Z" transform="translate(-267.627 -212.353)" fill="#4f008c"/><path d="M161.557,388.426a21.279,21.279,0,0,0,17.678-1.636c.54,1.019.81,1.529,1.345,2.574a24.546,24.546,0,0,1-20.2,3.858Z" transform="translate(-6.194 -154.857)" fill="#4f008c"/><path d="M911.4,274.905a21.284,21.284,0,0,0,3.058,17.49L912,293.924a24.531,24.531,0,0,1-5.478-19.824Z" transform="translate(-372.508 -99.465)" fill="#fff" stroke="#4f008c" stroke-linecap="round" stroke-linejoin="round" stroke-width="2"/><path d="M744.857,86.876a21.242,21.242,0,0,0-5.346,16.924l-2.9.245A24.5,24.5,0,0,1,740.9,83.93Z" transform="translate(-288.909 -5.948)" fill="#ff6a39" stroke="#4f008c" stroke-linecap="round" stroke-linejoin="round" stroke-width="1"/><path d="M298.112,272c5.325,3.781,10.33,5.713,15.426,6.018l1.08,2.181c-5.545.24-11.38-1.631-17.7-5.606Z" transform="translate(-73.262 -98.424)" fill="#fff" stroke="#4f008c" stroke-linecap="round" stroke-linejoin="round" stroke-width="2"/><path d="M209.906,198.81c1.942,3.567,5.733,6.013,11.6,7.644l-1.315,1.473c-7.078-1.463-11.95-4.133-14.875-8.072Z" transform="translate(-28.232 -62.442)" fill="#ff6a39" stroke="#4f008c" stroke-linecap="round" stroke-linejoin="round" stroke-width="1"/><path d="M808.982,376.027a21.225,21.225,0,0,0-15.991,7.71L790.83,381.8a24.549,24.549,0,0,1,17.581-10.676C808.6,372.756,808.794,374.392,808.982,376.027Z" transform="translate(-315.918 -147.159)" fill="#fff" stroke="#4f008c" stroke-linecap="round" stroke-linejoin="round" stroke-width="2"/><line x1="128.772" transform="translate(293.316 174.421)" fill="#fff" stroke="#4f008c" stroke-miterlimit="10" stroke-width="2"/><line x1="15.997" transform="translate(349.71 327.607)" fill="none" stroke="#4f008c" stroke-miterlimit="10" stroke-width="2"/><path d="M527.809,508.643a20.287,20.287,0,0,0-3.893,10.763,20.827,20.827,0,0,0,4.933,14.35,18.391,18.391,0,0,1-4.484-3.384c-7.98-8.25-5.244-21.4-4.785-23.472Z" transform="translate(-182.208 -213.939)" fill="#4f008c" stroke="#4f008c" stroke-miterlimit="10" stroke-width="2"/><line y2="19.655" transform="translate(423.772 252.567)" fill="#ff6a39" stroke="#4f008c" stroke-miterlimit="10" stroke-width="2"/><line y2="20.078" transform="translate(290.573 253.12)" fill="none" stroke="#4f008c" stroke-miterlimit="10" stroke-width="2"/><line x2="79.05" transform="translate(318.127 368.05)" fill="none" stroke="#4f008c" stroke-miterlimit="10" stroke-width="2"/><line y2="11.196" transform="translate(401.737 408.604)" fill="none" stroke="#4f008c" stroke-miterlimit="10" stroke-width="2"/><line y2="11.196" transform="translate(314.705 408.604)" fill="none" stroke="#4f008c" stroke-miterlimit="10" stroke-width="2"/><line y2="11.196" transform="translate(356.994 408.604)" fill="none" stroke="#4f008c" stroke-miterlimit="10" stroke-width="2"/></g></svg>