<svg xmlns="http://www.w3.org/2000/svg" width="400" height="364.018" viewBox="0 0 400 364.018"><g transform="translate(-142.81 -53.696)"><rect width="95.071" height="77.149" transform="translate(313.675 338.464)" fill="#ff6a39" stroke="#4f008c" stroke-miterlimit="10" stroke-width="2.16"/><path d="M753.478,93.143s6.545-13.82,8.159-15.355c1.831-1.718.987,2.961-.464,7.991.938,1.974,2.754,2.961,3.485,5.02s-2.226,5.029-3.292,5.484c-4.338,1.836-5.429,5.923-8.05,7.023s-3.835-2.379-3.835-2.379Z" transform="translate(-307.653 -11.502)" fill="#fff" stroke="#4f008c" stroke-miterlimit="10" stroke-width="2"/><path d="M647.017,170.767l52.022-55.107,6.722,2.517-55.5,73.379a26.431,26.431,0,0,1-3.248-20.789Z" transform="translate(-255.306 -30.865)" fill="#fff" stroke="#4f008c" stroke-miterlimit="10" stroke-width="1.85"/><path d="M454.062,83.543s-6.54-13.82-8.154-15.355c-1.831-1.718-.987,2.961.464,7.991-.943,1.974-2.759,2.961-3.49,5.02s2.226,5.029,3.3,5.484c4.339,1.836,5.429,5.923,8.05,7.023s3.835-2.379,3.835-2.379Z" transform="translate(-152.114 -6.641)" fill="#fff" stroke="#4f008c" stroke-miterlimit="10" stroke-width="2"/><path d="M512.074,156.167q-26.011-27.556-52.027-55.107l-6.717,2.517q27.748,36.687,55.492,73.379a26.46,26.46,0,0,0,3.253-20.789Z" transform="translate(-157.498 -23.471)" fill="#fff" stroke="#4f008c" stroke-miterlimit="10" stroke-width="1.85"/><path d="M547.322,360.26l40.966.844,6.318,128.021c-1.866,1.13-7.734,1.165-7.734,1.165L571.077,368.646l-5.849-3.4Q548.447,428,531.666,490.774a22.119,22.119,0,0,1-4.348-.775c-1.723-.494-3.267-1.076-3.267-1.076q4.635-26.159,9.348-52.318Q540.278,398.437,547.322,360.26Z" transform="translate(-193.377 -155.369)" fill="#fff" stroke="#4f008c" stroke-miterlimit="10" stroke-width="1.93"/><path d="M601.333,169.55l-6.7,34.629,19.506-4.9V174.165Z" transform="translate(-229.129 -58.325)" fill="#fff" stroke="#4f008c" stroke-miterlimit="10" stroke-width="2"/><path d="M626.5,154.912a2.65,2.65,0,0,1-2.468,1.723,19.6,19.6,0,0,1-3.948,5.6c-3.949,5.163-13.129,3.381-12.487-6.145s10.281-21.075,15.138-13.154A14.343,14.343,0,0,1,625.2,152.7C626.229,152.582,627.493,152.795,626.5,154.912Z" transform="translate(-235.689 -43.341)" fill="#fff" stroke="#4f008c" stroke-miterlimit="10" stroke-width="2"/><path d="M629.529,145.51a8,8,0,0,0-1.185-4.269c-3.5-5.429-14.22-5.1-15.236-2.606a1.974,1.974,0,0,0,.321,1.693c-1.535.188-2.31,3.169-.316,4.63.035-.237,2.117-3.386,4.936-3.09s5.952.839,7.162,3.045c1.426,2.6-.153,5.888,1.417,6.722a1.436,1.436,0,0,0,.923.109C628.833,151.428,629.613,148.96,629.529,145.51Z" transform="translate(-237.894 -41.624)" fill="#4f008c"/><path d="M606.158,170.03a1.3,1.3,0,0,1,.987-.074c.232.079.494.163.642.2a1.273,1.273,0,0,1,.854.75c.987,2.4,3.208,5.35,7.4,1.338,2.029-2.093,2.67-1.648,2.67-1.648s-1.8,15.266-13.588,15.666c-7.236.242-12.413-10.735-2.4-18.533C602.639,170.928,604.534,170.825,606.158,170.03Z" transform="translate(-230.415 -57.393)" fill="#4f008c"/><path d="M557.334,347.31l41.01-12.62q3.889,41.3,7.754,82.579L582.486,418.7l-1.407-48.429-1.772.267q-3.949,23.691-7.9,47.343l-27.59-2.715Q550.587,381.238,557.334,347.31Z" transform="translate(-203.397 -142.271)" fill="#fff" stroke="#4f008c" stroke-miterlimit="10" stroke-width="2"/><path d="M565.366,208.482l15-1.032a9.462,9.462,0,0,0,16.15,2.917l9.649,3.371a77.8,77.8,0,0,1,1.678,24.772c-.587,5.957-1.974,12.231-1.589,22.211a89.6,89.6,0,0,0,.785,8.993A130.074,130.074,0,0,1,560.09,283.5l2.029-54.021" transform="translate(-211.637 -77.606)" fill="#fff" stroke="#4f008c" stroke-miterlimit="10" stroke-width="2"/><rect width="27.605" height="8.47" transform="translate(362.965 143.581)" fill="#ff6a39" stroke="#4f008c" stroke-miterlimit="10" stroke-width="2"/><line x1="13.588" y2="69.341" transform="translate(344.025 204.397)" fill="none" stroke="#4f008c" stroke-miterlimit="10" stroke-width="2"/><line x2="7.749" y2="81.725" transform="translate(391.259 193.451)" fill="none" stroke="#4f008c" stroke-miterlimit="10" stroke-width="2"/><path d="M520.895,604.42l2.374,4.343-7.759-.138Z" transform="translate(-188.998 -279.126)" fill="#4f008c" stroke="#4f008c" stroke-miterlimit="10" stroke-width="2"/><path d="M519.924,616.111s1.826-4.358-.908-7.073a1.16,1.16,0,0,0-1.584-.04l-.75.656a4.992,4.992,0,0,1-4.99.36l-1.022-.543a5.35,5.35,0,0,0-5.464.271l-7.231,4.812-2.468.928a7.576,7.576,0,0,0-1.866,1.831,8.134,8.134,0,0,0-1.421,3.5l26.909-1.032h0a2.3,2.3,0,0,0,1.308-1.481A2.512,2.512,0,0,0,519.924,616.111Z" transform="translate(-177.2 -281.318)" fill="#eef0f1" stroke="#4f008c" stroke-miterlimit="10" stroke-width="2"/><line x1="4.487" y2="0.262" transform="translate(338.221 334.798)" fill="#eef0f1" stroke="#4f008c" stroke-miterlimit="10" stroke-width="2"/><line x2="2.177" y2="3.238" transform="translate(327.595 328.702)" fill="#eef0f1" stroke="#4f008c" stroke-miterlimit="10" stroke-width="2"/><line x2="1.959" y2="2.942" transform="translate(325.298 330.175)" fill="#eef0f1" stroke="#4f008c" stroke-miterlimit="10" stroke-width="2"/><line x2="1.747" y2="2.646" transform="translate(323.001 331.647)" fill="#eef0f1" stroke="#4f008c" stroke-miterlimit="10" stroke-width="2"/><line x2="1.525" y2="2.349" transform="translate(320.71 333.12)" fill="#eef0f1" stroke="#4f008c" stroke-miterlimit="10" stroke-width="2"/><path d="M657.943,620.124l.089-4.26a9.936,9.936,0,0,0-2.4-5.533,9.255,9.255,0,0,0-2.172-1.782l-7.9.528-4.3,5.864c.069,1.747.143,3.495.212,5.242Z" transform="translate(-252.774 -281.238)" fill="#eef0f1" stroke="#4f008c" stroke-miterlimit="10" stroke-width="2"/><path d="M650.529,622.82H643.19" transform="translate(-253.745 -288.46)" fill="#eef0f1" stroke="#4f008c" stroke-miterlimit="10" stroke-width="2"/><path d="M655.507,611.667l-3.3-2.537,5.513-.37Z" transform="translate(-258.317 -281.327)" fill="#4f008c" stroke="#4f008c" stroke-miterlimit="10" stroke-width="2"/><line x1="9.694" y1="1.382" transform="translate(335.728 306.162)" fill="none" stroke="#4f008c" stroke-miterlimit="10" stroke-width="2"/><line x1="9.708" y2="0.8" transform="translate(390.72 308.388)" fill="none" stroke="#4f008c" stroke-miterlimit="10" stroke-width="2"/><path d="M608.3,339.69l-38.335,11.589-.9,4.541Z" transform="translate(-216.178 -144.716)" fill="#4f008c" stroke="#4f008c" stroke-miterlimit="10" stroke-width="2"/><path d="M614.094,212.367q-4.783,15.345-9.56,30.7l-6.589-33.617-3.144.212,9.254,45.383L616.1,213.093Z" transform="translate(-229.217 -78.598)" fill="#4f008c" stroke="#4f008c" stroke-miterlimit="10" stroke-width="2"/><circle cx="6.392" cy="6.392" r="6.392" transform="translate(368.902 170.151)" fill="#ff6a39" stroke="#4f008c" stroke-miterlimit="10" stroke-width="2"/><path d="M585.692,668.45v40.769H578.9V675.464l-8.391,3.149v-6.357l9.4-3.805Z" transform="translate(-216.894 -311.793)" fill="#fff"/><text transform="translate(245.64 403.777)" fill="#fff" font-size="26" font-family="STCForward-Medium, STC Forward" font-weight="500"><tspan x="0" y="0">2</tspan></text><text transform="translate(456.954 411.714)" fill="#fff" font-size="26" font-family="STCForward-Medium, STC Forward" font-weight="500"><tspan x="0" y="0">3</tspan></text><line x2="400" transform="translate(142.81 415.831)" fill="none" stroke="#4f008c" stroke-miterlimit="10" stroke-width="2"/><path d="M784.513,82.84c6.184-2.863,10.325-8.391,10.543-14.407.183-5.138-2.414-12.833-8.129-13.647-5.35-.78-9.644,5-9.842,5.266-.1.267-.987,2.759.188,4.259a5.756,5.756,0,0,0,1.066.987,5.617,5.617,0,0,0,1.806.829c.267-3.736,2.72-6.362,5.034-6.416,2.887-.074,4.689,3.875,5.163,6.165,1.046,5.054-2.892,9.072-3.336,9.511l-5.029,3.322a2.5,2.5,0,0,0-.7,3.109,2.537,2.537,0,0,0,1.974,1.12Z" transform="translate(-321.445)" fill="#fff" stroke="#4f008c" stroke-miterlimit="10" stroke-width="2"/><path d="M724.833,107.4c-6.456,2.186-13.262,1.032-17.561-3.188-3.662-3.618-7.078-10.952-3.509-15.463,3.346-4.25,10.439-3.021,10.77-2.961.252.128,2.6,1.333,2.794,3.218a5.567,5.567,0,0,1-.844,3.287c-2.764-2.527-6.352-2.744-8.07-1.194-2.152,1.935-.74,6.036.494,8.025,2.72,4.383,8.346,4.585,8.968,4.6l5.923-1.051a2.5,2.5,0,0,1,2.646,1.772,2.547,2.547,0,0,1-.661,2.172Z" transform="translate(-283.714 -15.629)" fill="#fff" stroke="#4f008c" stroke-linecap="round" stroke-linejoin="round" stroke-width="2"/><path d="M784.946,150.021c-1.481-2.6-5.034-2.641-5.034-2.641l-2.33-.36-1.426,1.88s-2.586,2.468-1.851,5.37c.41,1.594,3.411.721,6.017-.385C782.972,152.889,785.746,151.452,784.946,150.021Z" transform="translate(-320.171 -46.747)" fill="#fff" stroke="#4f008c" stroke-linecap="round" stroke-linejoin="round" stroke-width="2"/><path d="M780.975,152l-10.622,4.255L766.8,164.62l22.5-8.983Z" transform="translate(-316.445 -49.269)" fill="#fff" stroke="#4f008c" stroke-linecap="round" stroke-linejoin="round" stroke-width="2"/><path d="M776.448,139.106l-.3.118-1.742.691,1.851,4.63,1.737-.7.3-.118,1.742-.7-1.846-4.625Z" transform="translate(-320.285 -42.387)" fill="#fff" stroke="#4f008c" stroke-linecap="round" stroke-linejoin="round" stroke-width="2"/><path d="M768.076,133.992a4.7,4.7,0,0,0,2.384-.049h0l2.591-1.032a2.338,2.338,0,0,0,.494-.36,5.675,5.675,0,0,0,1.12-1.747,5.85,5.85,0,0,0-.459-4.975,9.6,9.6,0,0,0-.543-.908L765,128.375a3.712,3.712,0,0,1-1.032.257c.158.726.494,1.9.538,2A5.345,5.345,0,0,0,768.076,133.992Z" transform="translate(-314.997 -35.555)" fill="#fff" stroke="#4f008c" stroke-linecap="round" stroke-linejoin="round" stroke-width="2"/><path d="M734.5,61.99,719.77,67.568l8.746,19.358s5.143,9.827,15.172,6.387l5.725-2.29c9.644-4.408,6.6-15.078,6.6-15.078L749.034,55.89Z" transform="translate(-292.61 -0.596)" fill="#fff" stroke="#4f008c" stroke-linecap="round" stroke-linejoin="round" stroke-width="2"/><path d="M733.786,61.131l-.193.079-15.1,6.026,2.014,5.044,15.1-6.026.192-.079,15.1-6.026L748.889,55.1Z" transform="translate(-291.956 -0.196)" fill="#fff" stroke="#4f008c" stroke-linecap="round" stroke-linejoin="round" stroke-width="2"/><path d="M727.96,86.36h0l-3.42,1.367,6.416,14.629c.385.74,3.149,5.834,8.884,6.91a12.166,12.166,0,0,0,6.263-.523,17.93,17.93,0,0,1-8.711-3.564C734.846,103.156,733.459,101.833,727.96,86.36Z" transform="translate(-295.012 -16.027)" fill="#4f008c" stroke="#4f008c" stroke-linecap="round" stroke-linejoin="round" stroke-width="2"/><path d="M778.342,164.212l-.2.079-11.15,4.452,3.129,7.828,11.145-4.447.207-.084,11.145-4.447-3.124-7.833Z" transform="translate(-316.545 -53.199)" fill="#fff" stroke="#4f008c" stroke-linecap="round" stroke-linejoin="round" stroke-width="2"/><path d="M787.184,172.649l-.2.079-6.017,2.4.573,1.431,6.017-2.4.193-.079,6.017-2.4-.573-1.426Z" transform="translate(-323.619 -58.511)" fill="#ff6a39" stroke="#4f008c" stroke-linecap="round" stroke-linejoin="round" stroke-width="2"/><path d="M783.572,179.028l-.2.079L771.43,183.87l1.056,2.646,11.944-4.768.193-.079,11.944-4.768-1.056-2.641Z" transform="translate(-318.796 -60.542)" fill="#fff" stroke="#4f008c" stroke-linecap="round" stroke-linejoin="round" stroke-width="2"/><text transform="translate(446.444 80.386) rotate(-21.76)" fill="#ff6a39" stroke="#4f008c" stroke-linecap="round" stroke-linejoin="round" stroke-width="2" font-size="13" font-family="STCForward-Bold, STC Forward" font-weight="700"><tspan x="0" y="0">1</tspan></text><line x1="30.404" y2="12.137" transform="translate(427.616 57.426)" fill="#fff" stroke="#4f008c" stroke-miterlimit="10" stroke-width="2"/><line x2="1.056" y2="2.646" transform="translate(468.963 107.647)" fill="none" stroke="#4f008c" stroke-miterlimit="10" stroke-width="2"/><line x2="1.051" y2="2.646" transform="translate(453.445 113.886)" fill="none" stroke="#4f008c" stroke-miterlimit="10" stroke-width="2"/><line x2="1.056" y2="2.641" transform="translate(460.961 110.885)" fill="none" stroke="#4f008c" stroke-miterlimit="10" stroke-width="2"/><rect width="77.149" height="45.176" transform="translate(236.768 370.512)" fill="#4f008c" stroke="#4f008c" stroke-miterlimit="10" stroke-width="1.49"/><rect width="77.149" height="22.586" transform="translate(408.486 393.512)" fill="#4f008c" stroke="#4f008c" stroke-miterlimit="10" stroke-width="1.05"/><path d="M411.423,738.008v3.949H394.74V738.4l9.778-10.755c1.658-1.8,2.108-3.04,2.108-4.353a3.426,3.426,0,0,0-3.731-3.662,3.694,3.694,0,0,0-3.87,3.87v.449H394.74V723.5c0-4.353,3.075-7.9,8.326-7.9s8.045,3.485,8.045,7.6c0,2.522-.9,4.442-3.49,7.325l-6.767,7.487Z" transform="translate(-127.759 -335.671)" fill="#fff"/><path d="M760.2,761.225a4.949,4.949,0,0,1-9.871.02,2.542,2.542,0,0,1,.059-.558h2.369c0,.193-.039.306-.039.424a2.552,2.552,0,1,0,2.576-2.468h-1.081v-2.019h1.076a1.861,1.861,0,1,0-1.974-1.846.9.9,0,0,0,0,.227h-2.231a1.478,1.478,0,0,1-.039-.385,4.21,4.21,0,0,1,8.376.02,3.534,3.534,0,0,1-1.446,2.868,4.279,4.279,0,0,1,2.226,3.717Z" transform="translate(-308.078 -353.523)" fill="#fff"/></g></svg>