<svg xmlns="http://www.w3.org/2000/svg" width="400" height="267.14" viewBox="0 0 400 267.14"><g transform="translate(-126.63 -197.639)"><path d="M461.319,541.69l-3.239,8.422,4.216,7.258a11.932,11.932,0,0,0,2.554-7.189,12.169,12.169,0,0,0-3.53-8.491Z" transform="translate(-168.074 -174.338)" fill="#4f008c"/><path d="M522.82,337.283c1.292.493,5.5,1.933,8.954-.143a7.181,7.181,0,0,0,1.154-.858,6.977,6.977,0,0,1-4.122-2.2c-1.134-1.321-1.869-3.328-1.321-3.8.464-.4,1.573.528,3.53,1.321a15.823,15.823,0,0,0,5.872,1.154c4.507.444,7.943,3.274,8.535,6.686a7.446,7.446,0,0,1-1.021,4.931,41.808,41.808,0,0,1-21.513-.6,3.654,3.654,0,0,1-2.559-4.176A3.451,3.451,0,0,1,522.82,337.283Z" transform="translate(-199.599 -66.818)" fill="#fff" stroke="#4f008c" stroke-miterlimit="10" stroke-width="2"/><path d="M651.6,276.428,614.912,303.2,565.762,305.6a9.043,9.043,0,0,0-.7,5.591,9.22,9.22,0,0,0,3.831,5.67l49.174,2.308,47.335-20.921c5.7-3.826,7.687-11.065,5.079-16.562C667.439,275.265,658.667,272.356,651.6,276.428Z" transform="translate(-222.265 -38.428)" fill="#fff" stroke="#4f008c" stroke-miterlimit="10" stroke-width="2"/><path d="M469.092,369.846a6.047,6.047,0,0,1-1.282-.133c-3.535-.745-6.73-5.084-8.21-11.1,1.026-.493,2.066-.986,3.106-1.42.828-.35,1.672-.685,2.52-.986l.468-.173-2.308-5.966a7.951,7.951,0,0,0,2.465.409,6.819,6.819,0,0,0,3.259-.809,7.174,7.174,0,0,0,3.2-3.58l3.57,7.051,7.889-1.223c-.2.957-.518,2.4-.947,4.117a23.47,23.47,0,0,1-6.163,10.266C474.264,368.549,471.5,369.846,469.092,369.846Z" transform="translate(-168.848 -74.911)" fill="#eef0f1"/><path d="M471.733,345.837l2.958,5.858.325.636.705-.108,3.989-.616,2.845-.444c-.2.9-.459,2.056-.784,3.373-2.722,8.757-8.875,13.481-13.313,13.481a5.807,5.807,0,0,1-1.183-.123c-3.274-.69-6.262-4.719-7.731-10.355.9-.434,1.81-.848,2.722-1.233.823-.35,1.662-.68,2.495-.986l.942-.345-.365-.937-.986-2.608-.769-1.972a8.264,8.264,0,0,0,1.676.173,7.3,7.3,0,0,0,3.491-.868,7.52,7.52,0,0,0,2.958-2.914m-.1-2.377a6.9,6.9,0,0,1-3.343,4.438,6.347,6.347,0,0,1-3.027.749,7.633,7.633,0,0,1-3.363-.8l2.544,6.568q-1.238.454-2.539.986c-1.238.523-2.4,1.065-3.481,1.607,1.341,5.813,4.526,10.971,8.673,11.834a6.708,6.708,0,0,0,1.386.143c4.98,0,11.424-5.108,14.24-14.2.493-2,.868-3.7,1.095-4.832l-8.239,1.282-3.945-7.791Z" transform="translate(-168.239 -73.57)" fill="#4f008c"/><path d="M420.91,489.531l2.332-94.67c.986-8.811,6.9-14.477,12.041-14.841h.562c3.013,0,6.346,1.7,8.915,4.546a19.2,19.2,0,0,1,4.6,14.846l-23.209,94.206Z" transform="translate(-149.229 -92.319)" fill="#eef0f1"/><path d="M435.323,379.986c2.875,0,6.075,1.637,8.55,4.383A18.722,18.722,0,0,1,448.35,398.8l-11.5,46.664-11.523,46.778-1.849-1.45-2.589-2.017,1.326-53.745.986-40.639a19.146,19.146,0,0,1,4.255-10.177,11.148,11.148,0,0,1,7.332-4.226h.528m0-.986h-.6c-5.66.4-11.543,6.681-12.5,15.325l-2.337,94.916,6.03,4.714,23.4-95c1.2-11.651-7.056-19.96-13.988-19.96Z" transform="translate(-148.707 -91.803)" fill="#4f008c"/><path d="M406.443,606.534A11.276,11.276,0,0,1,405,606.47a4.973,4.973,0,0,1-4.931-5.291c.049-1.726,3.023-9.368,4.211-12.278a4.077,4.077,0,0,1,2.958-1.3,4.368,4.368,0,0,1,3.452,1.824c1.366,1.795,1.642,4.472.784,7.544-.217.784-.463,1.538-.705,2.273a13.716,13.716,0,0,0-1.021,4.931,2.145,2.145,0,0,1-1.908,2.293,12.122,12.122,0,0,1-1.4.069Z" transform="translate(-138.657 -197.684)" fill="#eef0f1"/><path d="M406.7,587.606a3.9,3.9,0,0,1,3.072,1.627c1.267,1.672,1.514,4.2.7,7.115-.217.774-.464,1.524-.7,2.253a13.9,13.9,0,0,0-1.045,5.113,1.652,1.652,0,0,1-1.479,1.765,11.137,11.137,0,0,1-1.312.054,10.608,10.608,0,0,1-1.4-.064,4.514,4.514,0,0,1-4.487-4.783c.039-1.479,2.529-8.067,4.142-12.016a3.56,3.56,0,0,1,2.52-1.085m0-.986a4.556,4.556,0,0,0-3.363,1.524s-4.226,10.32-4.28,12.534a5.462,5.462,0,0,0,5.384,5.794c.542.044,1.035.069,1.479.069a12.308,12.308,0,0,0,1.44-.079,2.643,2.643,0,0,0,2.342-2.82c-.148-1.879.947-4.28,1.711-7.026,1.785-6.37-1.479-9.995-4.719-9.995Z" transform="translate(-138.15 -197.178)" fill="#4f008c"/><path d="M743.173,680q.873,9.368,1.75,18.7a6.41,6.41,0,0,1-4.709,4.61c-4.522,1.09-12.2,2.88-17.553,3.831-.084,0-.3.064-.375-.039-.587-.789,10.4-6.671,11.977-15.044.454-2.406.232-5.577-1.943-9.605Z" transform="translate(-302.043 -244.686)" fill="#fff" stroke="#4f008c" stroke-miterlimit="10" stroke-width="2"/><path d="M740.137,705.33l2.746,4.8-9.023-.133Z" transform="translate(-307.92 -257.526)" fill="#4f008c" stroke="#4f008c" stroke-miterlimit="10" stroke-width="2"/><path d="M738.932,718.2s2.135-4.827-1.031-7.82a1.42,1.42,0,0,0-1.849-.039l-.873.73a6.068,6.068,0,0,1-5.808.414l-1.183-.592a6.494,6.494,0,0,0-6.356.316l-8.427,5.35-2.86,1.03a8.747,8.747,0,0,0-3.836,5.917l31.3-1.233h0a2.609,2.609,0,0,0,1.524-1.667,2.672,2.672,0,0,0-.6-2.406Z" transform="translate(-294.158 -259.901)" fill="#eef0f1" stroke="#4f008c" stroke-miterlimit="10" stroke-width="2"/><line x1="5.227" y2="0.306" transform="translate(439.546 458.296)" fill="#eef0f1" stroke="#4f008c" stroke-miterlimit="10" stroke-width="2"/><line x2="2.52" y2="3.57" transform="translate(427.199 451.595)" fill="#eef0f1" stroke="#4f008c" stroke-miterlimit="10" stroke-width="2"/><line x2="2.268" y2="3.249" transform="translate(424.522 453.233)" fill="#eef0f1" stroke="#4f008c" stroke-miterlimit="10" stroke-width="2"/><line x2="2.022" y2="2.919" transform="translate(421.841 454.874)" fill="#eef0f1" stroke="#4f008c" stroke-miterlimit="10" stroke-width="2"/><line x2="1.77" y2="2.594" transform="translate(419.164 456.511)" fill="#eef0f1" stroke="#4f008c" stroke-miterlimit="10" stroke-width="2"/><path d="M855.318,676.72q.883,9.368,1.755,18.707a6.434,6.434,0,0,1-4.714,4.605c-4.521,1.09-12.2,2.884-17.553,3.836-.084,0-.3.059-.37-.039-.592-.794,10.4-6.671,11.972-15.044.454-2.406.232-5.577-1.938-9.605Z" transform="translate(-358.923 -243.023)" fill="#fff" stroke="#4f008c" stroke-miterlimit="10" stroke-width="2"/><path d="M725.2,481.852a83.989,83.989,0,0,1,5.636-40.033c11.124-27.543,17.573-43.454,18.283-45.1l35.289-19.013,1.479,10.734a23.3,23.3,0,0,1-3.279,15.487l-39.49,63.542,5.172,64.819-17.351,4.625Z" transform="translate(-303.334 -91.447)" fill="#eef0f1"/><path d="M783.538,377.693l1.031,7.4.37,2.643a22.79,22.79,0,0,1-3.21,15.157l-18.845,30.319-20.591,33.1-.173.276v.325l2.618,32.434,2.534,31.778-14.329,3.826-2.066.552-5.69-54.494a83.417,83.417,0,0,1,5.591-39.791c14.136-35.008,17.573-43.42,18.214-44.934l17.534-9.447,17.011-9.142m.784-1.543-36.063,19.427c-.256.463-10.734,26.379-18.362,45.269a84.154,84.154,0,0,0-5.69,40.254l5.808,55.643,18.3-4.881q-2.6-32.543-5.187-65.086L782.552,403.4a23.741,23.741,0,0,0,3.348-15.813q-.8-5.715-1.593-11.434Z" transform="translate(-302.828 -90.656)" fill="#4f008c"/><path d="M811.823,481.3a84,84,0,0,1-4.931-40.111c3.59-29.491,5.69-46.531,5.946-48.321l29.145-27.518,4.231,9.975a23.283,23.283,0,0,1,.853,15.828l-21.656,71.619,21.759,61.092-16.705,3Z" transform="translate(-344.663 -85.181)" fill="#eef0f1"/><path d="M841.266,365.361l2.2,5.2,1.75,4.132a22.8,22.8,0,0,1,.838,15.468L833.841,430.59l-9.368,31.064-.118.3.108.306,11.232,31.5,10.285,28.869-7.692,1.381-8.017,1.445-9.531-23.3-8.954-21.873a83.506,83.506,0,0,1-4.931-39.885c3.5-28.736,5.582-45.663,5.917-48.119l14.092-13.313,14.4-13.6m.355-1.691L811.84,391.775c-.128.493-3.516,28.263-5.976,48.484a84.113,84.113,0,0,0,4.98,40.358l18.791,45.93,17.672-3.175q-10.951-30.738-21.9-61.486L847,390.459a23.771,23.771,0,0,0-.868-16.143l-4.521-10.645Z" transform="translate(-344.137 -84.329)" fill="#4f008c"/><path d="M699.646,214.75a26.918,26.918,0,0,0,3.452,13.643c1.676,2.929,4.571,7.973,8.525,7.983,5,0,10.31-8.047,8.875-13.781C719.049,216.762,710.223,212.082,699.646,214.75Z" transform="translate(-290.571 -7.724)" fill="#fff" stroke="#4f008c" stroke-miterlimit="10" stroke-width="2"/><path d="M751.093,238.835,739.126,228.48l-7.4,8.012q4.009,5.557,8.022,11.084a8.816,8.816,0,0,0,9.008-2.046A8.925,8.925,0,0,0,751.093,238.835Z" transform="translate(-306.842 -15.074)" fill="#fff" stroke="#4f008c" stroke-miterlimit="10" stroke-width="2"/><path d="M721.671,213.4a13.99,13.99,0,0,0-.858-6.568c-.365-.932-2.426-6.178-7.692-7.692-4.3-1.233-9.181.463-12.391,4.275-1.834.459-3.215,1.662-3.417,3.077a4.2,4.2,0,0,0,1.109,2.993c.789,1.05,1.356,1.169,2.909,2.308s4.709,3.772,5.853,4.117a11.858,11.858,0,0,0,1.366-.049h0l.675-.321a2.017,2.017,0,0,1-.143-1.686c.542-1.085,2.663-1.252,3.644-.355s.986,2.889-.444,4.354q.986,1.785,2.022,3.56l7.194-2.87Z" transform="translate(-289.378 0)" fill="#4f008c" stroke="#4f008c" stroke-miterlimit="10" stroke-width="2"/><path d="M517.838,383.28c.493,12.776,24.654,11,34.707,2.751-8.215-14.21-11.622-29.224-28.7-30.107-.409,0-.838-.035-1.277-.044C520.91,361,517.444,373.059,517.838,383.28Z" transform="translate(-198.366 -79.901)" fill="#fff" stroke="#4f008c" stroke-miterlimit="10" stroke-width="2"/><path d="M508.283,400.955c-3.644-.025-6.04-1.9-9.664-4.733a73.967,73.967,0,0,0-7.889-5.572,66.265,66.265,0,0,0-19.609-7.815c9.891-.754,15.63-3.2,17.5-7.4a10.848,10.848,0,0,0,.754-3.368,26,26,0,0,1,.838-4.556,29.383,29.383,0,0,1,5.6-10.636c.537-.025,1.08-.039,1.617-.039a29.22,29.22,0,0,1,11.913,2.465c15.1,6.686,18.564,24.387,19.013,27.119-1.6,2.761-9.082,14.536-19.984,14.536Z" transform="translate(-174.695 -80.397)" fill="#eef0f1"/><path d="M493.334,356.826a28.777,28.777,0,0,1,11.715,2.411c14.58,6.454,18.145,23.386,18.7,26.6a39.838,39.838,0,0,1-5.882,7.574c-4.369,4.344-8.939,6.548-13.594,6.548h-.084c-3.452-.025-5.818-1.854-9.368-4.63a74.9,74.9,0,0,0-7.939-5.606,66.267,66.267,0,0,0-16.962-7.159c8.348-1.011,13.313-3.452,15.058-7.4a11.17,11.17,0,0,0,.789-3.516,25.324,25.324,0,0,1,.828-4.477,28.8,28.8,0,0,1,5.36-10.285c.459,0,.922-.03,1.376-.03m0-.986c-.661,0-1.282,0-1.864.054a30.078,30.078,0,0,0-5.823,10.981c-1.129,4.038-.636,5.759-1.568,7.855-1.445,3.254-6.075,6.878-21.044,7.327a66.708,66.708,0,0,1,23.342,8.52c8.875,5.34,11.765,10.355,17.8,10.379h.094c11.725,0,19.54-13.244,20.507-14.93-.3-1.923-3.5-20.684-19.328-27.691a29.812,29.812,0,0,0-12.115-2.495Z" transform="translate(-170.593 -79.905)" fill="#4f008c"/><path d="M505.034,429.013c-1.622,0-3.264-.035-4.886-.094a128.647,128.647,0,0,1-25.526-3.585L465.914,409.5l-.153-.069a42.465,42.465,0,0,1-20.818-19.866,41.561,41.561,0,0,1-4.107-19.442,26.867,26.867,0,0,1,8.407-5.6c.907,2.036,3.082,5.882,6.9,6.77a7.589,7.589,0,0,0,1.686.187c4.975,0,11.316-4.758,13.4-13.579a51.256,51.256,0,0,1,8.269-.9h1.425a51.894,51.894,0,0,1,5.8.33c-2.209,2.569-7.648,9.861-5.7,17.41,2.071,8.042,11.6,13.88,22.652,13.88a34.378,34.378,0,0,0,9.659-1.42c3.752,4.788,7.5,9.674,11.139,14.526,5.473,7.3,10.907,14.792,16.158,22.287A129.111,129.111,0,0,1,505.034,429.013Z" transform="translate(-159.334 -80.516)" fill="#4f008c"/><path d="M480.424,356.891c1.607,0,3.23.079,4.832.232a30.487,30.487,0,0,0-3.166,4.793c-2.332,4.4-3.023,8.56-2.046,12.327,2.125,8.259,11.834,14.25,23.13,14.25a34.833,34.833,0,0,0,9.477-1.346c3.678,4.7,7.352,9.492,10.926,14.255,5.335,7.115,10.631,14.412,15.749,21.7a128.373,128.373,0,0,1-34.791,4.827c-1.617,0-3.254-.034-4.867-.094a127.672,127.672,0,0,1-25.216-3.521l-4.093-7.44-4.438-8.062-.158-.291-.3-.133a41.97,41.97,0,0,1-20.576-19.634,40.969,40.969,0,0,1-4.063-19,26.534,26.534,0,0,1,7.672-5.172c1.045,2.189,3.274,5.734,7.036,6.607a7.947,7.947,0,0,0,1.795.2c5.108,0,11.587-4.778,13.806-13.648a50.453,50.453,0,0,1,7.889-.843h1.41m0-.986h-1.44a51.474,51.474,0,0,0-8.668.986c-1.9,8.565-8.007,13.51-12.987,13.51a6.928,6.928,0,0,1-1.573-.177c-4.191-.986-6.316-5.882-6.745-6.928a27.31,27.31,0,0,0-9.161,6.03,42,42,0,0,0,4.157,19.871,43.182,43.182,0,0,0,21.054,20.1l8.737,15.887a128.764,128.764,0,0,0,25.832,3.649q2.49.094,4.906.094a129.521,129.521,0,0,0,36.394-5.246q-7.889-11.272-16.562-22.864-5.685-7.579-11.341-14.792a33.964,33.964,0,0,1-9.861,1.479c-11.375,0-20.28-6.158-22.188-13.51-2.174-8.441,5.335-16.71,6.223-17.662a51.844,51.844,0,0,0-6.795-.449Z" transform="translate(-158.835 -79.947)" fill="#4f008c"/><path d="M595.952,549.027A24.609,24.609,0,0,1,574,542.745c.261-1.519,2.278-12.169,11.646-16.764,1.159-.567,8.6-4.063,12.657-.927C602.633,528.422,602.643,538.372,595.952,549.027Z" transform="translate(-226.86 -165.245)" fill="#fff" stroke="#4f008c" stroke-miterlimit="10" stroke-width="2"/><path d="M419.455,604.344l-14.067-73.315c-.306-4.645-.128-16.188,8.047-23.761,4.679-4.334,10.192-5.547,16.025-6.829a65.344,65.344,0,0,1,13.969-1.479,71.948,71.948,0,0,1,15.418,1.706l36.443,18.85L428.9,532.257l-.853,74.582Z" transform="translate(-141.327 -152.911)" fill="#eef0f1"/><path d="M442.9,497.915v.986a71.63,71.63,0,0,1,15.251,1.676l18.909,9.788,16.207,8.382-31.419,6.035-33.174,6.375-.794.148v.809l-.242,21.02-.6,52.512-3.427-.986-4.24-1.233-7.041-36.675-6.977-36.31c-.3-4.59-.108-15.921,7.889-23.337,4.581-4.24,9.778-5.384,15.778-6.706a64.7,64.7,0,0,1,13.865-1.479v-.986m0,0a65.085,65.085,0,0,0-14.062,1.489c-6.3,1.381-11.577,2.608-16.271,6.947-8.944,8.284-8.407,21.148-8.2,24.16L418.5,604.167l9.492,2.761q.419-37.419.853-74.829l67.393-12.948-37.764-19.531a72.146,72.146,0,0,0-15.586-1.731Z" transform="translate(-140.802 -152.369)" fill="#4f008c"/><path d="M454.08,494.993a38.2,38.2,0,0,1,7.061,13.574,38.815,38.815,0,0,1-.256,21.7s11.863-.311,24.373-1.445c16.991-1.538,25.482-2.357,28.228-6.375,4.388-6.41-1.933-20-13.471-33.292Z" transform="translate(-166.054 -147.676)" fill="#fff" stroke="#4f008c" stroke-miterlimit="10" stroke-width="2"/><path d="M452.7,316.131c-4.364-3.3-5.946-8.382-4.28-11.834,1.45-3.027,4.96-4.023,5.606-4.206a10.707,10.707,0,0,1,8.279,1.228,8.165,8.165,0,0,1,7.815,6.7c1.164,4.438.03,9.714-1.538,9.93-.286.044-.764-.064-1.479-.986Z" transform="translate(-162.85 -51.334)" fill="#fff" stroke="#4f008c" stroke-miterlimit="10" stroke-width="2"/><path d="M461.793,335.542a5.675,5.675,0,0,1-2.6-.6c-2.091-1.07-2.756-3.235-3.945-7.164-1.386-4.5-2.382-7.756-.631-10.522A7.135,7.135,0,0,1,460.146,314h.34a7.779,7.779,0,0,1,5.734,2.914l.843,2.046.493-.291a2.11,2.11,0,0,1,1.09-.321,3.051,3.051,0,0,1,2.3,1.583,3.737,3.737,0,0,1-.409,3.856l-.094.138.237,4.043a9.368,9.368,0,0,1-4.152,6.193,10.114,10.114,0,0,1-4.738,1.381Z" transform="translate(-165.847 -58.595)" fill="#eef0f1"/><path d="M459.985,313.966a7.17,7.17,0,0,1,5.305,2.672l.33.8.271.656.434,1.05.986-.577a1.632,1.632,0,0,1,.858-.251c1.1,0,1.844,1.317,1.849,1.331a3.24,3.24,0,0,1-.38,3.333l-.192.281v.335l.222,3.811a8.826,8.826,0,0,1-3.9,5.789,9.546,9.546,0,0,1-4.482,1.331,5.2,5.2,0,0,1-2.377-.542c-1.9-.986-2.5-2.958-3.713-6.873-1.341-4.374-2.312-7.534-.685-10.108a6.637,6.637,0,0,1,5.153-3.037h.316m0-.986h-.365a7.628,7.628,0,0,0-5.917,3.5c-1.869,2.958-.823,6.361.577,10.926,1.238,4.033,1.933,6.3,4.206,7.46a6.169,6.169,0,0,0,2.825.651,10.527,10.527,0,0,0,4.995-1.479,9.909,9.909,0,0,0,4.388-6.583c-.079-1.312-.153-2.623-.232-3.945a4.186,4.186,0,0,0,.434-4.374,3.5,3.5,0,0,0-2.712-1.839h-.054a2.672,2.672,0,0,0-1.336.39l-.636-1.573a8.226,8.226,0,0,0-6.163-3.156Z" transform="translate(-165.345 -58.067)" fill="#4f008c"/><path d="M563.179,607.958A382.4,382.4,0,0,0,545.1,571.93c-2.993-5.266-5.685-9.7-8.057-13.619-7.47-12.327-11.582-19.107-10.631-27.972,1.031-9.664,7.756-18.9,19.989-27.469l16.661.557,21.7,17.844-29.091,14.3,16.148,70.613Z" transform="translate(-202.665 -154.894)" fill="#eef0f1"/><path d="M546.036,502.816l11,.385,5.33.182,11.089,9.151,9.862,8.106-13.343,6.568-14.718,7.238-.7.345.173.759,8.525,37.261,7.426,32.474-7.716,1.558a383.017,383.017,0,0,0-17.948-35.708c-3-5.271-5.69-9.714-8.067-13.633-7.652-12.623-11.493-18.964-10.562-27.661,1.016-9.482,7.623-18.569,19.649-27.025m-.3-.986c-16.444,11.469-19.688,21.9-20.334,27.918-1.267,11.834,6.129,19.723,18.737,41.887a379.905,379.905,0,0,1,18.219,36.344l9.492-1.918q-8.077-35.373-16.148-70.731l29.431-14.481L562.731,502.4l-16.991-.587Z" transform="translate(-202.153 -154.356)" fill="#4f008c"/><path d="M597.783,483.35c-5.8-5.868-15.285-7.529-24.077-4.329l-18.426,9.225a35.994,35.994,0,0,1,12.682,3.309,34.614,34.614,0,0,1,11.311,8.382c8.545,9.891,7.509,22.736,7.209,25.605l15.5-16.907a24.5,24.5,0,0,0,1.795-8.294C603.838,498.266,603.887,489.538,597.783,483.35Z" transform="translate(-217.372 -141.724)" fill="#fff" stroke="#4f008c" stroke-miterlimit="10" stroke-width="2"/><rect width="30.25" height="3.905" rx="1.953" transform="translate(141.876 399.822)" fill="#fff" stroke="#4f008c" stroke-miterlimit="10" stroke-width="2"/><path d="M187.923,541.76c-8.53,0-15.443,15.428-15.443,34.456s6.9,34.461,15.443,34.461c.493,0,9.551-.173,9.551-.173V541.76Z" transform="translate(-23.243 -174.608)" fill="#fff" stroke="#4f008c" stroke-miterlimit="10" stroke-width="2"/><path d="M210.9,610.691c-8.244,0-14.95-15.241-14.95-33.968s6.706-33.963,14.95-33.963S225.85,558,225.85,576.723,219.149,610.691,210.9,610.691Z" transform="translate(-35.14 -175.115)" fill="#eef0f1"/><path d="M210.418,542.746c3.659,0,7.312,3.452,10.019,9.511,2.865,6.38,4.438,14.891,4.438,23.958s-1.573,17.578-4.438,23.963c-2.707,6.045-6.361,9.511-10.019,9.511s-7.312-3.451-10.019-9.511c-2.86-6.41-4.438-14.9-4.438-23.963s1.578-17.578,4.438-23.958c2.707-6.045,6.361-9.511,10.019-9.511m0-.986C201.9,541.76,195,557.188,195,576.216s6.9,34.461,15.443,34.461,15.443-15.428,15.443-34.461-6.9-34.456-15.443-34.456Z" transform="translate(-34.659 -174.608)" fill="#4f008c"/><path d="M222.733,541.76c-8.53,0-15.443,15.428-15.443,34.456s6.9,34.461,15.443,34.461c.493,0,9.551-.173,9.551-.173V541.76Z" transform="translate(-40.889 -174.608)" fill="#fff" stroke="#4f008c" stroke-miterlimit="10" stroke-width="2"/><ellipse cx="14.95" cy="33.963" rx="14.95" ry="33.963" transform="translate(177.974 367.645)" fill="#eef0f1"/><path d="M245.2,542.746c3.659,0,7.312,3.452,10.019,9.511,2.86,6.38,4.438,14.891,4.438,23.958s-1.578,17.578-4.438,23.963c-2.707,6.045-6.361,9.511-10.019,9.511s-7.312-3.451-10.019-9.511c-2.86-6.41-4.438-14.9-4.438-23.963s1.578-17.578,4.438-23.958c2.707-6.045,6.361-9.511,10.019-9.511m0-.986c-8.53,0-15.443,15.428-15.443,34.456s6.9,34.461,15.443,34.461,15.443-15.428,15.443-34.461S253.743,541.76,245.2,541.76Z" transform="translate(-52.279 -174.608)" fill="#4f008c"/><path d="M267.475,607.68H478.48v3.905H267.475a1.1,1.1,0,0,1-1.095-1.095V608.78a1.094,1.094,0,0,1,1.095-1.1Z" transform="translate(-70.89 -207.858)" fill="#fff" stroke="#4f008c" stroke-miterlimit="10" stroke-width="2"/><path d="M669.433,541.76c-8.53,0-15.433,15.428-15.433,34.456s6.9,34.461,15.443,34.461c.518,0,9.551-.173,9.551-.173V541.76Z" transform="translate(-267.427 -174.608)" fill="#fff" stroke="#4f008c" stroke-miterlimit="10" stroke-width="2"/><path d="M692.41,610.691c-8.244,0-14.95-15.241-14.95-33.968s6.706-33.963,14.95-33.963S707.36,558,707.36,576.723,700.649,610.691,692.41,610.691Z" transform="translate(-279.325 -175.115)" fill="#eef0f1"/><path d="M691.9,542.746c3.659,0,7.307,3.452,10.019,9.511,2.86,6.38,4.438,14.891,4.438,23.958s-1.578,17.578-4.438,23.963c-2.712,6.045-6.361,9.511-10.019,9.511s-7.312-3.451-10.024-9.511c-2.86-6.41-4.438-14.9-4.438-23.963s1.573-17.578,4.438-23.958c2.712-6.045,6.361-9.511,10.024-9.511m0-.986c-8.53,0-15.443,15.428-15.443,34.456s6.9,34.461,15.443,34.461,15.443-15.428,15.443-34.461S700.443,541.76,691.9,541.76Z" transform="translate(-278.818 -174.608)" fill="#4f008c"/><path d="M704.233,541.76c-8.53,0-15.443,15.428-15.443,34.456s6.9,34.461,15.443,34.461c.493,0,9.551-.173,9.551-.173V541.76Z" transform="translate(-285.069 -174.608)" fill="#fff" stroke="#4f008c" stroke-miterlimit="10" stroke-width="2"/><path d="M727.21,610.691c-8.244,0-14.95-15.241-14.95-33.968s6.706-33.963,14.95-33.963S742.16,558,742.16,576.723,735.454,610.691,727.21,610.691Z" transform="translate(-296.972 -175.115)" fill="#eef0f1"/><path d="M726.7,542.746c3.659,0,7.312,3.452,10.019,9.511,2.865,6.38,4.438,14.891,4.438,23.958s-1.573,17.578-4.438,23.963c-2.707,6.045-6.361,9.511-10.019,9.511s-7.312-3.451-10.019-9.511c-2.86-6.41-4.438-14.9-4.438-23.963s1.578-17.578,4.438-23.958c2.707-6.045,6.361-9.511,10.019-9.511m0-.986c-8.53,0-15.443,15.428-15.443,34.456s6.9,34.461,15.443,34.461,15.443-15.428,15.443-34.461S735.243,541.76,726.7,541.76Z" transform="translate(-296.465 -174.608)" fill="#4f008c"/><path d="M739.475,595.42c-1.972,0-3.585,3.58-3.585,8s1.607,8,3.585,8l10.611-.039V595.42Z" transform="translate(-308.951 -201.653)" fill="#4f008c" stroke="#4f008c" stroke-miterlimit="10" stroke-width="2"/><path d="M765.3,603.418c0,4.438-1.6,8-3.585,8s-3.585-3.585-3.585-8,1.607-8,3.585-8S765.3,599,765.3,603.418Z" transform="translate(-320.226 -201.653)" fill="#fff" stroke="#4f008c" stroke-miterlimit="10" stroke-width="2"/><rect width="30.25" height="3.905" rx="1.953" transform="translate(440.752 399.822)" fill="#fff" stroke="#4f008c" stroke-miterlimit="10" stroke-width="2"/><path d="M545.834,402.335q-11.079,44.9-22.124,89.813c1.243,1.6,1.893,4.127,1.257,7.514-.532,2.806-1.42,5.3-1.1,7.15a2.643,2.643,0,0,1-2.1,3.008,14.792,14.792,0,0,1-2.914.261,5.457,5.457,0,0,1-5.863-5.315c-.133-2.219,3.21-12.845,3.21-12.845a3.138,3.138,0,0,1,.227-.271q1.154-46.965,2.317-93.95" transform="translate(-195.919 -101.319)" fill="#eef0f1" stroke="#4f008c" stroke-miterlimit="10" stroke-width="2"/><path d="M740.9,252.045a13.135,13.135,0,0,1,.542-5.143,14.291,14.291,0,0,1,7.021-8.032l5.094,4.438q1.381.1,2.84.158c1.42.059,2.8.074,4.112.064a16.407,16.407,0,0,1,2.416.6,56.59,56.59,0,0,1,5.227,2.525c3.762,2.071,16.049,9.4,31.207,37.37a209.368,209.368,0,0,1,11.686,25.536,43.331,43.331,0,0,1-14.837,15.285c-19.644,11.908-41.778,2.584-44.421,1.42-1.095-21.848-6.006-35.062-10.567-43.3-1.795-3.23-6.6-11.212-4.931-20.561A24.687,24.687,0,0,1,740.9,252.045Z" transform="translate(-309.007 -20.341)" fill="#fff" stroke="#4f008c" stroke-miterlimit="10" stroke-width="2"/><path d="M852.4,706.11l2.7,4.827-9.023-.227Z" transform="translate(-364.832 -257.922)" fill="#4f008c" stroke="#4f008c" stroke-miterlimit="10" stroke-width="2"/><path d="M850.956,719.233s2.189-4.807-.947-7.83a1.41,1.41,0,0,0-1.844-.064l-.883.725c-1.4,1.139-4.2,1.183-5.813.35l-1.178-.607a6.489,6.489,0,0,0-6.356.247l-8.486,5.256-2.87.986a8.715,8.715,0,0,0-2.194,2,8.82,8.82,0,0,0-1.706,3.861l31.315-.892h0a2.628,2.628,0,0,0,1.538-1.652A2.667,2.667,0,0,0,850.956,719.233Z" transform="translate(-350.947 -260.414)" fill="#eef0f1" stroke="#4f008c" stroke-miterlimit="10" stroke-width="2"/><line x1="5.227" y2="0.247" transform="translate(494.783 458.819)" fill="#eef0f1" stroke="#4f008c" stroke-miterlimit="10" stroke-width="2"/><line x2="2.48" y2="3.599" transform="translate(482.505 451.926)" fill="#eef0f1" stroke="#4f008c" stroke-miterlimit="10" stroke-width="2"/><line x2="2.239" y2="3.269" transform="translate(479.808 453.538)" fill="#eef0f1" stroke="#4f008c" stroke-miterlimit="10" stroke-width="2"/><line x2="1.987" y2="2.944" transform="translate(477.116 455.146)" fill="#eef0f1" stroke="#4f008c" stroke-miterlimit="10" stroke-width="2"/><line x2="1.741" y2="2.613" transform="translate(474.419 456.758)" fill="#eef0f1" stroke="#4f008c" stroke-miterlimit="10" stroke-width="2"/><path d="M590.276,705.02l2.687,5.108-9.413-.468Z" transform="translate(-231.699 -257.369)" fill="#4f008c" stroke="#4f008c" stroke-miterlimit="10" stroke-width="2"/><path d="M588.235,719.081s2.411-4.96-.784-8.2a1.479,1.479,0,0,0-1.923-.109l-.942.73c-1.479,1.154-4.438,1.129-6.075.217l-1.213-.666a6.78,6.78,0,0,0-6.642.094l-8.994,5.271-3.018.986a9.048,9.048,0,0,0-2.347,2.036,9.274,9.274,0,0,0-1.879,3.984l32.705-.123h0a2.608,2.608,0,0,0,1.109-4.206Z" transform="translate(-216.933 -260.011)" fill="#ff6a39" stroke="#4f008c" stroke-miterlimit="10" stroke-width="2"/><line x1="5.458" y2="0.123" transform="translate(365.826 459.07)" fill="#eef0f1" stroke="#fff" stroke-miterlimit="10" stroke-width="2"/><line x2="2.5" y2="3.821" transform="translate(353.198 451.423)" fill="#eef0f1" stroke="#4f008c" stroke-miterlimit="10" stroke-width="2"/><line x2="2.248" y2="3.471" transform="translate(350.344 453.035)" fill="#eef0f1" stroke="#4f008c" stroke-miterlimit="10" stroke-width="2"/><line x2="1.997" y2="3.121" transform="translate(347.49 454.648)" fill="#eef0f1" stroke="#4f008c" stroke-miterlimit="10" stroke-width="2"/><line x2="1.75" y2="2.776" transform="translate(344.636 456.255)" fill="#eef0f1" stroke="#4f008c" stroke-miterlimit="10" stroke-width="2"/><path d="M424.5,705.05l2.672,4.837-9.023-.271Z" transform="translate(-147.827 -257.384)" fill="#4f008c" stroke="#4f008c" stroke-miterlimit="10" stroke-width="2"/><path d="M422.951,718.285s2.214-4.793-.907-7.835a1.41,1.41,0,0,0-1.844-.069l-.888.715c-1.4,1.134-4.206,1.164-5.813.325l-1.174-.616a6.509,6.509,0,0,0-6.361.217l-8.51,5.217-2.875.986a8.745,8.745,0,0,0-2.2,1.972,8.834,8.834,0,0,0-1.726,3.851l31.32-.74h0a2.6,2.6,0,0,0,1.548-1.642,2.672,2.672,0,0,0-.567-2.382Z" transform="translate(-133.885 -259.93)" fill="#ff6a39" stroke="#4f008c" stroke-miterlimit="10" stroke-width="2"/><line x1="5.227" y2="0.222" transform="translate(283.835 458.355)" fill="#eef0f1" stroke="#fff" stroke-miterlimit="10" stroke-width="2"/><line x2="2.465" y2="3.609" transform="translate(271.596 451.379)" fill="#eef0f1" stroke="#4f008c" stroke-miterlimit="10" stroke-width="2"/><line x2="2.219" y2="3.279" transform="translate(268.895 452.976)" fill="#eef0f1" stroke="#4f008c" stroke-miterlimit="10" stroke-width="2"/><line x2="1.972" y2="2.954" transform="translate(266.194 454.569)" fill="#eef0f1" stroke="#4f008c" stroke-miterlimit="10" stroke-width="2"/><line x2="1.731" y2="2.623" transform="translate(263.488 456.166)" fill="#eef0f1" stroke="#4f008c" stroke-miterlimit="10" stroke-width="2"/><path d="M589.359,434.929c1.381-.054,5.808-.4,8.165-3.668a6.794,6.794,0,0,0,.72-1.247,6.942,6.942,0,0,1-4.655-.394c-1.563-.759-3.032-2.312-2.717-2.958.266-.552,1.652-.138,3.767-.182a15.94,15.94,0,0,0,5.828-1.252c4.319-1.371,8.594-.133,10.488,2.766a7.481,7.481,0,0,1,1.016,4.931c-.942,1.154-10.034,12.061-18.1,9.817-.493-.143-5.665-1.632-5.917-4.689A4.38,4.38,0,0,1,589.359,434.929Z" transform="translate(-233.932 -114.852)" fill="#fff" stroke="#4f008c" stroke-miterlimit="10" stroke-width="2"/><path d="M401.574,600.762a11.582,11.582,0,0,0-.03-1.479c-.108,0,.148,8.007-1.07,8.234-.789.148-2.243-2.924-4.684-10.941l5.631-2.426" transform="translate(-136.488 -201.001)" fill="#eef0f1" stroke="#4f008c" stroke-miterlimit="10" stroke-width="2"/><path d="M772.171,314l-14.3,25.487q-1.524-4.931-3.042-9.861Z" transform="translate(-318.556 -58.597)" fill="#4f008c"/><path d="M681.251,281.809l-19.23,41.132L620.11,348.734a9.048,9.048,0,0,0,2.086,5.232,9.24,9.24,0,0,0,6.089,3.126l44.2-21.7,31.389-41.137c3.156-6.1,1.4-13.4-3.53-16.962C694.574,273.146,685.491,274.832,681.251,281.809Z" transform="translate(-250.258 -38.685)" fill="#fff" stroke="#4f008c" stroke-miterlimit="10" stroke-width="2"/><path d="M793.51,422.562l-24.521.256,2.022-3.348Z" transform="translate(-325.758 -112.192)" fill="#4f008c"/><line x1="5.68" y2="2.958" transform="translate(356.48 323.426)" fill="none" stroke="#4f008c" stroke-miterlimit="10" stroke-width="2"/><line x1="3.072" y2="1.745" transform="translate(359.941 326.127)" fill="none" stroke="#4f008c" stroke-miterlimit="10" stroke-width="2"/><line x2="7.154" y2="1.745" transform="translate(320.714 272.776)" fill="none" stroke="#4f008c" stroke-miterlimit="10" stroke-width="2"/><line x2="400" transform="translate(126.63 463.587)" fill="none" stroke="#4f008c" stroke-miterlimit="10" stroke-width="2"/></g></svg>