<svg xmlns="http://www.w3.org/2000/svg" width="400" height="260.765" viewBox="0 0 400 260.765"><g transform="translate(-100.38 -212.98)"><rect width="199.993" height="57.937" transform="translate(147.142 270.572)" fill="#4f008c" stroke="#4f008c" stroke-miterlimit="10" stroke-width="1"/><line x1="22.133" transform="translate(263.188 359.226)" fill="#fff" stroke="#4f008c" stroke-miterlimit="10" stroke-width="2"/><path d="M850.291,375.45a31.657,31.657,0,0,1-13.6,7.891" transform="translate(-373.396 -81.92)" fill="none" stroke="#4f008c" stroke-miterlimit="10" stroke-width="2"/><path d="M782.28,285.946a31.661,31.661,0,0,1,22.444-9.3" transform="translate(-345.819 -31.763)" fill="none" stroke="#4f008c" stroke-miterlimit="10" stroke-width="2"/><line x1="36.277" transform="translate(205.044 399.911)" fill="none" stroke="#4f008c" stroke-miterlimit="10" stroke-width="2"/><line x1="18.903" transform="translate(343.718 213.98)" fill="none" stroke="#4f008c" stroke-miterlimit="10" stroke-width="2"/><line x1="18.903" transform="translate(385.392 254.089)" fill="none" stroke="#4f008c" stroke-miterlimit="10" stroke-width="2"/><path d="M374.606,654.82,361.9,662.755a6.9,6.9,0,0,0-3.23,6.278c.311,4.971.9,13.4,1.618,19.179.227,1.8,5.1-.883,5.706-3.314,3.033-12.191,10.539-18.065,10.539-18.065Z" transform="translate(-130.971 -223.689)" fill="#fff" stroke="#4f008c" stroke-miterlimit="10" stroke-width="2.65"/><path d="M381.143,688.1l-5.523-2.13,1.6,9.533Z" transform="translate(-139.573 -239.477)" fill="#4f008c" stroke="#4f008c" stroke-miterlimit="10" stroke-width="2.65"/><path d="M355.892,665.332s4.769-3.048,8.448-.177a1.509,1.509,0,0,1,.345,1.973l-.631,1.046c-.986,1.652-.626,4.631.493,6.214l.824,1.159a6.968,6.968,0,0,1,.7,6.781l-4.291,9.745-.636,3.191a9.332,9.332,0,0,1-1.79,2.633,9.489,9.489,0,0,1-3.837,2.387l-3.773-33.338h0a2.673,2.673,0,0,1,4.152-1.632Z" transform="translate(-127.465 -228.303)" fill="#eef0f1" stroke="#4f008c" stroke-miterlimit="10" stroke-width="2.65"/><line x2="0.528" y2="5.578" transform="translate(228.428 437.03)" fill="#eef0f1" stroke="#4f008c" stroke-miterlimit="10" stroke-width="2.65"/><line x1="4.187" y1="2.091" transform="translate(234.184 452.461)" fill="#eef0f1" stroke="#4f008c" stroke-miterlimit="10" stroke-width="2.65"/><line x1="3.802" y1="1.879" transform="translate(233.267 455.775)" fill="#eef0f1" stroke="#4f008c" stroke-miterlimit="10" stroke-width="2.65"/><line x1="3.418" y1="1.667" transform="translate(232.351 459.089)" fill="#eef0f1" stroke="#4f008c" stroke-miterlimit="10" stroke-width="2.65"/><line x1="3.038" y1="1.455" transform="translate(231.434 462.403)" fill="#eef0f1" stroke="#4f008c" stroke-miterlimit="10" stroke-width="2.65"/><path d="M616.252,306.474l-11.432-2.022,8.315-12.112,9.37,4.039Z" transform="translate(-255.803 -39.716)" fill="#fff" stroke="#4f008c" stroke-miterlimit="10" stroke-width="2.65"/><path d="M421.754,387.607s-6.613,2.081-7.555,11.185l-6.816,5.78c-1.391,1.761-.942,4.019.35,5.859l10.223-5.622,8.088-12.117L429,387.06Z" transform="translate(-155.251 -87.816)" fill="#fff" stroke="#4f008c" stroke-miterlimit="10" stroke-width="2.65"/><line y1="5.735" x2="9.153" transform="translate(251.524 314.297)" fill="#fff" stroke="#4f008c" stroke-miterlimit="10" stroke-width="2.65"/><path d="M421.857,395.887l-6.806,4.542c-1.243-.824-.779-2.416.986-3.945,0,0,1.79-1.519,2.195-1.879a3.4,3.4,0,0,0,.883-1.692c.286-1.479,2.377-6.9,6.677-7.092l4.961-2.042" transform="translate(-159.216 -86.149)" fill="#fff" stroke="#4f008c" stroke-miterlimit="10" stroke-width="2.65"/><path d="M512.394,417.72A70.788,70.788,0,0,1,498.26,408a53.07,53.07,0,0,1,52.118,17.665A74,74,0,0,1,512.394,417.72Z" transform="translate(-201.777 -97.801)" fill="#eef0f1" stroke="#4f008c" stroke-miterlimit="10" stroke-width="2.65"/><path d="M561.355,324.58a83.7,83.7,0,0,0-12.018,10.07c-15.155,15.367-20.925,33.185-23.317,43.793l37.1,8.833Q562.238,355.94,561.355,324.58Z" transform="translate(-215.85 -56.127)" fill="#fff" stroke="#4f008c" stroke-miterlimit="10" stroke-width="2.65"/><path d="M711.854,634.06l-.335,14.977A6.9,6.9,0,0,0,715,655.182c4.33,2.466,11.7,6.594,16.92,9.163,1.632.8,2.061-4.749.36-6.589-8.532-9.217-9.321-18.74-9.321-18.74Z" transform="translate(-309.911 -213.167)" fill="#fff" stroke="#4f008c" stroke-miterlimit="10" stroke-width="2.65"/><path d="M732.823,657.01l-4.813,3.452,8.847,3.891Z" transform="translate(-318.27 -224.799)" fill="#4f008c" stroke="#4f008c" stroke-miterlimit="10" stroke-width="2.65"/><path d="M701.761,658.976s.064-5.656,4.483-7.161a1.5,1.5,0,0,1,1.815.779l.528,1.1c.838,1.746,3.531,3.068,5.474,2.994l1.42-.054a6.954,6.954,0,0,1,6.046,3.127l5.834,8.976,2.323,2.278a9.369,9.369,0,0,1,1.213,2.959,9.529,9.529,0,0,1-.1,4.517l-29.95-15.135h0a2.806,2.806,0,0,1-.74-2.3A2.841,2.841,0,0,1,701.761,658.976Z" transform="translate(-304.115 -222.13)" fill="#eef0f1" stroke="#4f008c" stroke-miterlimit="10" stroke-width="2.65"/><line x2="4.951" y2="2.619" transform="translate(397.656 436.847)" fill="#eef0f1" stroke="#4f008c" stroke-miterlimit="10" stroke-width="2.65"/><line x1="4.049" y2="2.357" transform="translate(413.705 438.139)" fill="#eef0f1" stroke="#4f008c" stroke-miterlimit="10" stroke-width="2.65"/><line x1="3.659" y2="2.15" transform="translate(415.973 440.93)" fill="#eef0f1" stroke="#4f008c" stroke-miterlimit="10" stroke-width="2.65"/><line x1="3.27" y2="1.948" transform="translate(418.24 443.717)" fill="#eef0f1" stroke="#4f008c" stroke-miterlimit="10" stroke-width="2.65"/><line x1="2.88" y2="1.741" transform="translate(420.468 446.508)" fill="#eef0f1" stroke="#4f008c" stroke-miterlimit="10" stroke-width="2.65"/><path d="M794.339,318.744s6.613-2.081,7.555-11.185l6.816-5.78c1.391-1.761.942-4.024-.35-5.859l-10.228,5.622-8.083,12.112-2.959,5.637Z" transform="translate(-348.257 -41.574)" fill="#fff" stroke="#4f008c" stroke-miterlimit="10" stroke-width="2.65"/><line x1="9.148" y2="5.735" transform="translate(451.912 256.964)" fill="#fff" stroke="#4f008c" stroke-miterlimit="10" stroke-width="2.65"/><path d="M800.477,317.337l6.806-4.537c1.243.824.779,2.412-.986,3.945,0,0-1.8,1.524-2.195,1.884a3.348,3.348,0,0,0-.883,1.687c-.286,1.479-2.377,6.9-6.677,7.1l-4.961,2.042" transform="translate(-350.533 -50.137)" fill="#fff" stroke="#4f008c" stroke-miterlimit="10" stroke-width="2.65"/><path d="M652.373,350.991a35.646,35.646,0,0,1-14.366-3l-26.138-10.7,9.183-19.776,30.961,18.084,50.022-12.073,2.037,8.67L666.32,348.165A35.684,35.684,0,0,1,652.373,350.991Z" transform="translate(-259.449 -52.531)" fill="#eef0f1"/><path d="M620.426,317.479l20.461,11.954,9.651,5.632.454.266.493-.123L700.6,323.373l1.766,7.491L665.122,346.62a35.118,35.118,0,0,1-27.795-.173h-.03l-25.482-10.435,4.31-9.281,4.281-9.222m-.582-1.859L610.05,336.7,636.8,347.656a36.494,36.494,0,0,0,28.835.182l38.26-16.191-2.318-9.863L651.2,333.936,619.844,315.62Z" transform="translate(-258.527 -51.572)" fill="#4f008c"/><path d="M382.62,542.449l52.768-41.2L453.8,431.66l30.675,15.988c-1.381,2.989-8.842,18.74-21.31,44.9a86.445,86.445,0,0,1-26.414,32.125l-45.687,33.9Z" transform="translate(-143.146 -110.583)" fill="#eef0f1"/><path d="M453.356,431.608l29.393,15.323c-1.371,2.959-6.16,13.074-21.038,44.33a85.811,85.811,0,0,1-26.217,31.883l-45.06,33.432-4.1-7.841L382.6,541.6l26.2-20.466,25.945-20.269.345-.271.113-.424,18.148-68.584m-.848-1.918-18.563,70.192L380.94,541.288l9.045,17.261,46.288-34.364A86.8,86.8,0,0,0,462.9,491.814c9.025-18.952,21.393-44.957,21.566-45.48L452.523,429.68Z" transform="translate(-142.295 -109.575)" fill="#4f008c"/><path d="M533.81,488.489h0s4.369,8.463,15.836,12.561a23.827,23.827,0,0,1,4.187-5.282s-11.648.547-19.84-7.368" transform="translate(-219.795 -139.227)" fill="#4f008c" stroke="#4f008c" stroke-miterlimit="10" stroke-width="2.65"/><path d="M550.861,377.535A181.842,181.842,0,0,0,512.675,362.1c-4.256-1.174-8.616-2.209-12.965-3.068,17.118-21.823,32.549-37.944,38.5-42.106a30.391,30.391,0,0,1,13.453-5.361c.577-.044,1.164-.064,1.746-.064h.128a12.227,12.227,0,0,0,8.384,3.763,10.358,10.358,0,0,0,2.254-.256c3.985,5.652,8.32,14.3,7.037,24.061-.2,1.544-.626,4.759-6.382,15.692a205.188,205.188,0,0,1-13.971,22.774Z" transform="translate(-202.519 -49.49)" fill="#fff"/><path d="M552.1,311.482a12.717,12.717,0,0,0,8.64,3.763h.064a10.471,10.471,0,0,0,1.916-.177c3.849,5.558,7.893,13.9,6.685,23.242-.2,1.509-.611,4.646-6.312,15.475a204.864,204.864,0,0,1-13.631,22.232A181.947,181.947,0,0,0,511.667,360.8c-3.945-1.09-7.955-2.057-11.969-2.875,16.812-21.344,31.883-37.056,37.7-41.135a29.7,29.7,0,0,1,13.138-5.223c.493-.044,1.041-.064,1.558-.069m.133-1.307a17.6,17.6,0,0,0-1.8.069,30.673,30.673,0,0,0-13.774,5.474c-5.632,3.945-20.974,19.618-39.3,43.078,4.473.858,9.138,1.933,13.966,3.265a180.709,180.709,0,0,1,38.541,15.658A205.9,205.9,0,0,0,564.253,354.4c5.464-10.356,6.174-13.809,6.451-15.914,1.44-10.968-4.059-20.22-7.4-24.885a9.639,9.639,0,0,1-2.466.34H560.8a11.763,11.763,0,0,1-8.1-3.758Z" transform="translate(-201.328 -48.821)" fill="#4f008c"/><path d="M523.1,430.26l-1.864,5.977a23.371,23.371,0,0,0,21.413,29.975l50.234,6.451q8.384,30.911,16.768,61.833l19.11.335L611.5,468.746a30.274,30.274,0,0,0-10.041-17.419,29.309,29.309,0,0,0-12.147-6.031Z" transform="translate(-212.966 -109.796)" fill="#fff" stroke="#4f008c" stroke-miterlimit="10" stroke-width="2.65"/><path d="M635.58,257.14c-.71-7.679-8.053-11.1-14.46-9.582s-9.109,10.218-7.4,17.71l.986,4.512c1.869,5.8,7.047,9.464,12.95,8.113S636.65,268.739,635.58,257.14Z" transform="translate(-260.065 -16.84)" fill="#fff"/><path d="M635.58,257.14c-.71-7.679-8.053-11.1-14.46-9.582s-9.109,10.218-7.4,17.71l.986,4.512c1.869,5.8,7.047,9.464,12.95,8.113S636.65,268.739,635.58,257.14Z" transform="translate(-260.065 -16.84)" fill="none" stroke="#4f008c" stroke-miterlimit="10" stroke-width="2.65"/><path d="M518.673,311.632l-27.124-1.371a34.3,34.3,0,0,0-25.645,8.833L437,345.384l5.129,8.014,40.908-26.508,20.328,2.55" transform="translate(-170.719 -48.806)" fill="#fff" stroke="#4f008c" stroke-miterlimit="10" stroke-width="2.65"/><path d="M541.24,353.373l5.05-5.543,9.005.957Z" transform="translate(-223.561 -67.907)" fill="#4f008c" stroke="#4f008c" stroke-miterlimit="10" stroke-width="2.65"/><path d="M546.2,435.27a18.346,18.346,0,0,0,8.5,23.445l54.13,6.766q10.608,35.848,21.206,71.691" transform="translate(-225.369 -112.336)" fill="none" stroke="#4f008c" stroke-miterlimit="10" stroke-width="2.65"/><path d="M458.74,486.28q-6.9,23.82-13.809,47.635l-56.882,42.55" transform="translate(-145.891 -138.267)" fill="none" stroke="#4f008c" stroke-miterlimit="10" stroke-width="2.65"/><path d="M610.912,264.691c-1.662-.38-2.066-5.3-1.726-8.29.493-4.438,2.086-7.4,5.262-9.7s8.339-2.52,12.078-1.371c4.438,1.371,6.628.276,7.279,2.283.552,1.716-.759,4.438-4.113,4.384a16.65,16.65,0,0,0-5.045.493,14.943,14.943,0,0,0-4.764,2.417c-2.52,1.973-3.768,4.493-4.1,4.305-.242-.143.685-1.405.2-2.653a2.612,2.612,0,0,0-2.693-1.618c-1.351.291-2.071,2.18-1.775,3.492.36,1.608,2.1,1.751,2.254,3.1C613.94,263.029,612.071,264.957,610.912,264.691Z" transform="translate(-257.963 -15.548)" fill="#fff" stroke="#4f008c" stroke-miterlimit="10" stroke-width="2.65"/><line x2="5.252" y2="10.702" transform="translate(236.663 435.279)" fill="none" stroke="#4f008c" stroke-miterlimit="10" stroke-width="2.65"/><line x2="11.801" y2="2.55" transform="translate(402.119 428.478)" fill="none" stroke="#4f008c" stroke-miterlimit="10" stroke-width="2.65"/><path d="M597.58,357.58a23.853,23.853,0,0,0,8.31,3.373,24.486,24.486,0,0,0,13.754-1.361q-1.632,5.612-3.275,11.229a26.955,26.955,0,0,1-16.866-.809,24.659,24.659,0,0,1-5.5-3.132Q595.775,362.226,597.58,357.58Z" transform="translate(-250.319 -72.856)" fill="#ff6a39" stroke="#4f008c" stroke-miterlimit="10" stroke-width="2.38"/><line x2="5.997" y2="8.808" transform="translate(271.507 291.835)" fill="#4f008c" stroke="#4f008c" stroke-miterlimit="10" stroke-width="2.65"/><line x2="2.51" y2="9.05" transform="translate(436.333 272.533)" fill="none" stroke="#4f008c" stroke-miterlimit="10" stroke-width="2.65"/><line x1="51.422" transform="translate(274.669 244.887)" fill="#fff" stroke="#4f008c" stroke-miterlimit="10" stroke-width="2"/><line x2="400" transform="translate(100.38 471.827)" fill="none" stroke="#4f008c" stroke-miterlimit="10" stroke-width="2"/></g></svg>