<svg id="Layer_1" data-name="Layer 1" xmlns="http://www.w3.org/2000/svg" xmlns:xlink="http://www.w3.org/1999/xlink" viewBox="0 0 1125 905.38"><defs><style>.cls-1{fill:none;}.cls-2{fill:#e8e9e6;}.cls-11,.cls-14,.cls-2,.cls-3{stroke:#4e257d;}.cls-10,.cls-11,.cls-12,.cls-13,.cls-14,.cls-2,.cls-3{stroke-miterlimit:10;}.cls-10,.cls-11,.cls-13,.cls-14,.cls-2,.cls-3,.cls-4{stroke-width:2px;}.cls-10,.cls-3{fill:#fff;}.cls-4{fill:#ff6a39;stroke-linejoin:round;}.cls-10,.cls-12,.cls-13,.cls-4{stroke:#4f008c;}.cls-5{clip-path:url(#clip-path);}.cls-6{fill:#4e257d;}.cls-7{clip-path:url(#clip-path-2);}.cls-8{clip-path:url(#clip-path-3);}.cls-9{clip-path:url(#clip-path-4);}.cls-11{fill:#e84b5b;}.cls-12,.cls-13,.cls-14{fill:#4f008c;}.cls-12{stroke-width:1.41px;}</style><clipPath id="clip-path"><path class="cls-1" d="M350.72,453.48a87.94,87.94,0,0,0,79.5,47.33A87.71,87.71,0,0,1,281.4,489.4L218.52,368.08l69.33-35.92Z"/></clipPath><clipPath id="clip-path-2"><path class="cls-1" d="M389.93,147.33a88,88,0,0,1,7.16-92.25,87.72,87.72,0,0,0-76.48,128.18L379,295.91,448.32,260Z"/></clipPath><clipPath id="clip-path-3"><path class="cls-1" d="M476.59,102.42a88,88,0,0,0-79.5-47.34A87.71,87.71,0,0,1,545.91,66.49L604.3,179.14,535,215.07Z"/></clipPath><clipPath id="clip-path-4"><path class="cls-1" d="M437.38,408.56a88,88,0,0,1-7.16,92.25A87.72,87.72,0,0,0,506.7,372.63L443.83,251.32,374.5,287.24Z"/></clipPath></defs><title>Walk &amp;amp; Talk</title><path class="cls-2" d="M741.54,443.31C663.7,293.11,623.76,216.7,545.91,66.49A87.71,87.71,0,0,0,397.09,55.08a87.92,87.92,0,0,1,79.5,47.34c77.85,150.2,109.45,189,187.3,339.19Z"/><path class="cls-3" d="M399.81,527l69.32-35.93A87.84,87.84,0,0,0,506.7,372.64L389.93,147.33A88.06,88.06,0,0,1,427.5,28.92L358.18,64.85a87.84,87.84,0,0,0-37.57,118.41L437.38,408.57A88.08,88.08,0,0,1,399.81,527Z"/><path class="cls-2" d="M200.56,333.43l80.84,156a87.7,87.7,0,0,0,148.82,11.4,88,88,0,0,1-79.5-47.33l-80.84-156Z"/><rect class="cls-4" x="214.14" y="311.08" width="78.08" height="78.1" transform="translate(-132.71 155.77) rotate(-27.4)"/><g class="cls-5"><rect class="cls-6" x="296.37" y="386.2" width="19.52" height="4.88" transform="translate(-144.5 184.45) rotate(-27.4)"/><rect class="cls-6" x="305.35" y="403.53" width="19.52" height="4.88" transform="translate(-151.46 190.53) rotate(-27.4)"/><rect class="cls-6" x="314.33" y="420.86" width="19.52" height="4.88" transform="translate(-158.43 196.61) rotate(-27.4)"/><rect class="cls-6" x="323.31" y="438.2" width="19.52" height="4.88" transform="translate(-165.4 202.68) rotate(-27.4)"/><rect class="cls-6" x="332.3" y="455.53" width="19.52" height="4.88" transform="translate(-172.37 208.76) rotate(-27.4)"/><rect class="cls-6" x="343.25" y="470.93" width="23.03" height="4.88" transform="translate(-178.03 216.34) rotate(-27.4)"/><rect class="cls-6" x="357.95" y="484.82" width="24.86" height="4.88" transform="translate(-182.67 225.08) rotate(-27.4)"/><rect class="cls-6" x="377.14" y="496.63" width="22.42" height="4.88" transform="translate(-186.09 234.68) rotate(-27.4)"/><rect class="cls-6" x="400.35" y="501.18" width="26.08" height="4.88" transform="translate(-185.38 246.7) rotate(-27.4)"/></g><g class="cls-7"><rect class="cls-6" x="425.4" y="253.36" width="19.52" height="4.88" transform="translate(-68.9 228.93) rotate(-27.4)"/><rect class="cls-6" x="416.42" y="236.03" width="19.52" height="4.88" transform="translate(-61.93 222.85) rotate(-27.4)"/><rect class="cls-6" x="407.43" y="218.7" width="19.52" height="4.88" transform="translate(-54.97 216.77) rotate(-27.4)"/><rect class="cls-6" x="398.45" y="201.37" width="19.52" height="4.88" transform="translate(-48 210.7) rotate(-27.4)"/><rect class="cls-6" x="389.47" y="184.04" width="19.52" height="4.88" transform="translate(-41.03 204.62) rotate(-27.4)"/><rect class="cls-6" x="380.49" y="166.71" width="19.52" height="4.88" transform="translate(-34.06 198.54) rotate(-27.4)"/><rect class="cls-6" x="371.51" y="149.38" width="19.52" height="4.88" transform="translate(-27.1 192.47) rotate(-27.4)"/><rect class="cls-6" x="364.49" y="130.12" width="23.03" height="4.88" transform="translate(-18.82 187.89) rotate(-27.4)"/><rect class="cls-6" x="361.23" y="109.35" width="24.86" height="4.88" transform="translate(-9.53 184.48) rotate(-27.4)"/><rect class="cls-6" x="363.16" y="87.85" width="22.42" height="4.88" transform="translate(0.44 182.39) rotate(-27.4)"/><rect class="cls-6" x="372.05" y="64.78" width="26.08" height="4.88" transform="translate(12.26 184.74) rotate(-27.4)"/></g><g class="cls-8"><rect class="cls-6" x="581.38" y="172.52" width="19.52" height="4.88" transform="translate(-14.21 291.64) rotate(-27.4)"/><rect class="cls-6" x="572.4" y="155.19" width="19.52" height="4.88" transform="translate(-7.24 285.56) rotate(-27.4)"/><rect class="cls-6" x="563.42" y="137.86" width="19.52" height="4.88" transform="translate(-0.27 279.48) rotate(-27.4)"/><rect class="cls-6" x="554.43" y="120.53" width="19.52" height="4.88" transform="translate(6.69 273.4) rotate(-27.4)"/><rect class="cls-6" x="545.45" y="103.2" width="19.52" height="4.88" transform="translate(13.66 267.33) rotate(-27.4)"/><rect class="cls-6" x="536.47" y="85.87" width="19.52" height="4.88" transform="translate(20.63 261.25) rotate(-27.4)"/><rect class="cls-6" x="527.49" y="68.54" width="19.52" height="4.88" transform="translate(27.6 255.17) rotate(-27.4)"/><rect class="cls-6" x="516.2" y="51.77" width="21.96" height="4.88" transform="translate(34.18 248.66) rotate(-27.4)"/><rect class="cls-6" x="501.03" y="35.94" width="28.52" height="4.88" transform="translate(40.13 241.41) rotate(-27.4)"/><rect class="cls-6" x="481.31" y="21.99" width="40.26" height="4.88" transform="translate(45 233.48) rotate(-27.4)"/><rect class="cls-6" x="456.88" y="12.39" width="58.56" height="4.88" transform="translate(47.7 225.37) rotate(-27.4)"/></g><g class="cls-9"><rect class="cls-6" x="434.38" y="270.7" width="19.52" height="4.88" transform="translate(-75.87 235.01) rotate(-27.4)"/><rect class="cls-6" x="443.36" y="288.03" width="19.52" height="4.88" transform="translate(-82.84 241.08) rotate(-27.4)"/><rect class="cls-6" x="452.35" y="305.36" width="19.52" height="4.88" transform="translate(-89.8 247.16) rotate(-27.4)"/><rect class="cls-6" x="461.33" y="322.69" width="19.52" height="4.88" transform="translate(-96.77 253.24) rotate(-27.4)"/><rect class="cls-6" x="470.31" y="340.02" width="19.52" height="4.88" transform="translate(-103.74 259.31) rotate(-27.4)"/><rect class="cls-6" x="479.29" y="357.35" width="19.52" height="4.88" transform="translate(-110.71 265.39) rotate(-27.4)"/><rect class="cls-6" x="488.28" y="374.69" width="19.52" height="4.88" transform="translate(-117.67 271.47) rotate(-27.4)"/><rect class="cls-6" x="494.96" y="392.58" width="21.96" height="4.88" transform="translate(-125.02 277.11) rotate(-27.4)"/><rect class="cls-6" x="497.75" y="411.42" width="28.52" height="4.88" transform="translate(-133.01 282.02) rotate(-27.4)"/><rect class="cls-6" x="495.3" y="430.77" width="40.26" height="4.88" transform="translate(-141.53 285.76) rotate(-27.4)"/><rect class="cls-6" x="485.18" y="448.79" width="58.56" height="4.88" transform="translate(-149.93 287.34) rotate(-27.4)"/></g><rect class="cls-6" x="698.15" y="397.83" width="19.52" height="4.88" transform="translate(-104.79 370.64) rotate(-27.4)"/><rect class="cls-6" x="689.17" y="380.5" width="19.52" height="4.88" transform="translate(-97.82 364.56) rotate(-27.4)"/><rect class="cls-6" x="680.19" y="363.17" width="19.52" height="4.88" transform="translate(-90.85 358.48) rotate(-27.4)"/><rect class="cls-6" x="671.21" y="345.84" width="19.52" height="4.88" transform="translate(-83.88 352.41) rotate(-27.4)"/><rect class="cls-6" x="662.22" y="328.51" width="19.52" height="4.88" transform="translate(-76.92 346.33) rotate(-27.4)"/><rect class="cls-6" x="653.24" y="311.17" width="19.52" height="4.88" transform="translate(-69.95 340.25) rotate(-27.4)"/><rect class="cls-6" x="644.26" y="293.84" width="19.52" height="4.88" transform="translate(-62.98 334.18) rotate(-27.4)"/><rect class="cls-6" x="635.28" y="276.51" width="19.52" height="4.88" transform="translate(-56.01 328.1) rotate(-27.4)"/><rect class="cls-6" x="626.29" y="259.18" width="19.52" height="4.88" transform="translate(-49.05 322.02) rotate(-27.4)"/><rect class="cls-6" x="617.31" y="241.85" width="19.52" height="4.88" transform="translate(-42.08 315.94) rotate(-27.4)"/><rect class="cls-6" x="608.33" y="224.52" width="19.52" height="4.88" transform="translate(-35.11 309.87) rotate(-27.4)"/><rect class="cls-6" x="599.35" y="207.19" width="19.52" height="4.88" transform="translate(-28.14 303.79) rotate(-27.4)"/><rect class="cls-6" x="590.36" y="189.86" width="19.52" height="4.88" transform="translate(-21.18 297.71) rotate(-27.4)"/><rect class="cls-10" x="469.31" y="378.18" width="227.94" height="138.94"/><rect class="cls-3" x="407.52" y="685.77" width="332" height="25.58"/><path class="cls-11" d="M518.44,429.67c-1.78,1.48-3.52,3-5.2,4.68l-11.15-11.46q3-2.91,6.17-5.54Z"/><path class="cls-11" d="M633.81,434.35c-1.68-1.65-3.42-3.2-5.2-4.68l10.18-12.32c2.11,1.75,4.17,3.6,6.16,5.54Z"/><path class="cls-11" d="M606.4,416.33q-3.09-1.27-6.24-2.29l4.92-15.2c2.49.8,5,1.7,7.39,2.7Z"/><path class="cls-11" d="M578.63,410q-3.28-.19-6.56-.14l-.27-16c2.59,0,5.18,0,7.77.17Z"/><path class="cls-11" d="M549,413.39c-2.11.62-4.21,1.33-6.28,2.12L537,400.58q3.69-1.41,7.45-2.52Z"/><path class="cls-6" d="M583.72,476.15c-1.87.18-3.75.31-5.67.4-3.54.15-7,.14-10.34,0l5.66-41.63,2.18-16,0-.14,0,.14,2.27,16Z"/><path class="cls-2" d="M407.52,356.57v332h332v-332Zm176.2,119.58c-1.87.18-3.75.31-5.67.4-3.54.15-7,.14-10.34,0-54.9-2.75-86.61-45.7-89-49.08,4.6-5.34,41.45-46.61,100.63-44.13,52.08,2.19,83.51,36.65,89,42.9C665.05,431,636.23,471.25,583.72,476.15Z"/><rect class="cls-12" x="407.52" y="679.32" width="332" height="12.79"/><path class="cls-13" d="M359.61,734.61,473,683.1l-16.82-36.92L342.68,697.74C348.25,709.87,354,722.34,359.61,734.61Z"/><path class="cls-10" d="M432.87,582.74c-1.76,4.53-1.27,8.89.72,13.25Q458.34,650.34,483,704.71q5.17,11.4,10.36,22.78c4.3,9.43,13.19,12.71,22.73,8.39l20.17-9.17c6.68-3.05,9.47-8.18,8.16-15.36a24.65,24.65,0,0,0-1.81-5.69q-29.91-65.94-59.87-131.83c-2-4.37-4.57-8.12-9.08-10.22a11.22,11.22,0,0,0-9.73-.11c-7.85,3.54-15.72,7.06-23.53,10.69A13.92,13.92,0,0,0,432.87,582.74Z"/><path class="cls-10" d="M310.43,638.6a14.92,14.92,0,0,0-12.18.33c-6.82,3.12-13.66,6.2-20.48,9.3-8.6,3.91-11.48,10.82-7.93,19.67,2.07,5.16,4.5,10.17,6.8,15.23q27,59.37,54.06,118.7a25,25,0,0,0,5.86,7.93,11.34,11.34,0,0,0,13.08,1.93c7.22-3.32,14.47-6.57,21.7-9.87,9.09-4.16,12.48-13.12,8.36-22.23q-13.21-29.18-26.48-58.33Q336.59,684.68,320,648.07C317.88,643.48,314.83,640.06,310.43,638.6Z"/><path class="cls-10" d="M525.15,573.78a14.48,14.48,0,0,0-11.1.39c-4.12,1.73-8.25,3.5-12.2,5.56-8.79,4.6-11.06,11.37-7,20.25l36.66,80.72c3.2,7,8.68,10.27,16.2,8a79.15,79.15,0,0,0,17.94-8.05c6.24-3.78,7.49-9.71,4.49-16.32-12.65-27.93-25.3-55.86-38.16-83.7-1.3-2.82-4-5-6.07-7.48Z"/><path class="cls-10" d="M320.71,786.57c-.48-3-.31-6.4-1.54-9.14Q300.3,735.3,281,693.35c-2.67-5.84-8.26-8.83-15-6.77A85.4,85.4,0,0,0,247.18,695c-5.76,3.45-6.94,9.73-4.16,15.87q18.9,41.75,37.89,83.45c3.09,6.8,8.37,9.83,15.43,7.57a98.87,98.87,0,0,0,17.86-8.25C316.65,792.3,318.22,789.38,320.71,786.57Z"/><path class="cls-13" d="M561.09,643.76c5.44-2.41,11.46-4.83,17.24-7.72,4.46-2.22,5.94-6.53,5-11.06-1.74-8.46-5.07-16.36-10.86-22.88-4.05-4.57-8.32-5.12-13.88-2.62l-14.82,6.61Z"/><path class="cls-13" d="M270.67,772l-16.92-37c-6.13,2.54-12.56,4.8-18.58,7.86-3.58,1.83-4.4,6-4,9.69,1,9.05,4.84,17.08,10.39,24.13,3.41,4.33,8,4.9,13,2.66C260,776.94,265.33,774.46,270.67,772Z"/><path class="cls-3" d="M780.05,602.44,719.29,619l-12.61-46.25,60.77-16.56Z"/><rect class="cls-3" x="712.61" y="569.11" width="21.31" height="47.94" transform="translate(-130.5 211.06) rotate(-15.25)"/><rect class="cls-6" x="733.34" y="563.23" width="21.7" height="47.94" transform="translate(-128.22 216.36) rotate(-15.25)"/><path class="cls-3" d="M818.13,742.15l-60.77,16.56-12.5-45.86,60.77-16.56Z"/><rect class="cls-3" x="750.74" y="709.21" width="21.31" height="47.53" transform="translate(-165.95 226.01) rotate(-15.25)"/><rect class="cls-6" x="771.47" y="703.34" width="21.7" height="47.53" transform="translate(-163.67 231.31) rotate(-15.25)"/><path class="cls-3" d="M798.23,611.53c-2.07-7.58-8.74-11.39-16.35-9.32q-33.58,9.13-67.17,18.31c-7.61,2.08-11.42,8.74-9.35,16.33q9,33.25,18.12,66.5c2.12,7.75,8.73,11.52,16.51,9.41q16.72-4.53,33.46-9.11c11.24-3.07,22.48-6.11,33.71-9.2,7.44-2,11.28-8.74,9.26-16.17Q807.35,644.91,798.23,611.53Z"/><path class="cls-3" d="M816.42,678.28c2,7.43-1.82,14.13-9.26,16.17-11.23,3.09-22.47,6.13-33.71,9.2s-22.31,6.09-33.46,9.11c-7.78,2.11-14.39-1.66-16.51-9.41q-9.08-33.24-18.12-66.5c-2.07-7.59,1.74-14.25,9.35-16.33q33.59-9.16,67.17-18.31c7.61-2.07,14.28,1.74,16.35,9.32Q807.33,644.91,816.42,678.28Z"/><path class="cls-6" d="M809.46,710.37l-64.6,2.48,60.77-16.56Z"/><path class="cls-3" d="M841,255q-1.66-15.9-3.32-31.81l-84.84-29.65-21.37,22.2L667.68,397l111.21,36.49Z"/><path class="cls-4" d="M870.29,172.23l-30.89-21.1-.11,0,8.92-25.51.47-1.36-43.13-15.07-.47,1.36-9,25.73-36.38-2.67Z"/><path class="cls-3" d="M867.28,173.17,762.66,136.6l-6.57,16.68,105.7,36.95-105.7-36.95q-3.87,9.81-7.73,19.61l107,37.41Z"/><path class="cls-11" d="M861.79,190.23l-105.7-36.95"/><path class="cls-3" d="M752.75,185.28l.06.11a9.05,9.05,0,0,1,.71,5.35,9.37,9.37,0,0,1-.65,2.81l84.84,29.65a9.54,9.54,0,0,1,1.24-2.6,9.08,9.08,0,0,1,3.89-3.74l.11-.05a33.07,33.07,0,0,1,11.7-4.27l.72-2.24-107-37.41-1.14,2.91A31.49,31.49,0,0,1,752.75,185.28Z"/><path class="cls-14" d="M770.09,199.42l-17.23-5.87-21.37,22.2L667.68,397l77.37-176.2Z"/></svg>