<svg id="Layer_1" data-name="Layer 1" xmlns="http://www.w3.org/2000/svg" viewBox="0 0 1125 905.38"><defs><style>.cls-1,.cls-4{fill:#4f008c;}.cls-2{fill:#fff;}.cls-2,.cls-4,.cls-5,.cls-6,.cls-8{stroke:#4f008c;}.cls-2,.cls-4,.cls-5,.cls-6,.cls-7,.cls-8{stroke-miterlimit:10;stroke-width:2px;}.cls-3,.cls-5,.cls-7{fill:#eef0f1;}.cls-6{fill:#ff6a39;}.cls-7{stroke:#fff;}.cls-8{fill:none;}</style></defs><title>Walk &amp;amp; Talk</title><path class="cls-1" d="M464.65,541.69l-6.57,17.08,8.55,14.72a24.2,24.2,0,0,0,5.18-14.58A24.68,24.68,0,0,0,464.65,541.69Z"/><path class="cls-2" d="M525.47,344.58c2.62,1,11.15,3.92,18.16-.29a14.57,14.57,0,0,0,2.34-1.74,14.15,14.15,0,0,1-8.36-4.46c-2.3-2.68-3.79-6.75-2.68-7.71.94-.81,3.19,1.07,7.16,2.68A32.09,32.09,0,0,0,554,335.4c9.14.9,16.11,6.64,17.31,13.56a15.1,15.1,0,0,1-2.07,10,84.79,84.79,0,0,1-43.63-1.21c-4-1.37-6-5.24-5.19-8.47A7,7,0,0,1,525.47,344.58Z"/><path class="cls-2" d="M740.73,278.36l-74.4,54.29-99.68,4.88a18.34,18.34,0,0,0-1.41,11.34,18.7,18.7,0,0,0,7.77,11.5l99.73,4.68,96-42.43c11.57-7.76,15.59-22.44,10.3-33.59C772.86,276,755.07,270.1,740.73,278.36Z"/><path class="cls-3" d="M478.85,394.27a12.26,12.26,0,0,1-2.6-.27c-7.17-1.51-13.65-10.31-16.65-22.51,2.08-1,4.19-2,6.3-2.88,1.68-.71,3.39-1.39,5.11-2l.95-.35-4.68-12.1a16.13,16.13,0,0,0,5,.83,13.83,13.83,0,0,0,6.61-1.64,14.55,14.55,0,0,0,6.5-7.26l7.24,14.3,16-2.48c-.41,1.94-1.05,4.87-1.92,8.35a47.6,47.6,0,0,1-12.5,20.82C489.34,391.64,483.73,394.27,478.85,394.27Z"/><path class="cls-1" d="M485.44,348.29l6,11.88.66,1.29,1.43-.22,8.09-1.25,5.77-.9c-.4,1.82-.93,4.17-1.59,6.84-5.52,17.76-18,27.34-27,27.34a11.77,11.77,0,0,1-2.4-.25c-6.64-1.4-12.7-9.57-15.68-21,1.82-.88,3.67-1.72,5.52-2.5,1.67-.71,3.37-1.38,5.06-2l1.91-.7-.74-1.9-2-5.29-1.56-4a16.76,16.76,0,0,0,3.4.35,14.8,14.8,0,0,0,7.08-1.76,15.25,15.25,0,0,0,6-5.91m-.2-4.82a14,14,0,0,1-6.78,9,12.87,12.87,0,0,1-6.14,1.52,15.48,15.48,0,0,1-6.82-1.63l5.16,13.32q-2.51.92-5.15,2c-2.51,1.06-4.86,2.16-7.06,3.26,2.72,11.79,9.18,22.25,17.59,24a13.59,13.59,0,0,0,2.81.29c10.1,0,23.17-10.36,28.88-28.8,1-4.06,1.76-7.51,2.22-9.8l-16.71,2.6-8-15.8Z"/><path class="cls-3" d="M420.91,602.12l4.73-192c2-17.87,14-29.36,24.42-30.1.37,0,.75,0,1.14,0,6.11,0,12.87,3.45,18.08,9.22,7.07,7.83,10.47,18.81,9.32,30.11L431.53,610.41Z"/><path class="cls-1" d="M451.2,381c5.83,0,12.32,3.32,17.34,8.89,6.87,7.61,10.17,18.27,9.08,29.27L454.29,513.8l-23.37,94.87-3.75-2.94-5.25-4.09,2.69-109,2-82.42a38.83,38.83,0,0,1,8.63-20.64c4.33-5.08,9.74-8.21,14.87-8.57.35,0,.71,0,1.07,0m0-2c-.41,0-.81,0-1.21,0-11.48.82-23.41,13.55-25.35,31.08l-4.74,192.5,12.23,9.56,47.46-192.67C482,395.85,465.26,379,451.2,379Z"/><path class="cls-3" d="M413,626c-.92,0-1.91,0-2.93-.13-9.77-.84-10.05-9.09-10-10.73.1-3.5,6.13-19,8.54-24.9a8.27,8.27,0,0,1,6-2.64,8.86,8.86,0,0,1,7,3.7c2.77,3.64,3.33,9.07,1.59,15.3-.44,1.59-.94,3.12-1.43,4.61-1.23,3.8-2.3,7.08-2.07,10a4.35,4.35,0,0,1-3.87,4.65A24.62,24.62,0,0,1,413,626Z"/><path class="cls-1" d="M414.55,588.64a7.9,7.9,0,0,1,6.23,3.3c2.57,3.39,3.07,8.51,1.42,14.43-.44,1.57-.94,3.09-1.42,4.57-1.27,3.9-2.37,7.27-2.12,10.37a3.35,3.35,0,0,1-3,3.58A22.59,22.59,0,0,1,413,625c-.89,0-1.85,0-2.84-.13-8.88-.76-9.13-8.22-9.1-9.7.08-3,5.13-16.36,8.4-24.37a7.22,7.22,0,0,1,5.11-2.2m0-2a9.24,9.24,0,0,0-6.82,3.09s-8.57,20.93-8.68,25.42,2.24,11,10.92,11.75c1.1.09,2.1.14,3,.14a25,25,0,0,0,2.92-.16,5.36,5.36,0,0,0,4.75-5.72c-.3-3.81,1.92-8.68,3.47-14.25,3.62-12.92-3-20.27-9.57-20.27Z"/><path class="cls-2" d="M764.67,680q1.77,19,3.55,37.93a13,13,0,0,1-9.55,9.35c-9.17,2.21-24.74,5.84-35.6,7.77-.17,0-.61.13-.76-.08-1.19-1.6,21.1-13.53,24.29-30.51.92-4.88.47-11.31-3.94-19.48Z"/><polygon class="cls-4" points="746.59 705.33 752.16 715.06 733.86 714.79 746.59 705.33"/><path class="cls-5" d="M772.06,726.61s4.33-9.79-2.09-15.86a2.88,2.88,0,0,0-3.75-.08l-1.77,1.48c-2.81,2.34-8.49,2.5-11.78.84l-2.4-1.2a13.17,13.17,0,0,0-12.89.64l-17.09,10.85-5.8,2.09a17.74,17.74,0,0,0-7.78,12l63.48-2.5h0a5.29,5.29,0,0,0,3.09-3.38A5.42,5.42,0,0,0,772.06,726.61Z"/><line class="cls-5" x1="772.06" y1="726.61" x2="761.46" y2="727.23"/><line class="cls-5" x1="736.41" y1="713.02" x2="741.52" y2="720.26"/><line class="cls-5" x1="730.98" y1="716.34" x2="735.58" y2="722.93"/><line class="cls-5" x1="725.54" y1="719.67" x2="729.64" y2="725.59"/><line class="cls-5" x1="720.11" y1="722.99" x2="723.7" y2="728.25"/><path class="cls-2" d="M876.81,676.72q1.79,19,3.56,37.94a13.05,13.05,0,0,1-9.56,9.34c-9.17,2.21-24.74,5.85-35.6,7.78-.17,0-.6.12-.75-.08-1.2-1.61,21.09-13.53,24.28-30.51.92-4.88.47-11.31-3.93-19.48Z"/><path class="cls-3" d="M725.66,588.92a170.34,170.34,0,0,1,11.43-81.19c22.56-55.86,35.64-88.13,37.08-91.46l71.57-38.56,3,21.77a47.25,47.25,0,0,1-6.65,31.41L762,559.76l10.49,131.46-35.19,9.38Z"/><path class="cls-1" d="M845,379.28l2.09,15,.75,5.36a46.22,46.22,0,0,1-6.51,30.74l-38.22,61.49L761.35,559l-.35.56,0,.66L766.31,626l5.14,64.45-29.06,7.76-4.19,1.12L726.66,588.81A169.18,169.18,0,0,1,738,508.11c28.67-71,35.64-88.06,36.94-91.13l35.56-19.16L845,379.28m1.59-3.13-73.14,39.4c-.52.94-21.77,53.5-37.24,91.81A170.67,170.67,0,0,0,724.67,589l11.78,112.85,37.12-9.9q-5.27-66-10.52-132L843,431.41a48.15,48.15,0,0,0,6.79-32.07q-1.62-11.59-3.23-23.19Z"/><path class="cls-3" d="M817.52,600.51a170.36,170.36,0,0,1-10-81.35c7.28-59.81,11.54-94.37,12.06-98l59.11-55.81,8.58,20.23A47.22,47.22,0,0,1,889,417.68L845.08,562.93l44.13,123.9-33.88,6.08Z"/><path class="cls-1" d="M878.3,367.1l4.47,10.54,3.55,8.38a46.25,46.25,0,0,1,1.7,31.37l-24.78,82-19,63L844,563l.22.62L867,627.5l20.86,58.55-15.6,2.8L856,691.78l-19.33-47.25-18.16-44.36a169.36,169.36,0,0,1-10-80.89c7.1-58.28,11.32-92.61,12-97.59l28.58-27L878.3,367.1m.72-3.43-60.4,57c-.26,1-7.13,57.32-12.12,98.33a170.59,170.59,0,0,0,10.1,81.85L854.71,694l35.84-6.44q-22.21-62.34-44.42-124.7L889.93,418a48.21,48.21,0,0,0-1.76-32.74L879,363.67Z"/><path class="cls-2" d="M699.65,215.54a54.59,54.59,0,0,0,7,27.67c3.4,5.94,9.27,16.17,17.29,16.19,10.15,0,20.91-16.32,18-27.95C739,219.62,721.1,210.13,699.65,215.54Z"/><path class="cls-2" d="M771,249.48l-24.27-21-15,16.25Q739.86,256,748,267.21a17.88,17.88,0,0,0,18.27-4.15C771.5,257.67,771.09,250.62,771,249.48Z"/><path class="cls-4" d="M746.74,228.47A28.37,28.37,0,0,0,745,215.15c-.74-1.89-4.92-12.53-15.6-15.6-8.72-2.5-18.62.94-25.13,8.67-3.72.93-6.52,3.37-6.93,6.24-.37,2.57,1.29,4.78,2.25,6.07,1.6,2.13,2.75,2.37,5.9,4.68s9.55,7.65,11.87,8.35a24.05,24.05,0,0,0,2.77-.1h0l1.37-.65a4.09,4.09,0,0,1-.29-3.42c1.1-2.2,5.4-2.54,7.39-.72s2,5.86-.9,8.83q2,3.62,4.1,7.22l14.59-5.82Z"/><path class="cls-2" d="M517.87,411.45c1,25.91,50,22.31,70.39,5.58-16.66-28.82-23.57-59.27-58.2-61.06-.83,0-1.7-.07-2.59-.09C524.1,366.27,517.07,390.72,517.87,411.45Z"/><path class="cls-3" d="M546.49,446.31c-7.39-.05-12.25-3.85-19.6-9.6a150,150,0,0,0-16-11.3,134.39,134.39,0,0,0-39.77-15.85c20.06-1.53,31.7-6.48,35.5-15a22,22,0,0,0,1.53-6.83,52.73,52.73,0,0,1,1.7-9.24,59.59,59.59,0,0,1,11.35-21.57c1.09-.05,2.19-.08,3.28-.08a59.26,59.26,0,0,1,24.16,5c30.63,13.56,37.65,49.46,38.56,55-3.25,5.6-18.42,29.48-40.53,29.48Z"/><path class="cls-1" d="M524.49,357.81a58.36,58.36,0,0,1,23.76,4.89c29.57,13.09,36.8,47.43,37.92,53.94A80.79,80.79,0,0,1,574.24,432c-8.86,8.81-18.13,13.28-27.57,13.28h-.17c-7-.05-11.8-3.76-19-9.39a151.92,151.92,0,0,0-16.1-11.37A134.4,134.4,0,0,0,477,410c16.93-2.05,27-7,30.54-15a22.66,22.66,0,0,0,1.6-7.13,51.35,51.35,0,0,1,1.68-9.08,58.4,58.4,0,0,1,10.87-20.86c.93,0,1.87-.06,2.79-.06m0-2c-1.34,0-2.6,0-3.78.11a61,61,0,0,0-11.81,22.27c-2.29,8.19-1.29,11.68-3.18,15.93-2.93,6.6-12.32,13.95-42.68,14.86a135.29,135.29,0,0,1,47.34,17.28c18,10.83,23.86,21,36.1,21.05h.19c23.78,0,39.63-26.86,41.59-30.28-.61-3.9-7.1-41.95-39.2-56.16a60.46,60.46,0,0,0-24.57-5.06Z"/><path class="cls-1" d="M571.06,503.05c-3.29,0-6.62-.07-9.91-.19a260.91,260.91,0,0,1-51.77-7.27l-17.66-32.12-.31-.14c-10.78-4.82-30.6-16.46-42.22-40.29a84.29,84.29,0,0,1-8.33-39.43,54.49,54.49,0,0,1,17.05-11.36c1.84,4.13,6.25,11.93,14,13.73a15.39,15.39,0,0,0,3.42.38c10.09,0,22.95-9.65,27.17-27.54A103.94,103.94,0,0,1,519.27,357c1,0,1.94,0,2.89,0a105.23,105.23,0,0,1,11.76.67c-4.48,5.21-15.51,20-11.56,35.31,4.2,16.31,23.52,28.15,45.94,28.15a69.72,69.72,0,0,0,19.59-2.88c7.61,9.71,15.21,19.62,22.59,29.46,11.1,14.81,22.12,30,32.77,45.2A261.85,261.85,0,0,1,571.06,503.05Z"/><path class="cls-1" d="M522.16,357.93c3.26,0,6.55.16,9.8.47a61.82,61.82,0,0,0-6.42,9.72c-4.73,8.93-6.13,17.36-4.15,25,4.31,16.75,24,28.9,46.91,28.9a70.65,70.65,0,0,0,19.22-2.73c7.46,9.53,14.91,19.25,22.16,28.91,10.82,14.43,21.56,29.23,31.94,44a260.35,260.35,0,0,1-70.56,9.79c-3.28,0-6.6-.07-9.87-.19a258.92,258.92,0,0,1-51.14-7.14l-8.3-15.09-9-16.35-.32-.59-.61-.27c-10.66-4.77-30.25-16.27-41.73-39.82A83.09,83.09,0,0,1,441.85,384a53.81,53.81,0,0,1,15.56-10.49c2.12,4.44,6.64,11.63,14.27,13.4a16.12,16.12,0,0,0,3.64.41c10.36,0,23.5-9.69,28-27.68a102.32,102.32,0,0,1,16-1.71c1,0,1.91,0,2.86,0m0-2c-.95,0-1.93,0-2.92,0a104.38,104.38,0,0,0-17.58,2c-3.85,17.37-16.24,27.4-26.34,27.4a14.05,14.05,0,0,1-3.19-.36c-8.5-2-12.81-11.93-13.68-14.05a55.39,55.39,0,0,0-18.58,12.23,85.19,85.19,0,0,0,8.43,40.3c12.84,26.34,35.62,37.6,42.7,40.76l17.72,32.22a261.15,261.15,0,0,0,52.39,7.4q5.05.19,9.95.19a262.68,262.68,0,0,0,73.81-10.64q-16-22.86-33.59-46.37-11.53-15.37-23-30a68.89,68.89,0,0,1-20,3c-23.07,0-41.13-12.49-45-27.4-4.41-17.12,10.82-33.89,12.62-35.82a105.12,105.12,0,0,0-13.78-.91Z"/><path class="cls-2" d="M618.52,575A49.91,49.91,0,0,1,574,562.26c.53-3.08,4.62-24.68,23.62-34,2.35-1.15,17.44-8.24,25.67-1.88C632.07,533.21,632.09,553.39,618.52,575Z"/><path class="cls-3" d="M434,712.69,405.47,564c-.62-9.42-.26-32.83,16.32-48.19,9.49-8.79,20.67-11.25,32.5-13.85a132.53,132.53,0,0,1,28.33-3,145.92,145.92,0,0,1,31.27,3.46l73.91,38.23L453.15,566.49l-1.73,151.26Z"/><path class="cls-1" d="M482.62,497.94v2a145.27,145.27,0,0,1,30.93,3.4l38.35,19.85,32.87,17-63.72,12.24-67.28,12.93-1.61.3,0,1.64-.49,42.63-1.21,106.5-6.95-2-8.6-2.5-14.28-74.38-14.15-73.64c-.61-9.31-.22-32.29,16-47.33,9.29-8.6,19.83-10.92,32-13.6a131.22,131.22,0,0,1,28.12-3v-2m0,0A132,132,0,0,0,454.08,501c-12.78,2.8-23.48,5.29-33,14.09-18.14,16.8-17.05,42.89-16.63,49l28.68,149.34,19.25,5.6q.85-75.89,1.73-151.76l136.68-26.26-76.59-39.61a146.32,146.32,0,0,0-31.61-3.51Z"/><path class="cls-2" d="M454.08,501a77.47,77.47,0,0,1,14.32,27.53,78.72,78.72,0,0,1-.52,44s24.06-.63,49.43-2.93c34.46-3.12,51.68-4.78,57.25-12.93,8.9-13-3.92-40.57-27.32-67.52Z"/><path class="cls-2" d="M457.77,333c-8.85-6.7-12.06-17-8.68-24,2.94-6.14,10.06-8.16,11.37-8.53,8.5-2.41,15.53,1.71,16.79,2.49a16.56,16.56,0,0,1,15.85,13.59c2.36,9,.06,19.7-3.12,20.14-.58.09-1.55-.13-3-2Z"/><path class="cls-3" d="M470.13,357.69a11.51,11.51,0,0,1-5.27-1.21c-4.24-2.17-5.59-6.56-8-14.53-2.81-9.13-4.83-15.73-1.28-21.34A14.47,14.47,0,0,1,466.79,314l.69,0c6.65,0,10.88,5,11.63,5.91l1.71,4.15,1-.59a4.28,4.28,0,0,1,2.21-.65c2.86,0,4.59,3.08,4.67,3.21a7.58,7.58,0,0,1-.83,7.82l-.19.28.48,8.2a19,19,0,0,1-8.42,12.56A20.51,20.51,0,0,1,470.13,357.69Z"/><path class="cls-1" d="M467.48,315c6,0,9.88,4.34,10.76,5.42l.67,1.62.55,1.33.88,2.13,2-1.17a3.31,3.31,0,0,1,1.74-.51c2.24,0,3.74,2.67,3.75,2.7a6.57,6.57,0,0,1-.77,6.76l-.39.57,0,.68.45,7.73A17.9,17.9,0,0,1,479.22,354a19.36,19.36,0,0,1-9.09,2.7,10.55,10.55,0,0,1-4.82-1.1c-3.86-2-5.08-6-7.53-13.94-2.72-8.87-4.69-15.28-1.39-20.5A13.46,13.46,0,0,1,466.84,315l.64,0m0-2-.74,0a15.47,15.47,0,0,0-12,7.1c-3.79,6-1.67,12.9,1.17,22.16,2.51,8.18,3.92,12.77,8.53,15.13a12.51,12.51,0,0,0,5.73,1.32,21.35,21.35,0,0,0,10.13-3c7.2-4.4,8.68-12.1,8.9-13.35-.16-2.66-.31-5.32-.47-8a8.49,8.49,0,0,0,.88-8.87c-.14-.26-2.12-3.73-5.5-3.73H484a5.42,5.42,0,0,0-2.71.79L480,319.36c-.43-.56-5-6.4-12.5-6.4Z"/><path class="cls-3" d="M601.12,716a775.5,775.5,0,0,0-36.67-73.07c-6.07-10.68-11.53-19.68-16.34-27.62-15.15-25-23.49-38.75-21.56-56.73,2.09-19.6,15.73-38.34,40.54-55.71L600.88,504l44,36.19-59,29,32.75,143.21Z"/><path class="cls-1" d="M567.39,503.85l22.31.78,10.81.37L623,523.56,643,540l-27.06,13.32L586.09,568l-1.42.7.35,1.54,17.29,75.57,15.06,65.86-15.65,3.16a776.79,776.79,0,0,0-36.4-72.42c-6.08-10.69-11.54-19.7-16.36-27.65-15.52-25.6-23.31-38.46-21.42-56.1C529.6,539.43,543,521,567.39,503.85m-.6-2c-33.35,23.26-39.93,44.41-41.24,56.62-2.57,24,12.43,40,38,84.95a770.52,770.52,0,0,1,36.95,73.71l19.25-3.89Q603.37,641.5,587,569.79l59.69-29.37L601.25,503l-34.46-1.19Z"/><path class="cls-2" d="M641.48,489.45c-11.77-11.9-31-15.27-48.83-8.78l-37.37,18.71A73,73,0,0,1,581,506.09a70.2,70.2,0,0,1,22.94,17c17.33,20.06,15.23,46.11,14.62,51.93L650,540.73a49.7,49.7,0,0,0,3.64-16.82C653.76,519.7,653.86,502,641.48,489.45Z"/><rect class="cls-2" x="157.55" y="607.68" width="61.35" height="7.92" rx="2.22"/><path class="cls-2" d="M203.8,541.76c-17.3,0-31.32,31.29-31.32,69.88s14,69.89,31.32,69.89c1,0,19.37-.35,19.37-.35V541.76Z"/><path class="cls-3" d="M226.27,680.53c-16.72,0-30.32-30.91-30.32-68.89s13.6-68.88,30.32-68.88,30.32,30.9,30.32,68.88S243,680.53,226.27,680.53Z"/><path class="cls-1" d="M226.27,543.76c7.42,0,14.83,7,20.32,19.29,5.81,12.94,9,30.2,9,48.59s-3.19,35.65-9,48.6c-5.49,12.26-12.9,19.29-20.32,19.29s-14.83-7-20.32-19.29c-5.8-13-9-30.21-9-48.6s3.2-35.65,9-48.59c5.49-12.26,12.9-19.29,20.32-19.29m0-2C209,541.76,195,573.05,195,611.64s14,69.89,31.32,69.89,31.32-31.29,31.32-69.89-14-69.88-31.32-69.88Z"/><path class="cls-2" d="M238.61,541.76c-17.3,0-31.32,31.29-31.32,69.88s14,69.89,31.32,69.89c1,0,19.37-.35,19.37-.35V541.76Z"/><ellipse class="cls-3" cx="261.08" cy="611.64" rx="30.32" ry="68.88"/><path class="cls-1" d="M261.08,543.76c7.42,0,14.83,7,20.32,19.29,5.8,12.94,9,30.2,9,48.59s-3.2,35.65-9,48.6c-5.49,12.26-12.9,19.29-20.32,19.29s-14.83-7-20.32-19.29c-5.8-13-9-30.21-9-48.6s3.2-35.65,9-48.59c5.49-12.26,12.9-19.29,20.32-19.29m0-2c-17.3,0-31.32,31.29-31.32,69.88s14,69.89,31.32,69.89,31.32-31.29,31.32-69.89-14-69.88-31.32-69.88Z"/><path class="cls-2" d="M268.6,607.68H696.54a0,0,0,0,1,0,0v7.92a0,0,0,0,1,0,0H268.6a2.22,2.22,0,0,1-2.22-2.22v-3.47A2.22,2.22,0,0,1,268.6,607.68Z"/><path class="cls-2" d="M685.3,541.76C668,541.76,654,573.05,654,611.64s14,69.89,31.32,69.89c1.05,0,19.37-.35,19.37-.35V541.76Z"/><path class="cls-3" d="M707.78,680.53c-16.72,0-30.32-30.91-30.32-68.89s13.6-68.88,30.32-68.88,30.32,30.9,30.32,68.88S724.49,680.53,707.78,680.53Z"/><path class="cls-1" d="M707.78,543.76c7.42,0,14.82,7,20.32,19.29,5.8,12.94,9,30.2,9,48.59s-3.2,35.65-9,48.6c-5.5,12.26-12.9,19.29-20.32,19.29s-14.83-7-20.33-19.29c-5.8-13-9-30.21-9-48.6s3.19-35.65,9-48.59c5.5-12.26,12.9-19.29,20.33-19.29m0-2c-17.3,0-31.32,31.29-31.32,69.88s14,69.89,31.32,69.89,31.32-31.29,31.32-69.89-14-69.88-31.32-69.88Z"/><path class="cls-2" d="M720.11,541.76c-17.3,0-31.32,31.29-31.32,69.88s14,69.89,31.32,69.89c1,0,19.37-.35,19.37-.35V541.76Z"/><path class="cls-3" d="M742.58,680.53c-16.72,0-30.32-30.91-30.32-68.89s13.6-68.88,30.32-68.88,30.32,30.9,30.32,68.88S759.3,680.53,742.58,680.53Z"/><path class="cls-1" d="M742.58,543.76c7.42,0,14.83,7,20.32,19.29,5.81,12.94,9,30.2,9,48.59s-3.19,35.65-9,48.6c-5.49,12.26-12.9,19.29-20.32,19.29s-14.83-7-20.32-19.29c-5.8-13-9-30.21-9-48.6s3.2-35.65,9-48.59c5.49-12.26,12.9-19.29,20.32-19.29m0-2c-17.3,0-31.32,31.29-31.32,69.88s14,69.89,31.32,69.89,31.32-31.29,31.32-69.89-14-69.88-31.32-69.88Z"/><path class="cls-4" d="M743.16,595.42c-4,0-7.27,7.26-7.27,16.22s3.26,16.23,7.27,16.23l21.52-.08V595.42Z"/><path class="cls-2" d="M772.67,611.64c0,9-3.25,16.23-7.27,16.23s-7.27-7.27-7.27-16.23,3.26-16.22,7.27-16.22S772.67,602.68,772.67,611.64Z"/><rect class="cls-2" x="763.96" y="607.68" width="61.35" height="7.92" rx="2.22"/><path class="cls-5" d="M579.61,407.1q-22.47,91.06-44.87,182.15c2.52,3.25,3.84,8.37,2.55,15.24-1.08,5.69-2.88,10.74-2.24,14.5a5.36,5.36,0,0,1-4.26,6.1,30,30,0,0,1-5.91.53c-8.72,0-11.62-6.28-11.89-10.78s6.51-26.05,6.51-26.05a6.37,6.37,0,0,1,.46-.55q2.34-95.25,4.7-190.54"/><path class="cls-2" d="M746,265.59a26.64,26.64,0,0,1,1.1-10.43c3.26-10.24,11.95-15.1,14.24-16.29l10.33,9q2.8.21,5.76.32c2.88.12,5.67.15,8.34.13a33.28,33.28,0,0,1,4.9,1.21,114.8,114.8,0,0,1,10.6,5.12c7.63,4.2,32.55,19.06,63.29,75.79a424.59,424.59,0,0,1,23.7,51.79,87.88,87.88,0,0,1-30.09,31c-39.84,24.15-84.73,5.24-90.09,2.88C765.86,371.8,755.9,345,746.65,328.3c-3.64-6.55-13.39-22.74-10-41.7A50.07,50.07,0,0,1,746,265.59Z"/><polygon class="cls-4" points="858.9 706.11 864.37 715.9 846.07 715.44 858.9 706.11"/><path class="cls-5" d="M884.14,727.67s4.44-9.75-1.92-15.88a2.86,2.86,0,0,0-3.74-.13l-1.79,1.47c-2.84,2.31-8.52,2.4-11.79.71l-2.39-1.23a13.16,13.16,0,0,0-12.89.5l-17.21,10.66-5.82,2a17.68,17.68,0,0,0-4.45,4.06,17.89,17.89,0,0,0-3.46,7.83l63.51-1.81h0a5.33,5.33,0,0,0,3.12-3.35A5.41,5.41,0,0,0,884.14,727.67Z"/><line class="cls-5" x1="884.14" y1="727.67" x2="873.54" y2="728.17"/><line class="cls-5" x1="848.64" y1="713.69" x2="853.67" y2="720.99"/><line class="cls-5" x1="843.17" y1="716.96" x2="847.71" y2="723.59"/><line class="cls-5" x1="837.71" y1="720.22" x2="841.74" y2="726.19"/><line class="cls-5" x1="832.24" y1="723.49" x2="835.77" y2="728.79"/><polygon class="cls-4" points="597.19 705.02 602.64 715.38 583.55 714.43 597.19 705.02"/><path class="cls-6" d="M623,728.18s4.89-10.06-1.59-16.63a3,3,0,0,0-3.9-.22l-1.91,1.48c-3,2.34-9,2.29-12.32.44l-2.46-1.35a13.75,13.75,0,0,0-13.47.19l-18.24,10.69-6.12,2a18.35,18.35,0,0,0-4.76,4.13,18.81,18.81,0,0,0-3.81,8.08l66.33-.25h0a5.29,5.29,0,0,0,2.25-8.53Z"/><line class="cls-7" x1="622.97" y1="728.18" x2="611.9" y2="728.43"/><line class="cls-5" x1="586.28" y1="712.67" x2="591.35" y2="720.42"/><line class="cls-5" x1="580.49" y1="715.94" x2="585.05" y2="722.98"/><line class="cls-5" x1="574.7" y1="719.21" x2="578.75" y2="725.54"/><line class="cls-5" x1="568.91" y1="722.47" x2="572.46" y2="728.1"/><polygon class="cls-4" points="431.03 705.05 436.45 714.86 418.15 714.31 431.03 705.05"/><path class="cls-6" d="M456.16,726.73s4.49-9.72-1.84-15.89a2.86,2.86,0,0,0-3.74-.14l-1.8,1.45c-2.84,2.3-8.53,2.36-11.79.66l-2.38-1.25a13.2,13.2,0,0,0-12.9.44l-17.26,10.58-5.83,2a17.74,17.74,0,0,0-4.47,4,17.92,17.92,0,0,0-3.5,7.81l63.52-1.5h0a5.28,5.28,0,0,0,3.14-3.33A5.42,5.42,0,0,0,456.16,726.73Z"/><line class="cls-7" x1="456.16" y1="726.73" x2="445.56" y2="727.18"/><line class="cls-5" x1="420.73" y1="712.58" x2="425.73" y2="719.9"/><line class="cls-5" x1="415.25" y1="715.82" x2="419.75" y2="722.47"/><line class="cls-5" x1="409.77" y1="719.05" x2="413.77" y2="725.04"/><line class="cls-5" x1="404.28" y1="722.29" x2="407.79" y2="727.61"/><path class="cls-2" d="M590.81,445.48c2.8-.11,11.78-.81,16.56-7.44a13.78,13.78,0,0,0,1.46-2.53,14.08,14.08,0,0,1-9.44-.8c-3.17-1.54-6.15-4.69-5.51-6,.54-1.12,3.35-.28,7.64-.37a32.33,32.33,0,0,0,11.82-2.54c8.76-2.78,17.43-.27,21.27,5.61a15.17,15.17,0,0,1,2.06,10c-1.91,2.34-20.35,24.46-36.71,19.91-1-.29-11.49-3.31-12-9.51C587.79,449.19,589.46,446.9,590.81,445.48Z"/><path class="cls-5" d="M407.52,607.56a23.49,23.49,0,0,0-.06-3c-.22,0,.3,16.24-2.17,16.7-1.6.3-4.55-5.93-9.5-22.19l11.42-4.92"/><path class="cls-1" d="M790,314l-29,51.69q-3.09-10-6.17-20Z"/><path class="cls-2" d="M744.11,288.75l-39,83.42-85,52.31a18.35,18.35,0,0,0,4.23,10.61,18.74,18.74,0,0,0,12.35,6.34l89.65-44L790,314c6.4-12.38,2.84-27.17-7.16-34.4C771.13,271.18,752.71,274.6,744.11,288.75Z"/><path class="cls-1" d="M818.72,425.74l-49.73.52,4.1-6.79Z"/><line class="cls-8" x1="604.46" y1="452.31" x2="592.94" y2="458.31"/><line class="cls-8" x1="606.19" y1="457.8" x2="599.96" y2="461.34"/><line class="cls-8" x1="520.38" y1="349.3" x2="534.89" y2="352.84"/><line class="cls-8" x1="126.63" y1="737.34" x2="938.13" y2="737.34"/></svg>