<svg id="Layer_1" data-name="Layer 1" xmlns="http://www.w3.org/2000/svg" viewBox="0 0 1125 905.38"><defs><style>.cls-1{fill:#eef0f1;}.cls-2,.cls-5,.cls-8{fill:#4f008c;}.cls-3,.cls-6,.cls-7,.cls-9{fill:#fff;}.cls-3,.cls-4,.cls-5,.cls-6,.cls-7,.cls-8,.cls-9{stroke:#4f008c;stroke-miterlimit:10;}.cls-3,.cls-4,.cls-5{stroke-width:2px;}.cls-4{fill:#ff6a39;}.cls-6{stroke-width:2.63px;}.cls-7,.cls-8{stroke-width:2.51px;}.cls-9{stroke-width:2.37px;}</style></defs><title>Walk &amp;amp; Talk</title><path class="cls-1" d="M529.79,324.56a3.85,3.85,0,0,1,3.83-3.84l36.13,0a3.84,3.84,0,0,1,3.83,3.83l0,40-43.78,0Z"/><path class="cls-2" d="M569.75,321.68a2.83,2.83,0,0,1,2.83,2.83l0,39-41.78,0-.05-38.95a2.84,2.84,0,0,1,2.83-2.84l36.12,0h0m0-2h0l-36.12,0a4.84,4.84,0,0,0-4.83,4.84l.05,40.95,45.78-.05,0-40.95a4.83,4.83,0,0,0-4.83-4.83Z"/><path class="cls-1" d="M515.07,342.53a1.72,1.72,0,0,1-1.72-1.71l0-29.35a1.72,1.72,0,0,1,1.71-1.72l70.64-.07a1.72,1.72,0,0,1,1.72,1.71l0,29.35a1.71,1.71,0,0,1-1.72,1.71l-70.63.08Z"/><path class="cls-2" d="M585.67,310.68a.73.73,0,0,1,.72.71l0,29.35a.71.71,0,0,1-.72.71l-70.63.08a.72.72,0,0,1-.72-.72l0-29.34a.72.72,0,0,1,.72-.72l70.63-.07h0m0-2h0l-70.64.07a2.71,2.71,0,0,0-2.71,2.72l0,29.35a2.71,2.71,0,0,0,2.72,2.71h0l70.63-.08a2.72,2.72,0,0,0,2.72-2.72l0-29.34a2.72,2.72,0,0,0-2.72-2.71Z"/><rect class="cls-3" x="680.06" y="365.97" width="14.98" height="24.46" transform="translate(392.26 -348.83) rotate(39.08)"/><path class="cls-1" d="M642.13,408.56l29-35.73a2.12,2.12,0,0,1,3-.31l21.75,17.66a2.11,2.11,0,0,1,.31,3l-29,35.73Z"/><path class="cls-2" d="M672.79,373.05h0a1.07,1.07,0,0,1,.7.25L695.24,391a1.11,1.11,0,0,1,.16,1.57l-28.39,35-23.48-19.06,28.39-35a1.13,1.13,0,0,1,.87-.41m0-2a3.12,3.12,0,0,0-2.42,1.15l-29.65,36.51,26.59,21.59L697,393.79a3.11,3.11,0,0,0-.46-4.38l-21.75-17.67a3.07,3.07,0,0,0-2-.69Z"/><rect class="cls-3" x="689.32" y="349.69" width="14.98" height="34.25" rx="2.88" transform="translate(-27.21 676.46) rotate(-50.92)"/><rect class="cls-3" x="408.32" y="365.97" width="14.98" height="24.46" transform="translate(977.02 409.64) rotate(140.92)"/><path class="cls-1" d="M407.19,393.16a2.08,2.08,0,0,1-.46-1.55,2.11,2.11,0,0,1,.77-1.43l21.75-17.66a2.12,2.12,0,0,1,3,.31l29,35.73-25,20.33Z"/><path class="cls-2" d="M430.58,373.05a1.13,1.13,0,0,1,.87.41l28.39,35-23.48,19.06-28.39-35a1.11,1.11,0,0,1,.16-1.57l21.75-17.66a1.07,1.07,0,0,1,.7-.25m0-2a3.07,3.07,0,0,0-2,.69l-21.75,17.67a3.11,3.11,0,0,0-.46,4.38l29.65,36.51,26.59-21.59L433,372.2a3.12,3.12,0,0,0-2.42-1.15Z"/><rect class="cls-3" x="399.07" y="349.69" width="14.98" height="34.25" rx="2.88" transform="translate(378.13 913.65) rotate(-129.08)"/><circle class="cls-1" cx="551.69" cy="563.65" r="201.22" transform="translate(-236.97 555.19) rotate(-45)"/><path class="cls-2" d="M551.69,363.43a199.55,199.55,0,1,1-77.94,15.73,198.93,198.93,0,0,1,77.94-15.73m0-2C440,361.43,349.47,452,349.47,563.65S440,765.86,551.69,765.86,753.9,675.33,753.9,563.65,663.37,361.43,551.69,361.43Z"/><path class="cls-3" d="M739.83,563.64A188.14,188.14,0,0,1,551.69,751.8c-103.92,0-188.15-84.24-188.15-188.16s84.23-188.15,188.15-188.15S739.83,459.73,739.83,563.64Z"/><path class="cls-4" d="M739.83,563.64a187.6,187.6,0,0,1-55.1,133.05l-133-133.05V375.49C655.6,375.49,739.83,459.73,739.83,563.64Z"/><circle class="cls-5" cx="551.69" cy="398.53" r="7.34"/><path class="cls-5" d="M559,726.32a7.34,7.34,0,1,1-7.33-7.33A7.33,7.33,0,0,1,559,726.32Z"/><path class="cls-5" d="M715.29,566.1a7.34,7.34,0,1,1,7.34-7.34A7.34,7.34,0,0,1,715.29,566.1Z"/><path class="cls-5" d="M388.08,566.1a7.34,7.34,0,1,1,7.34-7.34A7.34,7.34,0,0,1,388.08,566.1Z"/><path class="cls-5" d="M670.17,450.65a7.34,7.34,0,1,1,0-10.38A7.33,7.33,0,0,1,670.17,450.65Z"/><path class="cls-5" d="M438.74,679.69a7.34,7.34,0,1,1,0-10.38A7.33,7.33,0,0,1,438.74,679.69Z"/><path class="cls-5" d="M443.58,440.27a7.34,7.34,0,1,1-10.38,0A7.35,7.35,0,0,1,443.58,440.27Z"/><path class="cls-5" d="M672.59,674.21a7.34,7.34,0,1,1-10.38,0A7.34,7.34,0,0,1,672.59,674.21Z"/><path class="cls-5" d="M525,578.13h0a6.8,6.8,0,0,1,3-9.3L695.06,488,534.35,580.83A6.79,6.79,0,0,1,525,578.13Z"/><circle class="cls-3" cx="551.69" cy="563.65" r="15.94" transform="translate(-175.21 257.58) rotate(-22.78)"/><circle class="cls-5" cx="551.69" cy="563.65" r="7.34"/><path class="cls-3" d="M198.92,732.18a17.61,17.61,0,0,1-35-2.7,17.61,17.61,0,0,1,17.46-17.75"/><path class="cls-3" d="M186.76,729.29a5.21,5.21,0,0,1-10.42.09,5.22,5.22,0,0,1,5.17-5.26,5.23,5.23,0,0,1,5.25,5.17Z"/><path class="cls-3" d="M162.32,729.49a19.39,19.39,0,0,0,.73,5.1,5.2,5.2,0,0,1-2.73-8.76,5.08,5.08,0,0,1,2.65-1.45,19.41,19.41,0,0,0-.65,5.11Z"/><path class="cls-3" d="M235.39,709.66m-54,2.07h0a17.57,17.57,0,0,1,17.72,17.45,16.64,16.64,0,0,1-.23,3l-.22,1.27m35.08-22.14.1,10.59-33.2,9.31a16.53,16.53,0,0,0,.09-2h0a19.23,19.23,0,0,0-11.61-17.51l14.12-.12a6.81,6.81,0,0,0,10.36-.08Z"/><path class="cls-6" d="M301.5,558.24A38.08,38.08,0,0,0,242,589.42l-.21,28.41a5.49,5.49,0,0,1-1.8,4,57.71,57.71,0,0,0-18.72,42.35h0a58.25,58.25,0,0,0,61.53,58.59c29-1.58,53.09-25.53,54.86-54.52a58.05,58.05,0,0,0-19.19-46.94,1.64,1.64,0,0,1-.54-1.24l.22-30.09a38.12,38.12,0,0,0-16.62-31.75Zm-10.22,14.6a19.94,19.94,0,0,0-31.16,16.32L260,605.21a.8.8,0,0,0,.33.64.66.66,0,0,0,.58.09,61.57,61.57,0,0,1,38,.28.66.66,0,0,0,.6-.1.73.73,0,0,0,.32-.61l.12-16a19.93,19.93,0,0,0-8.7-16.62Z"/><path class="cls-6" d="M280.92,626.73a39.22,39.22,0,1,0-.58,78.44"/><path class="cls-7" d="M666.49,173.12c-.41-2.89-1-5.79-1.65-8.67a92.51,92.51,0,1,0,1.65,8.67Z"/><rect class="cls-8" x="571.95" y="93.73" width="5.07" height="184.29" transform="translate(14.16 410.87) rotate(-39.81)"/><path class="cls-7" d="M555.23,229.49a39.71,39.71,0,0,0-64.76-24.84l-5.37,4.49a92.69,92.69,0,0,0,50.9,61l5.37-4.48A39.74,39.74,0,0,0,555.23,229.49Z"/><path class="cls-7" d="M613.56,101.93l-2,1.68a39.72,39.72,0,1,0,50.9,61l2-1.69a92.68,92.68,0,0,0-50.9-61Z"/><rect class="cls-8" x="483.25" y="183.85" width="183.99" height="5.07" transform="translate(14.16 411.84) rotate(-39.84)"/><path class="cls-9" d="M820.37,655.56a6.92,6.92,0,0,1-3.1-.73l-2.42-1.2a7,7,0,0,1-3.15-9.36l24.14-48.64a7,7,0,0,1,9.36-3.15l2.42,1.2a7,7,0,0,1,3.15,9.35l-24.14,48.65a7,7,0,0,1-6.26,3.88Z"/><path class="cls-9" d="M821.89,601a3.74,3.74,0,0,0-3.36,2.08l-14.69,29.6a3.74,3.74,0,0,0-.19,2.86,3.7,3.7,0,0,0,1.88,2.17l7.55,3.74,18-36.32-7.55-3.74A3.64,3.64,0,0,0,821.89,601Z"/><path class="cls-9" d="M803.22,608.42a5.59,5.59,0,0,0-5,3.08,5.54,5.54,0,0,0,2.5,7.41L807,622l4.92-9.91-6.25-3.1A5.55,5.55,0,0,0,803.22,608.42Z"/><path class="cls-9" d="M966.4,700.29,835.55,635.36,842.17,622,973,686.94Z"/><path class="cls-9" d="M973.18,657.61a7,7,0,0,1,3.1.73l2.42,1.2a7,7,0,0,1,3.15,9.36l-24.13,48.65a7,7,0,0,1-9.36,3.15l-2.42-1.2a7,7,0,0,1-3.16-9.36l24.14-48.65a7,7,0,0,1,4-3.51A6.86,6.86,0,0,1,973.18,657.61Z"/><path class="cls-9" d="M971.66,712.15a3.76,3.76,0,0,0,3.36-2.08l14.69-29.61a3.73,3.73,0,0,0-1.69-5l-7.55-3.75-18,36.32,7.55,3.75A3.78,3.78,0,0,0,971.66,712.15Z"/><path class="cls-9" d="M990.33,704.75a5.71,5.71,0,0,0,1.77-.29,5.52,5.52,0,0,0,.69-10.19l-6.24-3.1-4.92,9.9,6.25,3.1A5.55,5.55,0,0,0,990.33,704.75Z"/><path class="cls-3" d="M852.16,648.81a38,38,0,1,0,28.66,13.27A37.36,37.36,0,0,0,852.16,648.81Z"/><path class="cls-3" d="M824.7,660.65a37.77,37.77,0,0,0,54.85,0,37.68,37.68,0,0,0-54.85,0Z"/><path class="cls-3" d="M824.7,712.65a37.75,37.75,0,0,0,54.85,0,37.68,37.68,0,0,0-54.85,0Z"/><rect class="cls-2" x="832.95" y="695.34" width="4.35" height="13.79" transform="translate(-247.34 839.44) rotate(-47.28)"/><rect class="cls-2" x="868.3" y="662.5" width="4.35" height="13.79" transform="translate(-211.81 855.07) rotate(-47.3)"/><rect class="cls-2" x="861.26" y="700.06" width="13.79" height="4.35" transform="translate(-246.09 774.94) rotate(-42.7)"/><rect class="cls-2" x="826.88" y="668.34" width="13.79" height="4.35" transform="translate(-233.68 743.31) rotate(-42.71)"/><rect class="cls-2" x="849.95" y="691.84" width="4.35" height="15.07"/><rect class="cls-2" x="849.95" y="667.09" width="4.35" height="15.07"/><path class="cls-3" d="M323.16,693.33a28.1,28.1,0,1,0,13.91,3.7A28.06,28.06,0,0,0,323.16,693.33Z"/><path class="cls-3" d="M316.37,694.15a28.11,28.11,0,0,0-20.28,35.53,28.16,28.16,0,0,0,20.28-35.53Z"/><path class="cls-3" d="M350.06,713.38a28.11,28.11,0,0,0-20.28,35.54,28.17,28.17,0,0,0,20.28-35.54Z"/><rect class="cls-2" x="321.74" y="736.69" width="10.29" height="3.25" transform="translate(-208.14 133.57) rotate(-17.62)"/><rect class="cls-2" x="313.54" y="701.64" width="10.29" height="3.25" transform="matrix(0.95, -0.3, 0.3, 0.95, -197.9, 129.44)"/><rect class="cls-2" x="337.47" y="711.77" width="3.25" height="10.29" transform="translate(-152.54 94.62) rotate(-13)"/><rect class="cls-2" x="304.21" y="722.31" width="3.25" height="10.29" transform="translate(-155.76 87.41) rotate(-13)"/><rect class="cls-2" x="329.7" y="720.62" width="3.25" height="11.24" transform="matrix(0.5, -0.87, 0.87, 0.5, -463.64, 653.88)"/><rect class="cls-2" x="313.66" y="711.46" width="3.24" height="11.24" transform="translate(-463.78 635.45) rotate(-60.28)"/><path class="cls-3" d="M760.78,731.08A22.55,22.55,0,0,0,798,708.23a22,22,0,0,0-3.35-6.68,22.28,22.28,0,0,0-5.35-5.22,22.55,22.55,0,0,0-26.17.34"/><path class="cls-3" d="M771.07,718.81a6.67,6.67,0,1,0,1.44-9.33,6.69,6.69,0,0,0-1.44,9.33Z"/><path class="cls-3" d="M796.33,700.32a24.46,24.46,0,0,1,3.14,5.79,6.64,6.64,0,0,0,.47-8.44,6.67,6.67,0,0,0-8.19-2.11,24.63,24.63,0,0,1,4.58,4.76Z"/><path class="cls-3" d="M706.09,735.84m57-39.16,0,0a22.5,22.5,0,0,0-2.34,34.36l1.2,1.13m-53,4.1,8,11,41.23-15.83a23.22,23.22,0,0,1-1.63-2h0a24.62,24.62,0,0,1-1.47-26.87l-14.6,10.68a8.73,8.73,0,0,1-10.71,7.84Z"/><path class="cls-3" d="M755.27,162.73c3.05,6.51,4.18,14.88,3.21,24.58-1.64,16.43-9.08,34.57-20.94,51.07-24.21,33.66-59.33,50-78.3,36.32s-14.72-52.12,9.5-85.78h0c11.86-16.5,26.68-29.33,41.74-36.12,14.59-6.59,27.58-6.66,36.55-.21A25.78,25.78,0,0,1,755.27,162.73Z"/><rect class="cls-5" x="629.59" y="211.35" width="146.94" height="5.01" transform="translate(119.05 659.9) rotate(-54.29)"/><path class="cls-3" d="M677.62,249.14a20.62,20.62,0,0,1-4.7-28.76l27-37.52a20.61,20.61,0,1,1,33.46,24.06l-27,37.52a21.17,21.17,0,0,1-13.41,8.3,20.89,20.89,0,0,1-13.19-2.32Z"/><rect class="cls-3" x="658.19" y="211.87" width="88.85" height="5.01" transform="matrix(0.58, -0.81, 0.81, 0.58, 118.45, 659.77)"/><rect class="cls-2" x="688.06" y="219.02" width="5.01" height="24.23" transform="translate(99.75 656.86) rotate(-54.28)"/><rect class="cls-2" x="700.63" y="201.53" width="5.01" height="24.23" transform="translate(119.19 659.8) rotate(-54.28)"/><rect class="cls-2" x="713.21" y="184.04" width="5.01" height="24.23" transform="translate(138.66 662.78) rotate(-54.29)"/><path class="cls-5" d="M355.53,161.83a9,9,0,0,0-2.1-2.08l-21.78-15.43A9.05,9.05,0,0,0,319,146.48l-19.55,27.59a9.07,9.07,0,0,0,2.15,12.62l21.79,15.44A9.07,9.07,0,0,0,336,200l19.55-27.59A9.07,9.07,0,0,0,355.53,161.83Z"/><path class="cls-5" d="M470.43,243.23a9,9,0,0,0-2.1-2.08l-21.78-15.43a9.07,9.07,0,0,0-12.63,2.15l-19.55,27.6a9.07,9.07,0,0,0,2.16,12.62l21.78,15.44a9.05,9.05,0,0,0,12.63-2.16l19.55-27.59A9.07,9.07,0,0,0,470.43,243.23Z"/><path class="cls-5" d="M355.06,179.08l-12.3,17.37A362,362,0,0,0,415.47,248l12.3-17.37A362.25,362.25,0,0,0,355.06,179.08Z"/></svg>