<svg id="Layer_1" data-name="Layer 1" xmlns="http://www.w3.org/2000/svg" viewBox="0 0 1125 905.38"><defs><style>.cls-1,.cls-5,.cls-8{fill:#4f008c;}.cls-1,.cls-10,.cls-11,.cls-2,.cls-3,.cls-4,.cls-5,.cls-6{stroke:#4f008c;stroke-miterlimit:10;}.cls-2,.cls-4,.cls-9{fill:#fff;}.cls-2,.cls-3{stroke-width:2px;}.cls-10,.cls-3{fill:none;}.cls-10,.cls-4,.cls-5,.cls-6{stroke-width:2.65px;}.cls-6,.cls-7{fill:#eef0f1;}.cls-11{fill:#ff6a39;stroke-width:2.38px;}</style></defs><title>Walk &amp;amp; Talk</title><rect class="cls-1" x="195.2" y="328.88" width="405.53" height="117.48"/><line class="cls-2" x1="475.57" y1="508.79" x2="430.69" y2="508.79"/><path class="cls-3" d="M864.27,375.45a64.19,64.19,0,0,1-27.58,16"/><path class="cls-3" d="M782.28,295.5a64.2,64.2,0,0,1,45.51-18.85"/><line class="cls-3" x1="386.29" y1="591.37" x2="312.73" y2="591.37"/><line class="cls-3" x1="632.4" y1="213.98" x2="594.07" y2="213.98"/><line class="cls-3" x1="716.95" y1="295.31" x2="678.62" y2="295.31"/><path class="cls-4" d="M391,654.82l-25.77,16.09a14,14,0,0,0-6.55,12.73c.63,10.08,1.83,27.17,3.28,38.89.46,3.65,10.34-1.79,11.57-6.72,6.15-24.72,21.37-36.63,21.37-36.63Z"/><polygon class="cls-5" points="386.82 690.29 375.62 685.97 378.87 705.3 386.82 690.29"/><path class="cls-6" d="M360.16,666.78s9.67-6.18,17.13-.36a3.06,3.06,0,0,1,.7,4l-1.28,2.12c-2,3.35-1.27,9.39,1,12.6l1.67,2.35a14.13,14.13,0,0,1,1.41,13.75L372.09,721l-1.29,6.47a18.92,18.92,0,0,1-3.63,5.34,19.24,19.24,0,0,1-7.78,4.84l-7.65-67.6h0a5.42,5.42,0,0,1,8.42-3.31Z"/><line class="cls-6" x1="360.16" y1="666.78" x2="361.23" y2="678.09"/><line class="cls-6" x1="380.33" y1="702.31" x2="371.84" y2="698.07"/><line class="cls-6" x1="377.69" y1="708.6" x2="369.98" y2="704.79"/><line class="cls-6" x1="375.05" y1="714.89" x2="368.12" y2="711.51"/><line class="cls-6" x1="372.42" y1="721.18" x2="366.26" y2="718.23"/><path class="cls-4" d="M628,321l-23.18-4.1,16.86-24.56,19,8.19Z"/><path class="cls-4" d="M437.4,388.17s-13.41,4.22-15.32,22.68l-13.82,11.72c-2.82,3.57-1.91,8.15.71,11.88l20.73-11.4,16.4-24.57,6-11.42Z"/><line class="cls-4" x1="407.02" y1="429.23" x2="425.58" y2="417.6"/><path class="cls-4" d="M429.57,408.33l-13.8,9.21c-2.52-1.67-1.58-4.9,2-8,0,0,3.63-3.08,4.45-3.81a6.9,6.9,0,0,0,1.79-3.43c.58-3,4.82-14,13.54-14.38l10.06-4.14"/><path class="cls-6" d="M526.92,429a143.54,143.54,0,0,1-28.66-19.7,107.61,107.61,0,0,1,105.68,35.82C587.67,446,557.94,445.1,526.92,429Z"/><path class="cls-4" d="M597.67,324.58A169.7,169.7,0,0,0,573.3,345c-30.73,31.16-42.43,67.29-47.28,88.8l75.23,17.91Q599.46,388.17,597.67,324.58Z"/><path class="cls-4" d="M712.2,634.06l-.68,30.37a14,14,0,0,0,7.05,12.46c8.78,5,23.72,13.37,34.31,18.58,3.31,1.63,4.18-9.63.73-13.36-17.3-18.69-18.9-38-18.9-38Z"/><polygon class="cls-5" points="737.77 657.01 728.01 664.01 745.95 671.9 737.77 657.01"/><path class="cls-6" d="M703.49,666.41s.13-11.47,9.09-14.52a3.05,3.05,0,0,1,3.68,1.58l1.07,2.23c1.7,3.54,7.16,6.22,11.1,6.07l2.88-.11A14.1,14.1,0,0,1,743.57,668L755.4,686.2l4.71,4.62a19,19,0,0,1,2.46,6,19.32,19.32,0,0,1-.21,9.16l-60.73-30.69h0a5.69,5.69,0,0,1-1.5-4.67A5.76,5.76,0,0,1,703.49,666.41Z"/><line class="cls-6" x1="703.49" y1="666.41" x2="713.53" y2="671.72"/><line class="cls-6" x1="744.26" y1="669.03" x2="736.05" y2="673.81"/><line class="cls-6" x1="748.07" y1="674.69" x2="740.65" y2="679.05"/><line class="cls-6" x1="751.88" y1="680.34" x2="745.25" y2="684.29"/><line class="cls-6" x1="755.69" y1="686" x2="749.85" y2="689.53"/><path class="cls-4" d="M801.79,342.2s13.41-4.22,15.32-22.68l13.82-11.72c2.82-3.57,1.91-8.16-.71-11.88l-20.74,11.4-16.39,24.56-6,11.43Z"/><line class="cls-4" x1="832.16" y1="301.14" x2="813.61" y2="312.77"/><path class="cls-4" d="M809.62,322l13.8-9.2c2.52,1.67,1.58,4.89-2,8,0,0-3.64,3.09-4.45,3.82a6.79,6.79,0,0,0-1.79,3.42c-.58,3-4.82,14-13.54,14.39l-10.06,4.14"/><path class="cls-7" d="M694,385.4a72.28,72.28,0,0,1-29.13-6.09l-53-21.7,18.62-40.1,62.78,36.67L794.7,329.7l4.13,17.58-76.55,32.39A72.36,72.36,0,0,1,694,385.4Z"/><path class="cls-8" d="M631.09,319.39l41.49,24.24,19.57,11.42.92.54,1-.25,99.6-24,3.58,15.19-75.53,31.95a71.21,71.21,0,0,1-56.36-.35h-.06l-51.67-21.16,8.74-18.82,8.68-18.7m-1.18-3.77-19.82,42.69,54.24,22.21a74,74,0,0,0,58.47.37l77.58-32.83-4.7-20L693.49,352.76l-63.58-37.14Z"/><path class="cls-7" d="M382.62,656.31l107-83.55,37.33-141.1,62.2,32.42c-2.8,6.06-17.93,38-43.21,91.05a175.29,175.29,0,0,1-53.56,65.14L399.74,689Z"/><path class="cls-8" d="M527.78,433.6l59.6,31.07c-2.78,6-12.49,26.51-42.66,89.89a174,174,0,0,1-53.16,64.65L400.19,687l-8.31-15.9-7.57-14.46,53.13-41.5,52.61-41.1.7-.55.23-.86,36.8-139.07m-1.72-3.89L488.42,572,380.94,656,399.28,691l93.86-69.68a176,176,0,0,0,54-65.64c18.3-38.43,43.38-91.16,43.73-92.22l-64.78-33.77Z"/><path class="cls-5" d="M533.81,488.58h0s8.86,17.16,32.11,25.47c2.77-5.36,8.49-10.71,8.49-10.71s-23.62,1.11-40.23-14.94"/><path class="cls-9" d="M603.43,445.4A368.72,368.72,0,0,0,526,414.1c-8.63-2.38-17.47-4.48-26.29-6.22,34.71-44.25,66-76.94,78.07-85.38,13.84-9.69,27.14-10.86,27.28-10.87,1.17-.09,2.36-.13,3.54-.13h.26c3.05,3,9,7.63,17,7.63a21,21,0,0,0,4.57-.52c8.08,11.46,16.87,29,14.27,48.79-.41,3.13-1.27,9.65-12.94,31.82A416.08,416.08,0,0,1,603.43,445.4Z"/><path class="cls-8" d="M608.35,312.82c3.31,3.17,9.41,7.63,17.52,7.63H626a21.25,21.25,0,0,0,3.89-.36c7.8,11.27,16,28.18,13.55,47.13-.4,3.06-1.24,9.42-12.8,31.38A415.37,415.37,0,0,1,603,443.68a368.94,368.94,0,0,0-76.63-30.85c-8-2.21-16.13-4.17-24.27-5.83,34.09-43.28,64.65-75.14,76.45-83.41A60.23,60.23,0,0,1,605.19,313c1-.09,2.11-.13,3.16-.14m.27-2.65c-1,0-2.2,0-3.64.14,0,0-13.6,1.06-27.93,11.1-11.42,8-42.53,39.78-79.69,87.35,9.07,1.74,18.53,3.92,28.32,6.62a366.42,366.42,0,0,1,78.15,31.75A417.5,417.5,0,0,0,633,399.84c11.08-21,12.52-28,13.08-32.27,2.92-22.24-8.23-41-15-50.46a19.55,19.55,0,0,1-5,.69h-.08c-8.53,0-14.56-5.71-16.42-7.62Z"/><path class="cls-4" d="M526,430.26l-3.78,12.12a47.39,47.39,0,0,0,43.42,60.78l101.86,13.08q17,62.68,34,125.38l38.75.68-35-134c-1-5.46-5-22.41-20.36-35.32a59.43,59.43,0,0,0-24.63-12.23Z"/><path class="cls-9" d="M658.56,267.35c-1.44-15.57-16.33-22.51-29.32-19.43s-18.47,20.72-15,35.91l2,9.15c3.79,11.76,14.29,19.19,26.26,16.45S660.73,290.87,658.56,267.35Z"/><path class="cls-10" d="M658.56,267.35c-1.44-15.57-16.33-22.51-29.32-19.43s-18.47,20.72-15,35.91l2,9.15c3.79,11.76,14.29,19.19,26.26,16.45S660.73,290.87,658.56,267.35Z"/><path class="cls-4" d="M602.61,313.14l-55-2.78a69.54,69.54,0,0,0-52,17.91L437,381.58l10.4,16.25,82.95-53.75,41.22,5.17"/><path class="cls-5" d="M541.24,359.07l10.24-11.24,18.26,1.94Z"/><path class="cls-10" d="M547.69,435.27a37.2,37.2,0,0,0,17.24,47.54l109.76,13.72q21.51,72.69,43,145.37"/><path class="cls-10" d="M531.39,486.28q-14,48.3-28,96.59L388.05,669.15"/><path class="cls-4" d="M612.8,285.28c-3.37-.77-4.19-10.74-3.5-16.81,1-9,4.23-15,10.67-19.66s16.91-5.11,24.49-2.78c9,2.78,13.44.56,14.76,4.63,1.12,3.48-1.54,9-8.34,8.89-4.67-.06-7.63.23-10.23,1a30.3,30.3,0,0,0-9.66,4.9c-5.11,4-7.64,9.11-8.31,8.73-.49-.29,1.39-2.85.4-5.38-.79-2-3.27-3.75-5.46-3.28-2.74.59-4.2,4.42-3.6,7.08.73,3.26,4.25,3.55,4.57,6.28C618.94,281.91,615.15,285.82,612.8,285.28Z"/><line class="cls-10" x1="376.87" y1="663.23" x2="387.52" y2="684.93"/><line class="cls-10" x1="712.55" y1="649.44" x2="736.48" y2="654.61"/><path class="cls-11" d="M601.26,357.58a48.37,48.37,0,0,0,16.85,6.84A49.65,49.65,0,0,0,646,361.66q-3.31,11.38-6.64,22.77c-6,1.6-19.62,4.24-34.2-1.64A50,50,0,0,1,594,376.44Q597.6,367,601.26,357.58Z"/><line class="cls-5" x1="447.56" y1="372.01" x2="459.72" y2="389.87"/><line class="cls-10" x1="782.02" y1="332.83" x2="787.11" y2="351.18"/><line class="cls-2" x1="558.27" y1="276.65" x2="454" y2="276.65"/><line class="cls-3" x1="100.38" y1="737.34" x2="911.89" y2="737.34"/></svg>