<svg id="Layer_1" data-name="Layer 1" xmlns="http://www.w3.org/2000/svg" viewBox="0 0 1125 905.38"><defs><style>.cls-1,.cls-2{fill:#fff;}.cls-1,.cls-10,.cls-2,.cls-3,.cls-4,.cls-5,.cls-7,.cls-8,.cls-9{stroke:#4f008c;}.cls-1,.cls-10,.cls-8,.cls-9{stroke-miterlimit:10;}.cls-1,.cls-10,.cls-2,.cls-3,.cls-4,.cls-5,.cls-8,.cls-9{stroke-width:2px;}.cls-2,.cls-3,.cls-4,.cls-5,.cls-7{stroke-linecap:round;stroke-linejoin:round;}.cls-3,.cls-6,.cls-9{fill:#4f008c;}.cls-10,.cls-4,.cls-5,.cls-7{fill:#ff6a39;}.cls-5{font-size:108.32px;font-family:STCForward-Bold, STC Forward;font-weight:700;}.cls-8{fill:none;}</style></defs><title>Walk &amp;amp; Talk</title><path class="cls-1" d="M650.87,473.91c52.55-2.83,98-30.56,116.8-73.13,16-36.29,19.4-98.78-19.19-121.09-36.13-20.88-83.47,8.22-85.65,9.6-1.47,1.63-14.86,17-10.84,31.06a44.19,44.19,0,0,0,4.87,10,43.58,43.58,0,0,0,10.58,11.1c12.59-26,37.69-37.84,54.46-31.65,20.93,7.71,22.55,41.17,19.39,59-6.95,39.21-46.72,56.73-51.15,58.6l-45.57,9.46c-9.45,3.08-15.12,11.92-13.91,20.26,1.33,9.15,10.31,13.39,11,13.68Z"/><path class="cls-2" d="M467.67,475c-52.55-2.82-98-30.56-116.8-73.12-16-36.3-19.4-98.79,19.19-121.1,36.13-20.88,83.47,8.22,85.65,9.6,1.47,1.64,14.86,17,10.84,31.06a44.19,44.19,0,0,1-4.87,10,43.25,43.25,0,0,1-10.59,11.1c-12.58-26-37.68-37.84-54.45-31.65-20.93,7.72-22.55,41.17-19.39,59,6.95,39.2,46.72,56.72,51.15,58.59L474,438c9.45,3.08,15.12,11.92,13.91,20.26-1.33,9.15-10.31,13.39-11,13.69Z"/><path class="cls-2" d="M604.54,625.24c-3-22.83-28.54-33.33-28.54-33.33l-15.67-9.25-15.61,9.4s-25.61,10.35-28.61,33.18c-1.66,12.62,22.37,14.92,44.22,14.46C582.17,640.16,606.21,637.86,604.54,625.24Z"/><path class="cls-2" d="M604.38,620.85H516.27l-49.45,49.8h187Z"/><polygon class="cls-2" points="561.56 553.6 559.09 553.6 544.63 553.6 544.63 592.04 559.09 592.04 561.56 592.04 576.02 592.04 576.02 553.6 561.56 553.6"/><path class="cls-2" d="M534.53,557.1a36.77,36.77,0,0,0,17.22,6.47h21.61a18.2,18.2,0,0,0,4.48-1.22,43.68,43.68,0,0,0,13-9.32c9.86-10,12.24-24,10.94-37a70,70,0,0,0-1.28-8.06h-72a28.9,28.9,0,0,1-8.13-1.11c-.94,5.65-1.85,15.06-1.85,15.87C518.57,535.74,523.11,548.77,534.53,557.1Z"/><path class="cls-2" d="M560.33,259.5l-121.61-2.15L446,421.12s8.76,85.21,90.5,89.2h47.61c81.74-4,90.49-89.2,90.49-89.2l7.3-163.77Z"/><polygon class="cls-2" points="561.14 256.02 559.51 256.02 433.98 256.02 433.98 297.96 559.51 297.96 561.14 297.96 686.67 297.96 686.67 256.02 561.14 256.02"/><path class="cls-3" d="M470.52,298H442.09L446,421.12c.66,6.45,5.89,50.85,44.11,75.07a93.5,93.5,0,0,0,46.39,14.13c-28.81-16.8-43.81-35.8-52.23-50.46C471.79,438.08,465.64,424.6,470.52,298Z"/><polygon class="cls-2" points="561.18 672.25 559.48 672.25 466.82 672.25 466.82 737.33 559.48 737.33 561.18 737.33 653.83 737.33 653.83 672.25 561.18 672.25"/><polygon class="cls-4" points="561.14 688.4 559.52 688.4 509.52 688.4 509.52 700.28 559.52 700.28 561.14 700.28 611.13 700.28 611.13 688.4 561.14 688.4"/><polygon class="cls-4" points="561.14 711.2 559.52 711.2 509.52 711.2 509.52 723.09 559.52 723.09 561.14 723.09 611.13 723.09 611.13 711.2 561.14 711.2"/><polygon class="cls-2" points="561.14 734.33 559.51 734.33 460.26 734.33 460.26 756.3 559.51 756.3 561.14 756.3 660.4 756.3 660.4 734.33 561.14 734.33"/><text class="cls-5" transform="translate(538.69 415.09)">1</text><path class="cls-6" d="M359.16,260c-12.82.56-23,5.57-31.31,15.27l-4.26-3.79c8.42-12.14,19.78-19,34.4-21.1Z"/><path class="cls-6" d="M318.57,363.79a26.77,26.77,0,0,0,21.22,7c.11,1.46.16,2.19.26,3.65a30.88,30.88,0,0,1-25.25-5.72Z"/><path class="cls-6" d="M869.1,447.5c1.82,12.7,7.82,22.28,18.3,29.64l-3.35,4.62c-12.91-7.18-20.9-17.8-24.41-32.14Z"/><path class="cls-6" d="M633.82,242.27c5.47,11.6,14,19,26.2,23l-1.85,5.39c-14.45-3.08-25.2-10.88-32.77-23.57Z"/><path class="cls-6" d="M825.64,280.11c-12.66,2-22.14,8.2-29.33,18.81l-4.67-3.28c7-13,17.45-21.19,31.73-24.94C824.13,273.84,824.88,277,825.64,280.11Z"/><path class="cls-6" d="M505.83,82.79c-12.82.55-22.95,5.57-31.32,15.27l-4.26-3.8c8.43-12.13,19.79-19,34.41-21.09Z"/><path class="cls-7" d="M349.63,186.27c-12.82.55-22.95,5.57-31.31,15.27l-4.27-3.8c8.43-12.13,19.79-19,34.41-21.09Z"/><path class="cls-7" d="M478.68,228.85c9.81-8.27,14.77-18.43,15.48-31.22l5.69.41c.73,14.75-4.05,27.15-14.37,37.71Z"/><path class="cls-6" d="M325.76,407.47c-11.68-5.21-19.3-13.56-23.63-25.59l-5.29,1.95c3.53,14.3,11.63,24.83,24.45,32.1Z"/><path class="cls-6" d="M790.83,205.37c13.51-11.39,20.35-25.38,21.32-43l7.84.55c1,20.33-5.59,37.41-19.8,52Z"/><path class="cls-7" d="M501,172.55A26.78,26.78,0,0,0,523,176.94c.28,1.44.42,2.15.69,3.59a30.89,30.89,0,0,1-25.75-2.62Z"/><path class="cls-6" d="M261,520c-9.56,11.73-13.08,24.6-11.09,39.59l-6.69.78c-4.09-16.95-1.26-32.37,8.39-46.89Z"/><path class="cls-2" d="M371.38,557c7.29,13.27,17.89,21.37,32.53,25.16-.72,2.59-1.08,3.89-1.79,6.49-17.25-2.58-30.48-11-40.31-25.38Z"/><path class="cls-7" d="M403.91,201.3c12.06-4.36,20.23-12.17,25.33-23.92l5.19,2.35c-4.42,14.09-13.2,24.06-26.54,30.4Q405.9,205.71,403.91,201.3Z"/><path class="cls-7" d="M795.33,501.8c12.74-4.59,21.37-12.84,26.74-25.26l5.5,2.49c-4.68,14.88-14,25.41-28,32.1Z"/><path class="cls-6" d="M723.13,191.65c-12.39-3.31-23.56-1.56-34.45,5.19l-2.93-4.9c11.68-9.05,24.59-12.22,39.15-9.81Z"/><path class="cls-7" d="M180.2,504.88c12.07-4.36,20.24-12.17,25.33-23.92l5.2,2.35c-4.42,14.09-13.21,24.06-26.55,30.4Q182.2,509.29,180.2,504.88Z"/><path class="cls-2" d="M581.62,182.39c5.21,11.72,13.59,19.31,25.69,23.54-.79,2.14-1.19,3.21-2,5.35-14.38-3.39-25-11.44-32.24-24.28Z"/><path class="cls-2" d="M259.67,120.28c-12.71-1.77-23.58,1.34-33.55,9.37l-3.51-4.5c10.48-10.41,22.89-15.15,37.65-14.54Q260,115.44,259.67,120.28Z"/><path class="cls-2" d="M156.28,262.53c5.21,11.72,13.59,19.31,25.68,23.54l-2,5.35C165.61,288,155,280,147.75,267.14Q152,264.85,156.28,262.53Z"/><path class="cls-2" d="M306.68,446.06c4.5,14.46,13.27,24.51,26.87,31.13l-3.05,6c-16.39-6-27.68-16.85-34.45-32.91Z"/><path class="cls-7" d="M508.38,283.9c12.8.8,23.4-3.11,32.74-11.88l3.84,4.23c-9.66,11.17-21.68,16.83-36.44,17.34Q508.45,288.75,508.38,283.9Z"/><path class="cls-7" d="M901.48,448.69c8.84-9.37,19.34-14.34,32.28-15.47,0-2.1-.07-3.15-.11-5.24-14.85-.12-27.6,4.77-38.78,14.69Z"/><path class="cls-6" d="M617.83,96.05c-7.2-10.61-16.79-16.6-29.43-18.63.39-2.25.59-3.37,1-5.62,14.75.8,26.58,6.85,36,18.21Z"/><path class="cls-6" d="M905.8,188.62C898.6,178,889,172,876.36,170l1-5.62c14.75.8,26.58,6.86,36,18.21Z"/><path class="cls-6" d="M695.1,507.13c12.87,4.24,24.75,3.07,36.64-3.39l2.79,5.34c-12.86,8.84-26.65,11.4-41.87,8Q693.89,512.09,695.1,507.13Z"/><path class="cls-6" d="M162.69,390c12.18,4,23.43,2.9,34.69-3.21,1.06,2,1.59,3,2.64,5.05-12.17,8.37-25.23,10.8-39.64,7.57Z"/><path class="cls-2" d="M916.38,275.68c-3,12.47-1,23.59,6,34.32l-4.83,3c-9.33-11.45-12.81-24.28-10.75-38.9Z"/><path class="cls-7" d="M753.36,89.71c-8.42,9.67-11.76,20.47-10.49,33.21l-5.69.48c-3-14.47-.17-27.45,8.41-39.47Z"/><path class="cls-2" d="M299.26,272c10.45,7.42,20.27,11.21,30.27,11.81l2.12,4.28c-10.88.47-22.33-3.2-34.73-11Z"/><path class="cls-7" d="M214.32,198.81c3.81,7,11.25,11.8,22.77,15l-2.58,2.89c-13.89-2.87-23.45-8.11-29.19-15.84Z"/><path class="cls-2" d="M826.45,380.75c-12.82.5-23,5.47-31.38,15.13l-4.24-3.81c8.48-12.1,19.87-18.94,34.5-20.95C825.7,374.33,826.08,377.54,826.45,380.75Z"/><line class="cls-1" x1="686.67" y1="273.65" x2="433.98" y2="273.65"/><line class="cls-8" x1="576.02" y1="574.96" x2="544.63" y2="574.96"/><path class="cls-9" d="M536.52,510.32a39.81,39.81,0,0,0-7.64,21.12c-.85,15.23,7.63,25.76,9.68,28.16a36.08,36.08,0,0,1-8.8-6.64c-15.66-16.19-10.29-42-9.39-46.06Z"/><line class="cls-10" x1="690.14" y1="427.41" x2="690.14" y2="465.98"/><line class="cls-8" x1="428.4" y1="428.5" x2="428.4" y2="467.9"/><line class="cls-8" x1="482.66" y1="654.75" x2="637.78" y2="654.75"/><line class="cls-8" x1="646.84" y1="734.33" x2="646.84" y2="756.3"/><line class="cls-8" x1="475.82" y1="734.33" x2="475.82" y2="756.3"/><line class="cls-8" x1="558.92" y1="734.33" x2="558.92" y2="756.3"/></svg>