<svg id="Layer_1" data-name="Layer 1" xmlns="http://www.w3.org/2000/svg" viewBox="0 0 1125 905.38"><defs><style>.cls-1,.cls-14,.cls-15,.cls-6{fill:#ff6a39;}.cls-1,.cls-12,.cls-13,.cls-14,.cls-15,.cls-16,.cls-17,.cls-2,.cls-3,.cls-4,.cls-6,.cls-7,.cls-8,.cls-9{stroke:#4f008c;}.cls-1,.cls-16,.cls-17,.cls-2,.cls-3,.cls-4,.cls-6,.cls-7,.cls-8,.cls-9{stroke-miterlimit:10;}.cls-1{stroke-width:2.16px;}.cls-10,.cls-11,.cls-12,.cls-2,.cls-3,.cls-4{fill:#fff;}.cls-12,.cls-13,.cls-14,.cls-15,.cls-2,.cls-6,.cls-7,.cls-8,.cls-9{stroke-width:2px;}.cls-3{stroke-width:1.85px;}.cls-4{stroke-width:1.93px;}.cls-13,.cls-16,.cls-17,.cls-5,.cls-8{fill:#4f008c;}.cls-7{fill:none;}.cls-9{fill:#eef0f1;}.cls-11{font-size:54.04px;font-family:STCForward-Medium, STC Forward;font-weight:500;}.cls-12,.cls-13,.cls-14,.cls-15{stroke-linecap:round;stroke-linejoin:round;}.cls-15{font-size:28.43px;font-family:STCForward-Bold, STC Forward;font-weight:700;}.cls-16{stroke-width:1.49px;}.cls-17{stroke-width:1.05px;}</style></defs><title>Walk &amp;amp; Talk</title><rect class="cls-1" x="489.6" y="631.59" width="192.62" height="156.31"/><path class="cls-2" d="M757.58,109.27s13.26-28,16.53-31.11c3.71-3.48,2,6-.94,16.19,1.9,4,5.58,6,7.06,10.17s-4.51,10.19-6.67,11.11c-8.79,3.72-11,12-16.31,14.23s-7.77-4.82-7.77-4.82Z"/><path class="cls-3" d="M647.89,227.31l105.4-111.65,13.62,5.1L654.47,269.43a53.55,53.55,0,0,1-6.58-42.12Z"/><path class="cls-2" d="M465.65,99.67s-13.25-28-16.52-31.11c-3.71-3.48-2,6,.94,16.19-1.91,4-5.59,6-7.07,10.17s4.51,10.19,6.68,11.11c8.79,3.72,11,12,16.31,14.23s7.77-4.82,7.77-4.82Z"/><path class="cls-3" d="M572.35,212.71q-52.7-55.83-105.41-111.65l-13.61,5.1q56.22,74.33,112.43,148.67a53.61,53.61,0,0,0,6.59-42.12Z"/><path class="cls-4" d="M571.2,360.26l83,1.71L667,621.35c-3.78,2.29-15.67,2.36-15.67,2.36l-32-246.46-11.85-6.89q-34,127.15-68,254.33a44.81,44.81,0,0,1-8.81-1.57c-3.49-1-6.62-2.18-6.62-2.18q9.39-53,18.94-106Q556.93,437.61,571.2,360.26Z"/><path class="cls-2" d="M608.21,169.55l-13.58,70.16,39.52-9.93q0-25.44,0-50.88Z"/><path class="cls-2" d="M645.93,169.91a5.37,5.37,0,0,1-5,3.49,39.72,39.72,0,0,1-8,11.34c-8,10.46-26.6,6.85-25.3-12.45s20.83-42.7,30.67-26.65a29.06,29.06,0,0,1,5,19.78C645.38,165.19,647.94,165.62,645.93,169.91Z"/><path class="cls-5" d="M647.6,154.34a16.2,16.2,0,0,0-2.4-8.65c-7.1-11-28.81-10.33-30.87-5.28a4,4,0,0,0,.65,3.43c-3.11.38-4.68,6.42-.64,9.38.07-.48,4.29-6.86,10-6.26s12.06,1.7,14.51,6.17c2.89,5.27-.31,11.93,2.87,13.62a2.91,2.91,0,0,0,1.87.22C646.19,166.33,647.77,161.33,647.6,154.34Z"/><path class="cls-5" d="M615.39,172.39a2.64,2.64,0,0,1,2-.15c.47.16,1,.33,1.3.41a2.58,2.58,0,0,1,1.73,1.52c2,4.86,6.5,10.84,15,2.71,4.11-4.24,5.41-3.34,5.41-3.34s-3.65,30.93-27.53,31.74c-14.66.49-25.15-21.75-4.87-37.55C608.26,174.21,612.1,174,615.39,172.39Z"/><path class="cls-2" d="M571.2,360.26l83.09-25.57Q662.17,418.36,670,502l-47.84,2.91-2.85-98.12-3.59.54q-8,48-16,95.92l-55.9-5.5Q557.53,429,571.2,360.26Z"/><path class="cls-2" d="M570.78,209.54l30.39-2.09c.42,1.11,3.55,9,11.94,11.73a19.93,19.93,0,0,0,20.78-5.82l19.55,6.83c4.78,21.53,4.56,38.49,3.4,50.19-1.19,12.07-4,24.78-3.22,45,.29,7.71,1,14,1.59,18.22a263.54,263.54,0,0,1-95.12,27.94l4.11-109.45"/><rect class="cls-6" x="589.5" y="235.26" width="55.93" height="17.16"/><line class="cls-7" x1="578.58" y1="358.99" x2="551.05" y2="499.48"/><line class="cls-7" x1="646.87" y1="336.78" x2="662.57" y2="502.36"/><polygon class="cls-8" points="526.42 604.42 531.23 613.22 515.51 612.94 526.42 604.42"/><path class="cls-9" d="M548.35,623.71s3.7-8.83-1.84-14.33a2.35,2.35,0,0,0-3.21-.08l-1.52,1.33c-2.41,2.11-7.29,2.23-10.11.73l-2.07-1.1a10.84,10.84,0,0,0-11.07.55l-14.65,9.75-5,1.88a15.35,15.35,0,0,0-3.78,3.71,16.48,16.48,0,0,0-2.88,7.09l54.52-2.09h0a4.65,4.65,0,0,0,2.65-3A5.09,5.09,0,0,0,548.35,623.71Z"/><line class="cls-9" x1="548.35" y1="623.71" x2="539.26" y2="624.24"/><line class="cls-9" x1="517.7" y1="611.34" x2="522.11" y2="617.9"/><line class="cls-9" x1="513.04" y1="614.33" x2="517.01" y2="620.29"/><line class="cls-9" x1="508.38" y1="617.32" x2="511.92" y2="622.68"/><line class="cls-9" x1="503.73" y1="620.31" x2="506.82" y2="625.07"/><path class="cls-9" d="M675.06,632l.18-8.63a20.13,20.13,0,0,0-4.87-11.21,18.76,18.76,0,0,0-4.4-3.61l-16,1.07-8.71,11.88c.14,3.54.29,7.08.43,10.62Z"/><path class="cls-9" d="M658.06,622.82H643.19"/><path class="cls-8" d="M658.89,614.65l-6.68-5.14,11.17-.75Z"/><line class="cls-7" x1="553.85" y1="568.34" x2="534.21" y2="565.54"/><line class="cls-7" x1="665.45" y1="570.06" x2="645.78" y2="571.68"/><path class="cls-8" d="M648.56,339.69l-77.67,23.48-1.83,9.2Z"/><path class="cls-8" d="M633.89,215.36q-9.69,31.09-19.37,62.2l-13.35-68.11-6.37.43,18.75,91.95q12.21-42.52,24.41-85Z"/><circle class="cls-6" cx="614.47" cy="302.2" r="12.95"/><path class="cls-10" d="M601.27,668.45v82.6H587.51V682.66l-17,6.38V676.16l19.05-7.71Z"/><text class="cls-11" transform="translate(351.44 765.24)">2</text><text class="cls-11" transform="translate(780.17 781.32)">3</text><line class="cls-7" x1="142.81" y1="788.34" x2="954.32" y2="788.34"/><path class="cls-2" d="M792.56,111.7c12.53-5.8,20.92-17,21.36-29.19.37-10.41-4.89-26-16.47-27.65C786.61,53.28,777.91,65,777.51,65.53c-.2.54-2,5.59.38,8.63a11.66,11.66,0,0,0,2.16,2,11.38,11.38,0,0,0,3.66,1.68c.54-7.57,5.51-12.89,10.2-13,5.85-.15,9.5,7.85,10.46,12.49,2.12,10.24-5.86,18.38-6.76,19.27l-10.19,6.73a5.06,5.06,0,0,0-1.42,6.3,5.14,5.14,0,0,0,4,2.27Z"/><path class="cls-12" d="M748,129.79c-13.08,4.43-26.87,2.09-35.58-6.46C705,116,698.08,101.14,705.31,92c6.78-8.61,21.15-6.12,21.82-6,.51.26,5.27,2.7,5.66,6.52a11.28,11.28,0,0,1-1.71,6.66c-5.6-5.12-12.87-5.56-16.35-2.42-4.36,3.92-1.5,12.23,1,16.26,5.51,8.88,16.91,9.29,18.17,9.31l12-2.13a5.07,5.07,0,0,1,5.36,3.59,5.16,5.16,0,0,1-1.34,4.4Z"/><path class="cls-12" d="M796,153.1c-3-5.27-10.2-5.35-10.2-5.35l-4.72-.73-2.89,3.81s-5.24,5-3.75,10.88c.83,3.23,6.91,1.46,12.19-.78C792,158.91,797.62,156,796,153.1Z"/><path class="cls-12" d="M795.52,152,774,160.62l-7.2,16.95,45.58-18.2Z"/><polygon class="cls-12" points="778.54 139.82 777.94 140.06 774.41 141.46 778.16 150.84 781.68 149.43 782.28 149.19 785.81 147.78 782.07 138.41 778.54 139.82"/><path class="cls-12" d="M772.29,143.3a9.52,9.52,0,0,0,4.83-.1h0l5.25-2.09a4.74,4.74,0,0,0,1-.73,11.5,11.5,0,0,0,2.27-3.54c1.43-3.4.65-7-.93-10.08a19.42,19.42,0,0,0-1.1-1.84l-17.55,7a7.52,7.52,0,0,1-2.09.52c.32,1.47,1,3.85,1.09,4.05A10.83,10.83,0,0,0,772.29,143.3Z"/><path class="cls-12" d="M749.62,68.25l-29.85,11.3,17.72,39.22s10.42,19.91,30.74,12.94l11.6-4.64c19.54-8.93,13.38-30.55,13.38-30.55L779.06,55.89Z"/><polygon class="cls-12" points="749.48 67.32 749.09 67.48 718.49 79.69 722.57 89.91 753.17 77.7 753.56 77.54 784.16 65.33 780.08 55.1 749.48 67.32"/><path class="cls-13" d="M731.47,86.36h0l-6.93,2.77,13,29.64c.78,1.5,6.38,11.82,18,14a24.65,24.65,0,0,0,12.69-1.06c-8.66-1.3-14.17-4.47-17.65-7.22C745.42,120.39,742.61,117.71,731.47,86.36Z"/><polygon class="cls-12" points="789.99 168.78 789.58 168.94 766.99 177.96 773.33 193.82 795.91 184.81 796.33 184.64 818.91 175.63 812.58 159.76 789.99 168.78"/><polygon class="cls-14" points="793.56 175.11 793.16 175.27 780.97 180.13 782.13 183.03 794.32 178.17 794.71 178.01 806.9 173.14 805.74 170.25 793.56 175.11"/><polygon class="cls-12" points="796.03 183.92 795.63 184.08 771.43 193.73 773.57 199.09 797.77 189.43 798.16 189.27 822.36 179.61 820.22 174.26 796.03 183.92"/><text class="cls-15" transform="translate(759.44 108.27) rotate(-21.76)">1</text><line class="cls-2" x1="782.28" y1="60.21" x2="720.68" y2="84.8"/><line class="cls-7" x1="804.7" y1="161.96" x2="806.84" y2="167.32"/><line class="cls-7" x1="773.02" y1="174.6" x2="775.15" y2="179.96"/><line class="cls-7" x1="788.27" y1="168.52" x2="790.41" y2="173.87"/><rect class="cls-16" x="333.49" y="696.52" width="156.31" height="91.53"/><rect class="cls-17" x="682.17" y="743.12" width="156.31" height="45.76"/><path class="cls-10" d="M428.54,761v8h-33.8v-7.21L414.55,740c3.36-3.64,4.27-6.16,4.27-8.82,0-4.06-2.38-7.42-7.56-7.42s-7.84,3.78-7.84,7.84v.91h-8.68v-.91c0-8.82,6.23-16,16.87-16s16.3,7.06,16.3,15.39c0,5.11-1.82,9-7.07,14.84L407.13,761Z"/><path class="cls-10" d="M770.33,771.87c0,5.34-4.25,9.32-10,9.32s-10-4-10-9.28a5.15,5.15,0,0,1,.12-1.13h4.8c0,.39-.08.62-.08.86a5.17,5.17,0,1,0,5.22-5H758.2v-4.09h2.18a3.77,3.77,0,1,0-4-3.74,1.82,1.82,0,0,0,0,.46h-4.52a3,3,0,0,1-.08-.78c0-4.33,3.67-7.64,8.47-7.64s8.5,3.28,8.5,7.68a7.16,7.16,0,0,1-2.93,5.81A8.67,8.67,0,0,1,770.33,771.87Z"/></svg>