<svg xmlns="http://www.w3.org/2000/svg" width="160" height="55" viewBox="0 0 160 55"><g transform="translate(0 0)"><path d="M149.37,55H11.251c-4.206,0-6.89-.786-8.66-2.527C.791,50.7,0,48.067,0,43.892V10.615C0,6.471.807,3.9,2.623,2.249,4.361.678,6.952,0,11.251,0H149.37c4.268,0,6.766.678,8.365,2.3C159.348,3.913,160,6.317,160,10.615V43.892c0,4.268-.667,6.825-2.235,8.535C156.136,54.2,153.544,55,149.37,55ZM11.251,2.465c-6.968,0-8.768,1.679-8.768,8.15V43.892c0,3.42.59,5.592,1.847,6.825s3.461,1.818,6.921,1.818H149.37c6.549,0,8.147-1.695,8.147-8.643V10.615c0-6.7-1.443-8.15-8.147-8.15H11.251Z" transform="translate(0 0)" fill="#fff"/></g><path d="M145.724,66H132.937A2.858,2.858,0,0,0,130,68.9V97.084a3.038,3.038,0,0,0,2.937,3.1h12.787c1.647,0,2.455-1.441,2.455-3.1V68.9C148.179,67.226,147.371,66,145.724,66Zm-7.877,3.525h2.968a.31.31,0,1,1,0,.613h-2.968a.308.308,0,1,1,0-.613Zm1.492,28.969a1.564,1.564,0,1,1,1.538-1.563A1.551,1.551,0,0,1,139.338,98.494Zm7.442-3.832H131.4V72.131H146.78Z" transform="translate(-109.802 -55.745)" fill="#fff" fill-rule="evenodd"/><path d="M414.63,164h-7.877a3.529,3.529,0,0,0,1.15,2.657,3.865,3.865,0,0,0,2.579.823,8.422,8.422,0,0,0,3.185-.575l.419,1.818a9.7,9.7,0,0,1-3.962.73,5.777,5.777,0,0,1-4.319-1.616,5.987,5.987,0,0,1-1.569-4.335,6.787,6.787,0,0,1,1.461-4.459,5.069,5.069,0,0,1,4.133-1.9,4.4,4.4,0,0,1,3.869,1.9,6.44,6.44,0,0,1,1.041,3.744A8.125,8.125,0,0,1,414.63,164Zm-11.3-4.257a3.778,3.778,0,0,0-.808-.062,2.455,2.455,0,0,0-2.129,1.041,3.933,3.933,0,0,0-.653,2.331v6.23H397.1v-8.142c0-1.352,0-2.579-.047-3.667h2.284l.093,2.175h.078a3.939,3.939,0,0,1,1.321-1.849,3.136,3.136,0,0,1,1.88-.621,2.4,2.4,0,0,1,.621.062Zm-9.4,7.971a5.581,5.581,0,0,1-4.335,1.8,5.28,5.28,0,0,1-4.148-1.725,6.311,6.311,0,0,1-1.538-4.35,6.419,6.419,0,0,1,1.585-4.49,5.5,5.5,0,0,1,4.288-1.74,5.425,5.425,0,0,1,4.2,1.725,6.2,6.2,0,0,1,1.507,4.319A6.446,6.446,0,0,1,393.934,167.718Zm-10.8-8.375h-2.952v5.8c0,1.461.559,2.175,1.569,2.175a5.089,5.089,0,0,0,1.181-.109l.078,1.989a5.7,5.7,0,0,1-2.035.3,3.138,3.138,0,0,1-2.424-.948,4.6,4.6,0,0,1-.87-3.185v-6.013h-1.709v-1.864h1.709v-2.206l2.486-.777v2.983h2.952v1.864Zm-9.245,8.716a6.437,6.437,0,0,1-4.459,1.429,7.72,7.72,0,0,1-4.242-1.025l.606-2.191a7.268,7.268,0,0,0,3.791,1.025,3.665,3.665,0,0,0,2.315-.668,2.214,2.214,0,0,0,.823-1.8,2.336,2.336,0,0,0-.684-1.678,6.374,6.374,0,0,0-2.268-1.259c-2.874-1.072-4.3-2.626-4.3-4.692a4.1,4.1,0,0,1,1.523-3.309,6.044,6.044,0,0,1,4.024-1.29,8.084,8.084,0,0,1,3.729.777l-.668,2.144a6.514,6.514,0,0,0-3.139-.761,3.229,3.229,0,0,0-2.175.684,1.956,1.956,0,0,0-.653,1.492,2.07,2.07,0,0,0,.746,1.616,8.392,8.392,0,0,0,2.377,1.259,8.023,8.023,0,0,1,3.123,1.989,4.15,4.15,0,0,1,.994,2.843A4.342,4.342,0,0,1,373.891,168.06Zm-15.009-.093a4.8,4.8,0,0,1-3.62,1.554,3.523,3.523,0,0,1-3.34-1.678V174.1H349.28V161.316c0-1.259-.062-2.595-.124-3.838h2.284l.155,1.864h.047a4.681,4.681,0,0,1,7.489-.482,6.5,6.5,0,0,1,1.4,4.35A6.769,6.769,0,0,1,358.882,167.966Zm-12.989,0a4.872,4.872,0,0,1-3.651,1.554,3.766,3.766,0,0,1-3.387-1.678V174.1h-2.641V161.316c0-1.259,0-2.595-.062-3.838h2.315l.14,1.864h.047a4.681,4.681,0,0,1,7.489-.482,6.5,6.5,0,0,1,1.4,4.35A6.769,6.769,0,0,1,345.893,167.966Zm-14.046,1.321-1.538-4.817H324.98l-1.461,4.817H320.8l5.267-16.47h3.263l5.3,16.47Zm77.764-10.3a2.579,2.579,0,0,0-2.1,1.088,3.973,3.973,0,0,0-.777,2.051h5.469a3.646,3.646,0,0,0-.513-2.035A2.284,2.284,0,0,0,409.611,158.986Zm-81.975-3.993h-.047c-.171.777-.419,1.771-.777,3.139l-1.367,4.319h4.4l-1.383-4.319C328.32,157.681,328.04,156.7,327.636,154.993Zm27.144,4.288a2.744,2.744,0,0,0-1.756.637,2.93,2.93,0,0,0-1.01,1.694,3.379,3.379,0,0,0-.093.808v1.973a3.13,3.13,0,0,0,.761,2.175,2.592,2.592,0,0,0,2.035.886,2.671,2.671,0,0,0,2.315-1.15,4.981,4.981,0,0,0,.823-3.014,4.912,4.912,0,0,0-.777-2.843A2.752,2.752,0,0,0,354.78,159.281Zm34.912-.171a2.646,2.646,0,0,0-2.408,1.4,5.89,5.89,0,0,0,0,5.624,2.633,2.633,0,0,0,2.377,1.4,2.592,2.592,0,0,0,2.346-1.429,5.126,5.126,0,0,0,.73-2.812,5.242,5.242,0,0,0-.7-2.781A2.57,2.57,0,0,0,389.692,159.11Zm-47.9.171a2.744,2.744,0,0,0-1.756.637,2.974,2.974,0,0,0-1.041,1.694,3.664,3.664,0,0,0-.124.808v1.973a3.153,3.153,0,0,0,.792,2.175,2.625,2.625,0,0,0,2.051.886,2.652,2.652,0,0,0,2.315-1.15,5.089,5.089,0,0,0,.823-3.014,4.8,4.8,0,0,0-.777-2.843A2.705,2.705,0,0,0,341.791,159.281Z" transform="translate(-271.146 -129.217)" fill="#fff" fill-rule="evenodd"/><path d="M332.739,78.4l-.761,2.533H330.3L333.159,72h2.066l2.905,8.918h-1.74l-.808-2.533h-2.843Zm2.564-1.227-.7-2.191c-.171-.544-.311-1.15-.451-1.662h-.031c-.14.513-.264,1.134-.419,1.662l-.684,2.191Z" transform="translate(-279.044 -60.926)" fill="#fff"/><path d="M383.056,88l1.041,3.263c.186.575.311,1.088.435,1.616h.047c.124-.528.264-1.025.435-1.616L386.039,88h1.725l-2.47,6.448h-1.6L381.3,88Z" transform="translate(-322.129 -74.458)" fill="#fff"/><path d="M429.886,93.6l-.109-.715h-.047a2.422,2.422,0,0,1-1.911.855,1.911,1.911,0,0,1-2.02-1.927c0-1.631,1.445-2.455,3.822-2.439v-.109c0-.42-.171-1.119-1.305-1.119a3.457,3.457,0,0,0-1.74.482l-.311-1.057A4.6,4.6,0,0,1,428.6,87a2.407,2.407,0,0,1,2.657,2.719V92.05a11.113,11.113,0,0,0,.093,1.554Zm-.218-3.154c-1.15-.031-2.253.218-2.253,1.212a.857.857,0,0,0,.932.932,1.324,1.324,0,0,0,1.274-.886.986.986,0,0,0,.047-.357Z" transform="translate(-359.723 -73.612)" fill="#fff"/><path d="M473.233,71.586a.918.918,0,0,1-1.833,0,.874.874,0,0,1,.917-.886A.865.865,0,0,1,473.233,71.586Zm-1.74,8.25V73.388h1.647v6.448Z" transform="translate(-398.245 -59.826)" fill="#fff"/><path d="M493.8,69h1.647v9.4H493.8Z" transform="translate(-417.169 -58.388)" fill="#fff"/><path d="M516.886,93.6l-.109-.715h-.047a2.422,2.422,0,0,1-1.911.855,1.911,1.911,0,0,1-2.02-1.927c0-1.631,1.445-2.455,3.822-2.439v-.109c0-.42-.171-1.119-1.305-1.119a3.457,3.457,0,0,0-1.74.482l-.311-1.057A4.6,4.6,0,0,1,515.6,87a2.407,2.407,0,0,1,2.657,2.719V92.05a11.117,11.117,0,0,0,.093,1.554Zm-.218-3.154c-1.15-.031-2.253.218-2.253,1.212a.857.857,0,0,0,.932.932,1.324,1.324,0,0,0,1.274-.886.986.986,0,0,0,.047-.357Z" transform="translate(-433.222 -73.612)" fill="#fff"/><path d="M558.7,78.4c.031-.435.047-1.15.047-1.818V69h1.631v3.838h.031a2.343,2.343,0,0,1,2.066-1.025c1.569,0,2.7,1.305,2.688,3.263,0,2.315-1.476,3.465-2.921,3.465a2.191,2.191,0,0,1-2.035-1.119h-.031l-.078.963h-1.4Zm1.678-2.672a1.566,1.566,0,0,0,.047.388,1.5,1.5,0,0,0,1.445,1.134c1.025,0,1.647-.823,1.647-2.113,0-1.134-.544-2.066-1.631-2.066a1.527,1.527,0,0,0-1.445,1.2,1.73,1.73,0,0,0-.047.42v1.041Z" transform="translate(-472 -58.389)" fill="#fff"/><path d="M608.8,69h1.647v9.4H608.8Z" transform="translate(-514.322 -58.388)" fill="#fff"/><path d="M629.669,90.838a1.749,1.749,0,0,0,1.989,1.662,4.815,4.815,0,0,0,1.787-.3l.233,1.119a6.22,6.22,0,0,1-2.253.4,3.053,3.053,0,0,1-3.325-3.263A3.191,3.191,0,0,1,631.254,87c2.1,0,2.781,1.725,2.781,3.139a5.586,5.586,0,0,1-.047.684h-4.319Zm2.828-1.15a1.38,1.38,0,0,0-1.336-1.569,1.584,1.584,0,0,0-1.492,1.569Z" transform="translate(-530.63 -73.612)" fill="#fff"/><path d="M696.241,90.309a3.191,3.191,0,0,1-3.309,3.434,3.116,3.116,0,0,1-3.232-3.325A3.185,3.185,0,0,1,693.041,87,3.1,3.1,0,0,1,696.241,90.309Zm-4.863.078c0,1.243.606,2.191,1.6,2.191.932,0,1.569-.917,1.569-2.206,0-1.01-.451-2.16-1.569-2.16C691.844,88.2,691.378,89.315,691.378,90.387Z" transform="translate(-582.671 -73.612)" fill="#fff"/><path d="M740.147,88.982c0-.746-.016-1.367-.047-1.927h1.43l.078.963h.047A2.341,2.341,0,0,1,743.7,86.9c1.119,0,2.284.73,2.284,2.766v3.822h-1.631v-3.62c0-.932-.342-1.631-1.227-1.631a1.371,1.371,0,0,0-1.274.948,1.826,1.826,0,0,0-.062.528V93.5h-1.647Z" transform="translate(-625.25 -73.527)" fill="#fff"/><path d="M805.2,76.1v1.849h1.554v1.212H805.2V82c0,.777.218,1.2.839,1.2a2.811,2.811,0,0,0,.637-.078l.031,1.243a3.59,3.59,0,0,1-1.181.155,1.884,1.884,0,0,1-1.4-.528,2.578,2.578,0,0,1-.5-1.8v-3.03H802.7V77.949h.932V76.488Z" transform="translate(-678.134 -64.394)" fill="#fff"/><path d="M836.7,69h1.647v3.838h.031A2.338,2.338,0,0,1,840.3,71.8c1.1,0,2.253.73,2.253,2.8V78.4h-1.631V74.78c0-.932-.342-1.647-1.243-1.647a1.32,1.32,0,0,0-1.258.917,1.612,1.612,0,0,0-.062.5V78.4h-1.647V69Z" transform="translate(-706.889 -58.388)" fill="#fff"/><path d="M884.269,90.838a1.749,1.749,0,0,0,1.989,1.662,4.816,4.816,0,0,0,1.787-.3l.233,1.119a6.22,6.22,0,0,1-2.253.4,3.053,3.053,0,0,1-3.325-3.263A3.191,3.191,0,0,1,885.854,87c2.1,0,2.781,1.725,2.781,3.139a5.586,5.586,0,0,1-.047.684h-4.319Zm2.828-1.15a1.38,1.38,0,0,0-1.336-1.569,1.584,1.584,0,0,0-1.492,1.569Z" transform="translate(-745.742 -73.612)" fill="#fff"/></svg>