<?xml version="1.0" encoding="UTF-8"?>
<svg width="48px" height="46px" viewBox="0 0 48 46" version="1.1" xmlns="http://www.w3.org/2000/svg" xmlns:xlink="http://www.w3.org/1999/xlink">
    <title>FFD039CC-3F9C-4CB2-998C-BB619614FF57</title>
    <g id="Main-Files" stroke="none" stroke-width="1" fill="none" fill-rule="evenodd">
        <g id="Home" transform="translate(-256.000000, -895.000000)" fill="#FF375E" fill-rule="nonzero">
            <g id="02_How-it-works" transform="translate(151.000000, 687.000000)">
                <g id="step-1" transform="translate(95.000000, 208.000000)">
                    <g id="Gift" transform="translate(10.000000, 0.000000)">
                        <path d="M47.6159975,9.91999949 L38.152318,9.91999949 C39.7156571,8.17214292 40.1070099,5.66924367 39.1518335,3.52759253 C38.1966571,1.3859414 36.0729949,0.00473885585 33.7279982,0 C30.6726384,0 28.6985585,1.17055994 26.7046386,4.16639978 C26.2284786,4.87071975 24.7999987,7.34079962 23.8079988,8.92799954 C22.8159988,7.34079962 21.3875189,4.87071975 20.9113589,4.16639978 C18.927359,1.19039994 16.9433591,0 13.8879993,0 C11.5430027,0.00473885585 9.41934044,1.3859414 8.46416403,3.52759253 C7.50898763,5.66924367 7.90034045,8.17214292 9.46367951,9.91999949 L0,9.91999949 L0,19.839999 L4.03743979,19.839999 L5.38655972,37.3884781 C5.74498893,42.0501465 9.6391518,45.6457569 14.3145593,45.632037 L33.3212783,45.632037 C37.9966857,45.6457569 41.8908486,42.0501465 42.2492778,37.3884781 L43.5785577,19.839999 L47.6159975,19.839999 L47.6159975,9.91999949 Z M28.3513585,5.25759973 C29.9881584,2.80735985 31.3471984,1.9839999 33.7279982,1.9839999 C35.919464,1.9839999 37.695998,3.76053392 37.695998,5.95199969 C37.695998,8.14346546 35.919464,9.91999949 33.7279982,9.91999949 L25.5439987,9.91999949 C26.4863986,8.32287957 27.9148786,5.95199969 28.3513585,5.25759973 Z M9.91999949,5.95199969 C9.91999949,3.76053392 11.6965335,1.9839999 13.8879993,1.9839999 C16.2687992,1.9839999 17.6278391,2.80735985 19.264639,5.25759973 C19.701119,5.95199969 21.1295989,8.32287957 22.0719989,9.91999949 L13.8879993,9.91999949 C11.6965335,9.91999949 9.91999949,8.14346546 9.91999949,5.95199969 Z M1.9839999,11.9039994 L22.8159988,11.9039994 L22.8159988,17.8559991 L1.9839999,17.8559991 L1.9839999,11.9039994 Z M7.37055962,37.2396781 L6.03135969,19.839999 L22.8159988,19.839999 L22.8159988,43.6479977 L14.2947193,43.6479977 C10.6670948,43.6484432 7.65040491,40.8564924 7.37055962,37.2396781 Z M40.2454379,37.2396781 C39.9650192,40.8641126 36.9366883,43.6588294 33.3014383,43.6480291 L24.7999987,43.6480291 L24.7999987,19.839999 L41.5846378,19.839999 L40.2454379,37.2396781 Z M45.6319976,17.8559991 L24.7999987,17.8559991 L24.7999987,11.9039994 L45.6319976,11.9039994 L45.6319976,17.8559991 Z" id="Shape"></path>
                    </g>
                </g>
            </g>
        </g>
    </g>
</svg>