<svg xmlns="http://www.w3.org/2000/svg" width="160" height="55" viewBox="0 0 160 55"><g transform="translate(0)"><path d="M149.37,55H11.251c-4.206,0-6.89-.786-8.66-2.527C.791,50.7,0,48.067,0,43.892V10.615C0,6.471.807,3.9,2.623,2.249,4.361.678,6.952,0,11.251,0H149.37c4.268,0,6.766.678,8.365,2.3C159.348,3.913,160,6.317,160,10.615V43.892c0,4.268-.667,6.825-2.235,8.535C156.136,54.2,153.544,55,149.37,55ZM11.251,2.465c-6.968,0-8.768,1.679-8.768,8.15V43.892c0,3.42.59,5.592,1.847,6.825s3.461,1.818,6.921,1.818H149.37c6.549,0,8.147-1.695,8.147-8.643V10.615c0-6.7-1.443-8.15-8.147-8.15H11.251Z" transform="translate(0)" fill="#fff"/></g><path d="M311.17,165.95A6.838,6.838,0,0,1,309.288,171a7.322,7.322,0,0,1-5.55,2.242,7.87,7.87,0,1,1,0-15.74,7.792,7.792,0,0,1,3.1.627,6.248,6.248,0,0,1,2.367,1.693l-1.333,1.333a5.1,5.1,0,0,0-4.139-1.787,6.036,6.036,0,0,0,0,12.071,5.7,5.7,0,0,0,4.217-1.677,4.872,4.872,0,0,0,1.27-3.041h-5.471v-1.881h7.306a5.8,5.8,0,0,1,.11,1.113" transform="translate(-250.028 -133.402)" fill="#fff" fill-rule="evenodd"/><path d="M401.347,196a3.183,3.183,0,0,0,2.367,1.019A3.216,3.216,0,0,0,406.082,196a4.167,4.167,0,0,0,0-5.424,3.183,3.183,0,0,0-2.367-1.019,3.216,3.216,0,0,0-2.367,1.019,4.167,4.167,0,0,0,0,5.424Zm-1.458-6.631a5.413,5.413,0,0,1,7.619,0A5.444,5.444,0,0,1,409,193.3a5.536,5.536,0,0,1-1.489,3.935,5.413,5.413,0,0,1-7.619,0,5.943,5.943,0,0,1,0-7.87" transform="translate(-336.617 -158.992)" fill="#fff" fill-rule="evenodd"/><path d="M473.33,196a3.183,3.183,0,0,0,2.367,1.019A3.216,3.216,0,0,0,478.064,196a4.167,4.167,0,0,0,0-5.424,3.183,3.183,0,0,0-2.367-1.019,3.217,3.217,0,0,0-2.367,1.019,4.167,4.167,0,0,0,0,5.424Zm-1.442-6.631a5.413,5.413,0,0,1,7.619,0A5.444,5.444,0,0,1,481,193.3a5.536,5.536,0,0,1-1.489,3.935,5.413,5.413,0,0,1-7.619,0A5.444,5.444,0,0,1,470.4,193.3a5.355,5.355,0,0,1,1.489-3.935" transform="translate(-397.449 -158.992)" fill="#fff" fill-rule="evenodd"/><path d="M547.521,197.018A3.124,3.124,0,0,0,549.856,196a4.324,4.324,0,0,0,0-5.424,3.169,3.169,0,0,0-4.656,0,4.27,4.27,0,0,0,0,5.424A3.06,3.06,0,0,0,547.521,197.018Zm-.141,6.334a4.67,4.67,0,0,1-2.994-.909,5.377,5.377,0,0,1-1.662-2.1l1.772-.737a2.967,2.967,0,0,0,1.082,1.411,3.04,3.04,0,0,0,1.8.564,3.393,3.393,0,0,0,2.555-.956,3.633,3.633,0,0,0,.956-2.6v-.941h-.157a4.458,4.458,0,0,1-1.427,1.239,4.18,4.18,0,0,1-2.085.486,4.582,4.582,0,0,1-3.465-1.583,6,6,0,0,1,0-7.839,4.558,4.558,0,0,1,3.465-1.583,4.188,4.188,0,0,1,2.085.5,4.33,4.33,0,0,1,1.427,1.254h.157v-1.411h1.724v9.783a5.174,5.174,0,0,1-1.505,4.045,5.435,5.435,0,0,1-3.731,1.38" transform="translate(-458.2 -159.063)" fill="#fff" fill-rule="evenodd"/><rect width="2.514" height="15.084" transform="translate(95.331 24.458)" fill="#fff"/><path d="M647.842,192.064a2.692,2.692,0,0,0-.815-1.693,2.906,2.906,0,0,0-2.226-.8,2.84,2.84,0,0,0-1.866.674,3.294,3.294,0,0,0-1.082,1.819Zm-2.775,6.726a4.966,4.966,0,0,1-3.81-1.568,5.528,5.528,0,0,1-1.458-3.935,5.634,5.634,0,0,1,1.427-3.872,4.606,4.606,0,0,1,3.637-1.615,4.806,4.806,0,0,1,3.684,1.489,5.635,5.635,0,0,1,1.38,4l-.016.345H641.76a3.458,3.458,0,0,0,1.05,2.477,3.153,3.153,0,0,0,2.242.909,2.777,2.777,0,0,0,2.822-1.772l1.724.721a4.547,4.547,0,0,1-1.662,2.007,4.942,4.942,0,0,1-2.869.815" transform="translate(-540.578 -158.992)" fill="#fff" fill-rule="evenodd"/><path d="M742.881,167.055h3.245a2.5,2.5,0,0,0,1.96-.831,2.7,2.7,0,0,0,.737-1.819,2.738,2.738,0,0,0-.737-1.834,2.512,2.512,0,0,0-1.96-.847h-3.245Zm0,8H741V160h5.079a4.761,4.761,0,0,1,3.324,1.239,4.083,4.083,0,0,1,1.4,3.2,4.19,4.19,0,0,1-1.4,3.214,4.8,4.8,0,0,1-3.324,1.286h-3.2v6.114" transform="translate(-626.081 -135.51)" fill="#fff" fill-rule="evenodd"/><rect width="1.676" height="15.084" transform="translate(126.026 24.458)" fill="#fff"/><path d="M835.37,197.018a3.168,3.168,0,0,0,2.179-.894,2.748,2.748,0,0,0,.972-2.116,3.779,3.779,0,0,0-2.461-.674,3.232,3.232,0,0,0-2.132.611,1.85,1.85,0,0,0-.721,1.427,1.4,1.4,0,0,0,.658,1.207A2.646,2.646,0,0,0,835.37,197.018Zm-.314,1.8a4.087,4.087,0,0,1-2.744-.956,3.365,3.365,0,0,1,.188-5.158,5.292,5.292,0,0,1,3.23-.956,5.672,5.672,0,0,1,2.806.627v-.314a2.314,2.314,0,0,0-.784-1.819,2.809,2.809,0,0,0-1.913-.69,2.943,2.943,0,0,0-1.521.408,2.072,2.072,0,0,0-.941,1.1l-1.772-.753a4.054,4.054,0,0,1,1.411-1.724,4.5,4.5,0,0,1,2.791-.784,4.865,4.865,0,0,1,3.308,1.16,4.117,4.117,0,0,1,1.317,3.261v6.271h-1.881v-1.411h-.078a4.038,4.038,0,0,1-3.418,1.74" transform="translate(-702.523 -158.992)" fill="#fff" fill-rule="evenodd"/><path d="M896,204.893h-2.038l2.4-5.2L892.1,190h2.116l3.073,7.368h.047L900.331,190h2.1l-6.475,14.893" transform="translate(-753.876 -160.915)" fill="#fff" fill-rule="evenodd"/><path d="M114.758,89.666,96.4,79.1l14.5,14.439Z" transform="translate(-81.287 -66.988)" fill="#fff" fill-rule="evenodd"/><path d="M85.11,79.8a.953.953,0,0,0-.11.425v28.967a.689.689,0,0,0,.047.258l15.364-14.908Z" transform="translate(-71.674 -67.29)" fill="#fff" fill-rule="evenodd"/><path d="M107.866,182.5,92.8,197.6a.315.315,0,0,0,.125-.063l19.032-10.958Z" transform="translate(-78.252 -154.566)" fill="#fff" fill-rule="evenodd"/><path d="M204.859,154.1l-6.067-3.5-4.092,4.107,4.343,4.311,5.832-3.355A.917.917,0,0,0,204.859,154.1Z" transform="translate(-164.506 -127.471)" fill="#fff" fill-rule="evenodd"/><path d="M299.582,87.79H303.3c.016.078.031.188.047.314a2.779,2.779,0,0,1,.016.361,4.46,4.46,0,0,1-.219,1.38,3.087,3.087,0,0,1-.705,1.16,3.324,3.324,0,0,1-1.223.831,4.063,4.063,0,0,1-1.615.3,3.967,3.967,0,0,1-1.552-.3,3.878,3.878,0,0,1-1.27-.831,3.971,3.971,0,0,1-.862-1.254,4.019,4.019,0,0,1-.314-1.583,4.076,4.076,0,0,1,.314-1.583,3.894,3.894,0,0,1,.862-1.254,4.144,4.144,0,0,1,1.27-.831,3.967,3.967,0,0,1,1.552-.3,4.221,4.221,0,0,1,1.646.314,3.5,3.5,0,0,1,1.238.878l-.988.956a2.542,2.542,0,0,0-.831-.6,2.589,2.589,0,0,0-1.1-.2,2.635,2.635,0,0,0-.988.188,2.581,2.581,0,0,0-.815.517,2.268,2.268,0,0,0-.549.815,2.587,2.587,0,0,0-.2,1.066,2.715,2.715,0,0,0,.2,1.082,2.528,2.528,0,0,0,.564.815,2.333,2.333,0,0,0,.815.517,2.635,2.635,0,0,0,.988.188,2.766,2.766,0,0,0,1.019-.172,2.261,2.261,0,0,0,.721-.455,1.458,1.458,0,0,0,.361-.486,2.045,2.045,0,0,0,.235-.658h-2.336Z" transform="translate(-249.75 -71.266)" fill="#fff"/><path d="M354.827,86.648V88.4h3.041v1.348h-3.041v1.756H358.2v1.348h-4.8V85.3h4.8v1.348Z" transform="translate(-298.573 -72.195)" fill="#fff"/><path d="M391.816,92.872V86.648H389.7V85.3h5.659v1.348h-2.116v6.224Z" transform="translate(-329.245 -72.195)" fill="#fff"/><path d="M448.4,85.3h1.427v7.572H448.4Z" transform="translate(-378.819 -72.195)" fill="#fff"/><path d="M466.716,92.872V86.648H464.6V85.3h5.659v1.348h-2.116v6.224Z" transform="translate(-392.526 -72.195)" fill="#fff"/><path d="M523.451,92.033a4,4,0,0,1-1.568-.314,3.851,3.851,0,0,1-1.254-.847,3.81,3.81,0,0,1-.831-1.254,4.193,4.193,0,0,1,0-3.1,3.654,3.654,0,0,1,.831-1.254,3.692,3.692,0,0,1,1.254-.847,4.076,4.076,0,0,1,3.135,0,3.85,3.85,0,0,1,1.254.847,4.072,4.072,0,0,1,.831,1.254,4.193,4.193,0,0,1,0,3.1,3.875,3.875,0,0,1-2.085,2.1A3.942,3.942,0,0,1,523.451,92.033Zm0-1.364a2.577,2.577,0,0,0,.988-.188,2.172,2.172,0,0,0,.8-.533,2.234,2.234,0,0,0,.533-.815,2.87,2.87,0,0,0,.188-1.066A2.929,2.929,0,0,0,525.771,87a2.452,2.452,0,0,0-.533-.815,2.743,2.743,0,0,0-.8-.533,2.635,2.635,0,0,0-.988-.188,2.521,2.521,0,0,0-.988.188,2.308,2.308,0,0,0-.8.533,2.233,2.233,0,0,0-.533.815,2.871,2.871,0,0,0-.188,1.066,2.93,2.93,0,0,0,.188,1.066,2.451,2.451,0,0,0,.533.815,2.743,2.743,0,0,0,.8.533A2.635,2.635,0,0,0,523.451,90.669Z" transform="translate(-438.922 -71.181)" fill="#fff"/><path d="M577.816,85.3h1.662l3.041,5.079h.078l-.078-1.458V85.3h1.411v7.572h-1.505l-3.214-5.362h-.078l.078,1.458v3.9H577.8V85.3Z" transform="translate(-488.168 -72.195)" fill="#fff"/></svg>