<?xml version="1.0" encoding="UTF-8"?>
<svg width="48px" height="53px" viewBox="0 0 48 53" version="1.1" xmlns="http://www.w3.org/2000/svg" xmlns:xlink="http://www.w3.org/1999/xlink">
    <title>A81A19DA-6BCA-4939-BFFE-E9C6AB715C2A</title>
    <g id="Main-Files" stroke="none" stroke-width="1" fill="none" fill-rule="evenodd">
        <g id="Home" transform="translate(-684.000000, -892.000000)" fill="#FF375E" fill-rule="nonzero">
            <g id="02_How-it-works" transform="translate(151.000000, 687.000000)">
                <g id="step-3" transform="translate(523.000000, 205.000000)">
                    <g id="Like" transform="translate(10.000000, 0.000000)">
                        <path d="M44.9545331,24.7784326 C42.9977559,22.8492336 40.3515872,21.7813435 37.6038889,21.8120005 L28.3556007,21.8120005 C27.5407472,21.955382 26.710886,21.6566319 26.1744006,21.0267685 C25.839309,20.2597827 25.9088507,19.3761937 26.3598026,18.6710724 L28.1811047,15.3992724 C29.8664161,12.6749184 30.348097,9.37421985 29.5116367,6.28185615 C28.6472621,3.49949676 26.6409909,1.21567814 23.9932006,0 L22.9026005,0 L8.12497019,21.8120005 L0,21.8120005 L2.80284207,40.0686449 C3.67442172,47.0234075 9.54662292,52.2669432 16.5553084,52.3488012 L36.2406389,52.3488012 C38.8907969,52.3488012 47.5283491,45.1290291 47.9864011,34.8992008 C48.1499911,30.4822707 47.1357331,27.0577866 44.9545331,24.7784326 Z M45.8052011,34.8992008 C45.4125851,44.125677 37.6911369,50.0258232 36.2624509,50.1676012 L16.5553084,50.1676012 C10.6275969,50.0798383 5.67603797,45.626696 4.96223012,39.7414649 L2.35569606,23.9932006 L9.28100622,23.9932006 L23.7859866,2.50838006 C25.524926,3.44359455 26.8456993,5.00202906 27.4831206,6.87078016 C28.1544667,9.38049048 27.7598448,12.0560268 26.3925206,14.2650483 L24.5385006,17.5913784 C23.6955278,18.9808765 23.6581092,20.714606 24.4403466,22.1391805 C25.3246955,23.4073079 26.8141875,24.1126384 28.3556007,23.9932006 L37.6257009,23.9932006 C39.7763312,23.9617928 41.8514422,24.7855609 43.394975,26.2834606 C45.1399351,28.1265747 45.9469791,31.0057587 45.8052011,34.8992008 Z" id="Shape"></path>
                    </g>
                </g>
            </g>
        </g>
    </g>
</svg>