<svg xmlns="http://www.w3.org/2000/svg" width="64" height="64" viewBox="0 0 64 64"><g transform="translate(-827 -574)"><rect width="64" height="64" transform="translate(827 574)" fill="none"/><g transform="translate(826.49 575.048)"><g transform="translate(1.51 0.952)"><g transform="translate(0 0)"><g transform="translate(0 0)"><g transform="translate(0)"><g transform="translate(0 8.328)"><path d="M43.129.05V2.9L55.569,19.93,26.254,48.757a2.834,2.834,0,0,1-2,.819H3.784V42.61l9.857-5.648.047-.027.046-.029a5.652,5.652,0,0,0,2.225-2.6L26.286,10.254h4.255a5.737,5.737,0,0,0,3.414-1.134L42.98,3.012l.074-.053.074-.057h0V.05m0,0a2.839,2.839,0,0,0-1.748.6L32.291,6.8a2.854,2.854,0,0,1-1.751.6H26.285a2.851,2.851,0,0,0-2.628,1.745L13.338,33.177a2.849,2.849,0,0,1-1.117,1.312L2.27,40.19A2.852,2.852,0,0,0,.93,42.608v6.968a2.851,2.851,0,0,0,2.851,2.851H24.255a5.7,5.7,0,0,0,4-1.637L57.569,21.962a2.85,2.85,0,0,0,.328-3.746l-12.467-17A2.846,2.846,0,0,0,43.129.05Z" transform="translate(-0.93 -0.05)" fill="#ff375e"/></g><g transform="translate(54.169)"><rect width="2.851" height="11.404" transform="translate(0)" fill="#ff375e"/></g><g transform="translate(49.893 4.277)"><rect width="11.404" height="2.851" transform="translate(0 0)" fill="#ff375e"/></g><g transform="translate(20.61 27.085)"><rect width="9.978" height="2.851" transform="translate(0 0)" fill="#ff375e"/></g><g transform="translate(16.335 34.212)"><rect width="9.978" height="2.851" transform="translate(0 0)" fill="#ff375e"/></g><g transform="translate(1.428 19.567)"><path d="M19.906,35.1H.854V32.248H19.906A4.253,4.253,0,0,0,22.9,31.026l10.332-9.814a4.248,4.248,0,0,0,.986-1.417l3.3-7.707a7.171,7.171,0,0,1,1.859-2.556L49.806.41l1.878,2.145L41.256,11.68a4.289,4.289,0,0,0-1.116,1.534l-3.3,7.707A7.107,7.107,0,0,1,35.2,23.281l-10.316,9.8A7.074,7.074,0,0,1,19.906,35.1Z" transform="translate(-0.854 -0.41)" fill="#ff375e"/></g></g></g></g></g></g></g></svg>