<svg xmlns="http://www.w3.org/2000/svg" width="60" height="60" viewBox="0 0 60 60"><g transform="translate(-266 -1059)"><g transform="translate(151 864)"><g transform="translate(95 195)"><g transform="translate(20)"><rect width="60" height="60" rx="30" fill="#ff6a39" opacity="0.3"/><path d="M13.039,36.973a3.082,3.082,0,0,1,.828-4.222,2.949,2.949,0,0,1,4.139.844c3.454,5.284,7.529,7.778,12.441,7.778s8.988-2.494,12.441-7.778a2.949,2.949,0,0,1,4.14-.844,3.082,3.082,0,0,1,.828,4.222c-4.506,6.895-10.381,10.49-17.409,10.49S17.545,43.867,13.039,36.973Z" fill="#ff6a39"/></g></g></g></g></svg>